<?xml version="1.0" encoding="UTF-8"?>
<svg version="1.1" xmlns="http://www.w3.org/2000/svg" width="176" height="176">
<path d="M0 0 C58.08 0 116.16 0 176 0 C176 58.08 176 116.16 176 176 C117.92 176 59.84 176 0 176 C0 117.92 0 59.84 0 0 Z " fill="#8C120D" transform="translate(0,0)"/>
<path d="M0 0 C58.08 0 116.16 0 176 0 C176 58.08 176 116.16 176 176 C150.26 176 124.52 176 98 176 C98 175.67 98 175.34 98 175 C98.969375 174.79246094 99.93875 174.58492187 100.9375 174.37109375 C124.53544586 169.05940094 145.81489343 157.52019805 159.24536133 136.79516602 C165.45846939 127.51858263 165.45846939 127.51858263 168 117 C167.01 117.33 166.02 117.66 165 118 C165.33 119.32 165.66 120.64 166 122 C164.68 122 163.36 122 162 122 C161.67 120.02 161.34 118.04 161 116 C160.34 116 159.68 116 159 116 C159.33 116.99 159.66 117.98 160 119 C159.01 119.495 159.01 119.495 158 120 C158 117.36 158 114.72 158 112 C159.65 112.33 161.3 112.66 163 113 C165.42743391 108.70080982 165.85413555 104.85462755 165 100 C162.89612236 97.14606522 162.89612236 97.14606522 160 95 C158.33333333 93.33333333 156.66666667 91.66666667 155 90 C154.5875 90.969375 154.175 91.93875 153.75 92.9375 C153.1725 93.948125 152.595 94.95875 152 96 C150.68 96.33 149.36 96.66 148 97 C148 93.04 148 89.08 148 85 C147.01 85 146.02 85 145 85 C145 84.34 145 83.68 145 83 C143.68 83 142.36 83 141 83 C141 95.87 141 108.74 141 122 C140.67 122 140.34 122 140 122 C139.97472998 115.46721214 139.95716708 108.93443679 139.94506836 102.40161133 C139.94002683 100.17732268 139.93319377 97.95303737 139.92456055 95.72875977 C139.91248702 92.53921691 139.90677004 89.34971771 139.90234375 86.16015625 C139.89718246 85.15912369 139.89202118 84.15809113 139.88670349 83.12672424 C139.88662796 82.20584518 139.88655243 81.28496613 139.88647461 80.33618164 C139.884254 79.52121719 139.88203339 78.70625275 139.87974548 77.86659241 C140 76 140 76 141 75 C143.3125 74.625 143.3125 74.625 146 75 C149.62531251 78.52173216 150.33183844 80.99551533 152 86 C152.33 81.05 152.66 76.1 153 71 C148.71 71 144.42 71 140 71 C139.97315688 68.18743719 139.95323812 65.37512759 139.9375 62.5625 C139.92912109 61.76005859 139.92074219 60.95761719 139.91210938 60.13085938 C139.9034857 58.08704779 139.9477185 56.04316098 140 54 C141 53 141 53 144.6875 52.625 C148.26660887 52.67640551 149.14342811 53.09030659 152.375 55.125 C155 58 155 58 157 64 C157.33 58.72 157.66 53.44 158 48 C151.70054218 48.01943571 145.40247829 48.07120221 139.10351562 48.15258789 C136.96199137 48.17574563 134.82035359 48.19015837 132.67871094 48.19555664 C129.59498527 48.20486222 126.51303982 48.24588928 123.4296875 48.29296875 C122.47633514 48.2890361 121.52298279 48.28510345 120.54074097 48.28105164 C116.09368177 48.37805984 112.94991346 48.55500587 109.39355469 51.38793945 C106.79102473 54.22805246 106.22151841 55.22199158 106.375 59 C106.64020393 63.4487959 107.62652469 65.92418428 111 69 C113.28705831 70.14352916 114.59264762 70.10334439 117.125 70.0625 C118.40375 70.041875 119.6825 70.02125 121 70 C121 69.34 121 68.68 121 68 C120.360625 67.71125 119.72125 67.4225 119.0625 67.125 C117 66 117 66 116 64 C115.42604857 56.88300221 115.42604857 56.88300221 117.625 53.5 C120.65139498 51.58859264 122.48156769 51.54107405 126 52 C128.79196585 54.79196585 128.25957225 56.51041204 128.2746582 60.42163086 C128.27976913 61.08034683 128.28488007 61.73906281 128.29014587 62.41773987 C128.30407195 64.60019967 128.30308286 66.78234474 128.30078125 68.96484375 C128.30466667 70.4793764 128.30900101 71.99390797 128.31376648 73.50843811 C128.32123525 76.68526743 128.3209328 79.86198564 128.31567383 83.03881836 C128.3098796 87.11236658 128.32680547 91.18546005 128.3500185 95.25893307 C128.36474239 98.38760544 128.36562938 101.51616797 128.36250877 104.64486885 C128.36302271 106.14679426 128.36827404 107.6487257 128.37832069 109.1506176 C128.39064173 111.25037136 128.38392053 113.34923536 128.37231445 115.44897461 C128.37294388 116.64429306 128.3735733 117.83961151 128.3742218 119.07115173 C128 122 128 122 126.47673035 123.90943909 C125.98940933 124.26932419 125.50208832 124.62920929 125 125 C125 124.01 125 123.02 125 122 C123.35 121.67 121.7 121.34 120 121 C120.33 121.66 120.66 122.32 121 123 C119.02 122.01 119.02 122.01 117 121 C117.495 119.515 117.495 119.515 118 118 C122.75 118.875 122.75 118.875 125 120 C125 119.01 125 118.02 125 117 C123.515 116.505 123.515 116.505 122 116 C122.165 115.4225 122.33 114.845 122.5 114.25 C123.14462031 111.73335631 123.14462031 111.73335631 123 108 C122.34 108 121.68 108 121 108 C120.505 109.485 120.505 109.485 120 111 C118.02 110.01 118.02 110.01 116 109 C116.04125 108.071875 116.0825 107.14375 116.125 106.1875 C116.27136339 102.84190281 116.27136339 102.84190281 114 100 C113.875 97.3125 113.875 97.3125 114 95 C114.99 94.67 115.98 94.34 117 94 C117 93.34 117 92.68 117 92 C115.6696875 91.814375 115.6696875 91.814375 114.3125 91.625 C111.287581 91.05426057 108.83467655 90.1491932 106 89 C105.01 89 104.02 89 103 89 C101.29467677 90.94009522 101.29467677 90.94009522 100 93 C100.66 93.66 101.32 94.32 102 95 C99.3333581 96.33332095 97.83319697 95.67102033 95 95 C95.07904578 92.31244347 95.54429551 90.53188196 97.30859375 88.47265625 C101.71371326 84.47447619 106.4807345 82.12760802 112 80 C112 77.69 112 75.38 112 73 C108.77484237 71.26337666 105.48670834 70.1094072 102 69 C102 67.68 102 66.36 102 65 C101.91833438 60.10004856 101.91833438 60.10004856 100 56 C99.67 60.95 99.34 65.9 99 71 C98.67 71 98.34 71 98 71 C98 63.41 98 55.82 98 48 C82.16 48.495 82.16 48.495 66 49 C66.33 49.33 66.66 49.66 67 50 C67.10498905 52.28969104 67.13857559 54.58266882 67.14526367 56.87475586 C67.14862228 57.59345352 67.1519809 58.31215118 67.15544128 59.05262756 C67.16497839 61.4400503 67.16689577 63.82740312 67.16796875 66.21484375 C67.17117943 67.86772186 67.17454335 69.52059968 67.17805481 71.17347717 C67.184053 74.64292052 67.18589401 78.11233894 67.18530273 81.58178711 C67.18520108 86.03537167 67.19885402 90.48879693 67.21607494 94.94234371 C67.22717397 98.35747517 67.22922259 101.77256787 67.22869301 105.18771553 C67.22987627 106.83001823 67.23431731 108.47232182 67.24202538 110.11460686 C67.25178313 112.40846907 67.24896414 114.70198221 67.24291992 116.99584961 C67.24434494 118.30299423 67.24576996 119.61013885 67.24723816 120.95689392 C67 124 67 124 65 126 C64.94392578 124.58847656 64.94392578 124.58847656 64.88671875 123.1484375 C64.82097656 121.90320313 64.75523438 120.65796875 64.6875 119.375 C64.62949219 118.14523438 64.57148437 116.91546875 64.51171875 115.6484375 C63.78283457 110.4516602 61.8542453 106.59695757 58.25 102.8125 C57.5075 101.884375 56.765 100.95625 56 100 C56.495 98.515 56.495 98.515 57 97 C57 97.66 57 98.32 57 99 C57.66 99 58.32 99 59 99 C60 100.66666667 61 102.33333333 62 104 C62.66 104 63.32 104 64 104 C63.39816251 101.97954558 62.72693904 99.97888961 62 98 C61.01 97.505 61.01 97.505 60 97 C60 96.34 60 95.68 60 95 C61.65 95 63.3 95 65 95 C65 94.01 65 93.02 65 92 C57.08 92 49.16 92 41 92 C41 78.14 41 64.28 41 50 C43.97 50.33 46.94 50.66 50 51 C50.99 51 51.98 51 53 51 C52.505 49.02 52.505 49.02 52 47 C40.78 47 29.56 47 18 47 C17.01 49.475 17.01 49.475 16 52 C17.2684375 51.505 17.2684375 51.505 18.5625 51 C22.21751702 49.93672232 25.21577171 49.92800517 29 50 C29.04633734 59.31853458 29.08187631 68.6370295 29.10362434 77.95565414 C29.11406222 82.28265197 29.1282215 86.60957097 29.15087891 90.93652344 C29.17260714 95.11215235 29.1845686 99.28770545 29.18975449 103.46338654 C29.19345028 105.05659427 29.2006672 106.64979786 29.21146011 108.24297333 C29.22597485 110.47424798 29.22797796 112.70520918 29.22705078 114.93652344 C29.231492 116.20671326 29.23593323 117.47690308 29.24050903 118.7855835 C29.01464072 121.80432598 28.5974076 123.47455016 27 126 C25.55645234 123.11290468 25.96115156 120.67341509 26.04296875 117.453125 C26.06537146 116.11980678 26.08682527 114.78647234 26.10742188 113.453125 C26.14439826 111.35502115 26.18728004 109.25774834 26.24682617 107.16015625 C26.30168072 105.13269387 26.33051198 103.10614809 26.35546875 101.078125 C26.38278076 99.86543945 26.41009277 98.65275391 26.43823242 97.40332031 C25.90940294 93.29642169 24.62072164 91.17122388 22 88 C20.515 87.505 20.515 87.505 19 87 C19 87.66 19 88.32 19 89 C16.69 89 14.38 89 12 89 C11.34 90.32 10.68 91.64 10 93 C9.34 93 8.68 93 8 93 C8 93.66 8 94.32 8 95 C4.04 95.99 4.04 95.99 0 97 C0 64.99 0 32.98 0 0 Z " fill="#82110D" transform="translate(0,0)"/>
<path d="M0 0 C25.41 0 50.82 0 77 0 C77 58.08 77 116.16 77 176 C51.26 176 25.52 176 -1 176 C-1 175.67 -1 175.34 -1 175 C-0.030625 174.79246094 0.93875 174.58492187 1.9375 174.37109375 C26.35238606 168.87551479 47.72354348 156.70124185 61.375 135.1875 C65.86574348 127.79523531 69.270796 120.19661928 72 112 C72.50853516 110.48792969 72.50853516 110.48792969 73.02734375 108.9453125 C79.06459675 87.52280184 74.58504362 64.78652315 64.109375 45.59375 C61.14109061 40.41434063 57.72945374 35.65607367 54 31 C53.50628906 30.319375 53.01257813 29.63875 52.50390625 28.9375 C40.3661535 13.30029127 18.7871103 4.77518765 0 1 C0 0.67 0 0.34 0 0 Z " fill="#010000" transform="translate(99,0)"/>
<path d="M0 0 C1.48337608 0.01273453 1.48337608 0.01273453 2.99671936 0.02572632 C6.13566968 0.059144 9.27199085 0.13440275 12.41015625 0.2109375 C14.54618669 0.24105208 16.68225766 0.26842526 18.81835938 0.29296875 C24.03827024 0.35378325 29.25254347 0.47120975 34.47265625 0.5859375 C34.47265625 8.1759375 34.47265625 15.7659375 34.47265625 23.5859375 C34.14265625 23.5859375 33.81265625 23.5859375 33.47265625 23.5859375 C33.36308594 22.92207031 33.25351563 22.25820312 33.140625 21.57421875 C31.92368981 14.64238876 31.92368981 14.64238876 28.47265625 8.5859375 C24.96418107 5.84633724 24.96418107 5.84633724 17.47265625 6.5859375 C17.14265625 12.1959375 16.81265625 17.8059375 16.47265625 23.5859375 C20.76265625 23.5859375 25.05265625 23.5859375 29.47265625 23.5859375 C29.47265625 30.1859375 29.47265625 36.7859375 29.47265625 43.5859375 C29.14265625 43.5859375 28.81265625 43.5859375 28.47265625 43.5859375 C28.29089844 42.83828125 28.10914063 42.090625 27.921875 41.3203125 C27.54482422 39.84304687 27.54482422 39.84304687 27.16015625 38.3359375 C26.91652344 37.36140625 26.67289063 36.386875 26.421875 35.3828125 C25.44376416 32.50080691 24.66862034 30.69647507 22.47265625 28.5859375 C20.82265625 28.5859375 19.17265625 28.5859375 17.47265625 28.5859375 C17.47265625 43.7659375 17.47265625 58.9459375 17.47265625 74.5859375 C22.23925312 76.11588765 22.23925312 76.11588765 25.109375 74.0390625 C27.78160613 71.26524242 28.92055317 68.92289418 30.28515625 65.3359375 C30.70410156 64.25828125 31.12304688 63.180625 31.5546875 62.0703125 C31.85761719 61.25046875 32.16054687 60.430625 32.47265625 59.5859375 C32.80265625 59.5859375 33.13265625 59.5859375 33.47265625 59.5859375 C33.47265625 66.1859375 33.47265625 72.7859375 33.47265625 79.5859375 C22.91265625 79.5859375 12.35265625 79.5859375 1.47265625 79.5859375 C2.13265625 77.9359375 2.79265625 76.2859375 3.47265625 74.5859375 C3.7673245 71.33964158 3.7673245 71.33964158 3.71557617 67.79199219 C3.71747452 67.12962555 3.71937286 66.46725891 3.72132874 65.78482056 C3.72501518 63.60902845 3.71436668 61.4335746 3.703125 59.2578125 C3.70193233 57.74277791 3.70148022 56.22774256 3.70173645 54.71270752 C3.70017551 51.54540344 3.69191265 48.37821301 3.6784668 45.2109375 C3.66141935 41.1430292 3.65765431 37.07524499 3.65841198 33.00730515 C3.65814075 29.88302416 3.65266801 26.75877051 3.64541054 23.6344986 C3.64222092 22.1337225 3.64025578 20.6329433 3.63951683 19.132164 C3.63735963 17.04215654 3.62863076 14.95228348 3.61791992 12.86230469 C3.61410812 11.67159363 3.61029633 10.48088257 3.60636902 9.25408936 C3.7756983 6.66536998 3.7756983 6.66536998 2.47265625 5.5859375 C-0.52629336 5.32515927 -2.7073767 5.14862174 -5.40234375 6.5859375 C-7.20418823 9.78921658 -7.20436669 13.05829166 -6.52734375 16.5859375 C-4.65232444 18.96313443 -4.65232444 18.96313443 -2.52734375 20.5859375 C-2.52734375 21.2459375 -2.52734375 21.9059375 -2.52734375 22.5859375 C-5.4303018 24.03741653 -7.29996154 23.95832775 -10.52734375 23.5859375 C-13.45672029 21.77283608 -15.96382324 19.71297851 -17.52734375 16.5859375 C-17.87109375 14.4140625 -17.87109375 14.4140625 -18.02734375 11.8359375 C-18.09953125 10.99546875 -18.17171875 10.155 -18.24609375 9.2890625 C-15.92305837 0.55242945 -7.73646333 -0.2526712 0 0 Z " fill="#E6D4B5" transform="translate(123.52734375,47.4140625)"/>
<path d="M0 0 C24.42 0 48.84 0 74 0 C71.44558331 2.55441669 69.71480501 2.61727543 66.1875 3.3125 C44.1483298 8.24772582 25.66262392 20.72855214 13.38549805 39.77416992 C9.01246723 46.87380131 5.25328445 53.92688271 3 62 C2.77957031 62.7321875 2.55914062 63.464375 2.33203125 64.21875 C1.86298779 65.80531312 1.42628838 67.40141859 1 69 C0.67 69 0.34 69 0 69 C0 46.23 0 23.46 0 0 Z " fill="#010000" transform="translate(0,0)"/>
<path d="M0 0 C1.62077889 3.24155778 2.6190687 5.94355211 3.625 9.375 C7.26371799 20.45347596 13.55698401 30.08610228 21 39 C21.60714844 39.80695313 22.21429687 40.61390625 22.83984375 41.4453125 C35.35131147 56.2418765 55.5342754 64.30685508 74 68 C74 68.33 74 68.66 74 69 C49.58 69 25.16 69 0 69 C0 46.23 0 23.46 0 0 Z " fill="#010000" transform="translate(0,107)"/>
<path d="M0 0 C10.89 0 21.78 0 33 0 C33 7.59 33 15.18 33 23 C32.67 23 32.34 23 32 23 C31.90203125 22.34773438 31.8040625 21.69546875 31.703125 21.0234375 C30.76154102 15.52004149 29.77877547 11.31860053 26 7 C22.63025406 5.14663973 20.92893511 5 17 5 C16.67 10.61 16.34 16.22 16 22 C19.96 22 23.92 22 28 22 C28 28.93 28 35.86 28 43 C26.2217618 40.3326427 25.4575853 38.56128859 24.5625 35.5625 C23.49165413 32.20791139 22.41244863 29.64220565 20 27 C18.68 27.33 17.36 27.66 16 28 C15.97467913 34.78099776 15.95714543 41.56198337 15.94506836 48.34301758 C15.94003449 50.6506394 15.93320695 52.95825803 15.92456055 55.26586914 C15.91245365 58.57959786 15.90676227 61.89328448 15.90234375 65.20703125 C15.89718246 66.2414888 15.89202118 67.27594635 15.88670349 68.3417511 C15.88662796 69.3025206 15.88655243 70.2632901 15.88647461 71.25317383 C15.88314369 72.52225334 15.88314369 72.52225334 15.87974548 73.81697083 C15.91375879 76.18055791 15.91375879 76.18055791 17 79 C11.39 79 5.78 79 0 79 C0.33 78.01 0.66 77.02 1 76 C1.09516833 73.63425165 1.12794766 71.26585469 1.12939453 68.89819336 C1.13114685 68.17920364 1.13289917 67.46021393 1.13470459 66.71943665 C1.13910591 64.34288113 1.13619147 61.96640002 1.1328125 59.58984375 C1.13348596 57.93982428 1.13445634 56.2898049 1.13571167 54.63978577 C1.13718625 51.18229223 1.13504149 47.72482452 1.13037109 44.26733398 C1.12466948 39.82954576 1.12795706 35.39181796 1.13394356 30.95403194 C1.13755182 27.54748578 1.13640944 24.14095401 1.13381577 20.73440742 C1.13314746 19.09769242 1.13397156 17.46097611 1.13629532 15.82426262 C1.13882666 13.54027705 1.13497464 11.25639029 1.12939453 8.97241211 C1.12859894 7.6712999 1.12780334 6.37018768 1.12698364 5.02964783 C1.21040828 2.07967869 1.21040828 2.07967869 0 0 Z " fill="#E7D4B5" transform="translate(65,48)"/>
<path d="M0 0 C11.22 0 22.44 0 34 0 C34.66 1.98 35.32 3.96 36 6 C31.71 5.01 27.42 4.02 23 3 C22.95479424 12.43166054 22.91810978 21.86324898 22.89637566 31.2949934 C22.88594376 35.67464922 22.87179539 40.05422699 22.84912109 44.43383789 C22.82737156 48.66134215 22.8154269 52.88877139 22.81024551 57.11632729 C22.80655355 58.72824598 22.79934407 60.34016063 22.78853989 61.95204735 C22.77399685 64.21185516 22.77202322 66.471354 22.77294922 68.73120117 C22.76628738 70.65980232 22.76628738 70.65980232 22.75949097 72.62736511 C22.85455127 76.3720265 22.85455127 76.3720265 25 81 C19.06 81 13.12 81 7 81 C7.99 79.02 8.98 77.04 10 75 C10.46693615 71.48961888 10.46693615 71.48961888 10.43237305 67.70947266 C10.4425647 67.00633942 10.45275635 66.30320618 10.46325684 65.57876587 C10.49325195 63.27378228 10.50263168 60.96921516 10.51171875 58.6640625 C10.52857552 57.05836623 10.5467271 55.45268307 10.56611633 53.84701538 C10.61351441 49.63523457 10.64338946 45.42350695 10.66955566 41.21154785 C10.69941282 36.90785215 10.74592538 32.60433954 10.79101562 28.30078125 C10.87693285 19.86726248 10.94278873 11.43376241 11 3 C6.71 3.66 2.42 4.32 -2 5 C-1.34 3.35 -0.68 1.7 0 0 Z " fill="#E5D2B3" transform="translate(18,47)"/>
<path d="M0 0 C5.14832776 0.08580546 7.08501168 0.12479378 10.875 3.75 C14.39544811 9.13421476 15.25395582 12.52412652 15 19 C15.66 19 16.32 19 17 19 C17 13.72 17 8.44 17 3 C20 5 20 5 20.4765625 6.875 C20.52554688 7.57625 20.57453125 8.2775 20.625 9 C20.86279979 12.11438544 20.86279979 12.11438544 22 15 C21.34 15 20.68 15 20 15 C20 15.66 20 16.32 20 17 C20.886875 17.061875 21.77375 17.12375 22.6875 17.1875 C26.83783875 18.20550762 28.40560608 19.64254905 31 23 C31.1328125 25.671875 31.1328125 25.671875 31 28 C30.10796875 28.45890625 29.2159375 28.9178125 28.296875 29.390625 C27.11437938 30.01002747 25.93209902 30.62984099 24.75 31.25 C23.00976562 32.15492187 23.00976562 32.15492187 21.234375 33.078125 C17.58812117 35.2447396 14.62353248 37.12940256 13.25 41.25 C13.1675 41.8275 13.085 42.405 13 43 C14.65 43 16.3 43 18 43 C16.68 43.99 15.36 44.98 14 46 C14 45.34 14 44.68 14 44 C12.98679687 44.05220703 12.98679687 44.05220703 11.953125 44.10546875 C11.06109375 44.13253906 10.1690625 44.15960938 9.25 44.1875 C7.92742187 44.23970703 7.92742187 44.23970703 6.578125 44.29296875 C3.47880755 43.94077359 2.15551344 43.24112963 0 41 C0 39.68 0 38.36 0 37 C0.99 37 1.98 37 3 37 C3.33 35.68 3.66 34.36 4 33 C6.35953094 35.35953094 6.49141413 36.77895617 7 40 C8.485 39.505 8.485 39.505 10 39 C10.33 32.07 10.66 25.14 11 18 C7.04 18 3.08 18 -1 18 C-1.02684312 15.18743719 -1.04676188 12.37512759 -1.0625 9.5625 C-1.07087891 8.76005859 -1.07925781 7.95761719 -1.08789062 7.13085938 C-1.0965143 5.08704779 -1.0522815 3.04316098 -1 1 C-0.67 0.67 -0.34 0.34 0 0 Z " fill="#AE1712" transform="translate(82,52)"/>
<path d="M0 0 C5.94 0.99 5.94 0.99 12 2 C14.99977694 2.03658265 18.00039014 2.0483808 21 2 C21.66 2.33 22.32 2.66 23 3 C23 12.57 23 22.14 23 32 C16.27715356 32 16.27715356 32 12.625 30.1875 C8.44530849 28.14461707 4.44979487 26.66867308 0 25 C0 16.75 0 8.5 0 0 Z " fill="#A71610" transform="translate(42,53)"/>
<path d="M0 0 C0 7.59 0 15.18 0 23 C-1.32 21.35 -2.64 19.7 -4 18 C-6.11660427 16.68834743 -6.11660427 16.68834743 -8 16 C-8 16.66 -8 17.32 -8 18 C-10.31 18 -12.62 18 -15 18 C-15.66 19.32 -16.32 20.64 -17 22 C-17.66 22 -18.32 22 -19 22 C-19 22.66 -19 23.32 -19 24 C-21.64 24.66 -24.28 25.32 -27 26 C-27 18.08 -27 10.16 -27 2 C-8.4 -2.8 -8.4 -2.8 0 0 Z " fill="#6D0604" transform="translate(27,71)"/>
<path d="M0 0 C1.70393571 2.84369204 1.23996671 4.8859633 0.85546875 8.13671875 C0.73558594 9.22339844 0.61570313 10.31007813 0.4921875 11.4296875 C0.38519531 12.26113281 0.27820313 13.09257813 0.16796875 13.94921875 C2.15738909 13.1633554 2.15738909 13.1633554 4.16796875 11.94921875 C5.46028517 8.90722403 5.46028517 8.90722403 6.16796875 5.94921875 C7.88544951 7.38952682 9.58954387 8.8412966 11.27734375 10.31640625 C12.85029561 11.67486468 14.47242133 12.97612823 16.10546875 14.26171875 C18.68976305 17.62913253 18.76417671 19.70781959 18.54296875 23.85546875 C18.0669119 26.51345282 17.11162869 28.08654465 15.16796875 29.94921875 C13.51796875 29.61921875 11.86796875 29.28921875 10.16796875 28.94921875 C9.83796875 26.30921875 9.50796875 23.66921875 9.16796875 20.94921875 C8.56984375 21.44421875 7.97171875 21.93921875 7.35546875 22.44921875 C5.16796875 23.94921875 5.16796875 23.94921875 2.16796875 23.94921875 C2.06484375 24.71234375 1.96171875 25.47546875 1.85546875 26.26171875 C1.11256991 29.16577786 0.59802892 30.23917641 -1.83203125 31.94921875 C-3.15203125 31.94921875 -4.47203125 31.94921875 -5.83203125 31.94921875 C-5.83203125 34.58921875 -5.83203125 37.22921875 -5.83203125 39.94921875 C-6.16203125 39.94921875 -6.49203125 39.94921875 -6.83203125 39.94921875 C-6.83203125 26.74921875 -6.83203125 13.54921875 -6.83203125 -0.05078125 C-1.83203125 -1.05078125 -1.83203125 -1.05078125 0 0 Z " fill="#AC1712" transform="translate(147.83203125,83.05078125)"/>
<path d="M0 0 C1.2039337 3.75399798 1.09877617 7.33217412 1.0625 11.25 C1.05347656 12.51328125 1.04445313 13.7765625 1.03515625 15.078125 C1.02355469 16.04234375 1.01195313 17.0065625 1 18 C0.09378906 17.97679688 -0.81242187 17.95359375 -1.74609375 17.9296875 C-8.10635717 17.83546138 -13.98323347 17.83966074 -20.1328125 19.5625 C-22 20 -22 20 -26 20 C-25.69169075 17.99598989 -25.35036606 15.99708656 -25 14 C-24.8659375 13.21882813 -24.731875 12.43765625 -24.59375 11.6328125 C-24.4390625 10.82585938 -24.284375 10.01890625 -24.125 9.1875 C-23.98320312 8.41792969 -23.84140625 7.64835937 -23.6953125 6.85546875 C-23.46585938 6.24316406 -23.23640625 5.63085938 -23 5 C-22.01 4.67 -21.02 4.34 -20 4 C-19.34 3.34 -18.68 2.68 -18 2 C-15 1 -15 1 -12.8125 1.9375 C-11.9153125 2.4634375 -11.9153125 2.4634375 -11 3 C-11 2.34 -11 1.68 -11 1 C-7.27569643 0.30710631 -3.78916254 -0.11144596 0 0 Z " fill="#A11610" transform="translate(26,53)"/>
<path d="M0 0 C2 1 2 1 4 4 C4.99 3.67 5.98 3.34 7 3 C9 5 9 5 9 8 C22.365 8.495 22.365 8.495 36 9 C36 9.33 36 9.66 36 10 C25.11 10 14.22 10 3 10 C2.34 11.65 1.68 13.3 1 15 C1.845625 14.67 2.69125 14.34 3.5625 14 C7.21751702 12.93672232 10.21577171 12.92800517 14 13 C14.04633734 22.31853458 14.08187631 31.6370295 14.10362434 40.95565414 C14.11406222 45.28265197 14.1282215 49.60957097 14.15087891 53.93652344 C14.17260714 58.11215235 14.1845686 62.28770545 14.18975449 66.46338654 C14.19345028 68.05659427 14.2006672 69.64979786 14.21146011 71.24297333 C14.22597485 73.47424798 14.22797796 75.70520918 14.22705078 77.93652344 C14.231492 79.20671326 14.23593323 80.47690308 14.24050903 81.7855835 C14.01464072 84.80432598 13.5974076 86.47455016 12 89 C10.53958772 86.07917545 10.88071204 83.51698631 10.88647461 80.25537109 C10.88632858 79.56257553 10.88618256 78.86977997 10.8860321 78.1559906 C10.88672982 75.86177459 10.89451558 73.56763936 10.90234375 71.2734375 C10.90420843 69.68445887 10.9056321 68.09547966 10.90663147 66.50650024 C10.91045269 62.32090675 10.92027961 58.13534787 10.93133545 53.94976807 C10.94155806 49.68005847 10.94613091 45.4103433 10.95117188 41.140625 C10.96190222 32.76040077 10.97897392 24.38020469 11 16 C10.37351562 16.15597656 9.74703125 16.31195313 9.1015625 16.47265625 C7.87566406 16.76462891 7.87566406 16.76462891 6.625 17.0625 C5.40683594 17.35833984 5.40683594 17.35833984 4.1640625 17.66015625 C2 18 2 18 0 17 C0 17.66 0 18.32 0 19 C-0.7425 18.773125 -1.485 18.54625 -2.25 18.3125 C-5.04797157 17.69741574 -5.04797157 17.69741574 -7.1875 19.4375 C-7.785625 19.953125 -8.38375 20.46875 -9 21 C-9.66 21 -10.32 21 -11 21 C-8.9071487 13.4903571 -5.62130724 5.62130724 0 0 Z " fill="#643B3B" transform="translate(15,37)"/>
<path d="M0 0 C1.48337608 0.01273453 1.48337608 0.01273453 2.99671936 0.02572632 C6.13566968 0.059144 9.27199085 0.13440275 12.41015625 0.2109375 C14.54618669 0.24105208 16.68225766 0.26842526 18.81835938 0.29296875 C24.03827024 0.35378325 29.25254347 0.47120975 34.47265625 0.5859375 C34.47265625 8.1759375 34.47265625 15.7659375 34.47265625 23.5859375 C34.14265625 23.5859375 33.81265625 23.5859375 33.47265625 23.5859375 C33.36308594 22.92207031 33.25351563 22.25820312 33.140625 21.57421875 C31.92368981 14.64238876 31.92368981 14.64238876 28.47265625 8.5859375 C25.02814888 6.28959926 22.53453342 6.04577265 18.47265625 5.5859375 C18.47265625 5.2559375 18.47265625 4.9259375 18.47265625 4.5859375 C20.45265625 4.2559375 22.43265625 3.9259375 24.47265625 3.5859375 C21.79052815 2.24487345 19.58867593 2.37143331 16.58984375 2.26953125 C15.42324219 2.22763672 14.25664062 2.18574219 13.0546875 2.14257812 C11.83136719 2.10326172 10.60804688 2.06394531 9.34765625 2.0234375 C8.11660156 1.98025391 6.88554687 1.93707031 5.6171875 1.89257812 C2.56912772 1.78625046 -0.47901565 1.68421969 -3.52734375 1.5859375 C-3.52734375 2.2459375 -3.52734375 2.9059375 -3.52734375 3.5859375 C-1.87734375 3.5859375 -0.22734375 3.5859375 1.47265625 3.5859375 C1.47265625 3.9159375 1.47265625 4.2459375 1.47265625 4.5859375 C0.52390625 4.8746875 -0.42484375 5.1634375 -1.40234375 5.4609375 C-4.57945953 6.35418859 -4.57945953 6.35418859 -6.52734375 8.5859375 C-6.81106531 11.51772697 -7.01336861 13.73760576 -6.52734375 16.5859375 C-4.65232444 18.96313443 -4.65232444 18.96313443 -2.52734375 20.5859375 C-2.52734375 21.2459375 -2.52734375 21.9059375 -2.52734375 22.5859375 C-5.4303018 24.03741653 -7.29996154 23.95832775 -10.52734375 23.5859375 C-13.45672029 21.77283608 -15.96382324 19.71297851 -17.52734375 16.5859375 C-17.87109375 14.4140625 -17.87109375 14.4140625 -18.02734375 11.8359375 C-18.09953125 10.99546875 -18.17171875 10.155 -18.24609375 9.2890625 C-15.92305837 0.55242945 -7.73646333 -0.2526712 0 0 Z " fill="#E3D2B4" transform="translate(123.52734375,47.4140625)"/>
<path d="M0 0 C6.94489855 3.61082012 9.84371976 9.66901171 12.16796875 16.8671875 C13.96408503 24.39856605 13.36804265 32.32835539 13 40 C11.02 39.34 9.04 38.68 7 38 C7.33 38.66 7.66 39.32 8 40 C6.68 39.34 5.36 38.68 4 38 C4.33 37.01 4.66 36.02 5 35 C9.75 35.875 9.75 35.875 12 37 C12 36.01 12 35.02 12 34 C10.515 33.505 10.515 33.505 9 33 C9.165 32.4225 9.33 31.845 9.5 31.25 C10.14462031 28.73335631 10.14462031 28.73335631 10 25 C9.34 25 8.68 25 8 25 C7.67 25.99 7.34 26.98 7 28 C5.68 27.34 4.36 26.68 3 26 C3.04125 25.071875 3.0825 24.14375 3.125 23.1875 C3.27136339 19.84190281 3.27136339 19.84190281 1 17 C0.875 14.3125 0.875 14.3125 1 12 C1.99 11.67 2.98 11.34 4 11 C4 10.34 4 9.68 4 9 C3.113125 8.87625 2.22625 8.7525 1.3125 8.625 C-1.712419 8.05426057 -4.16532345 7.1491932 -7 6 C-7.99 6 -8.98 6 -10 6 C-11.70532323 7.94009522 -11.70532323 7.94009522 -13 10 C-12.34 10.66 -11.68 11.32 -11 12 C-13.6666419 13.33332095 -15.16680303 12.67102033 -18 12 C-17.91651691 9.16157499 -17.4276272 7.45950686 -15.48046875 5.3671875 C-10.51886598 1.04275898 -6.80503968 -0.89246422 0 0 Z " fill="#6F0603" transform="translate(113,83)"/>
<path d="M0 0 C5.43445176 1.72522278 10.55126441 3.60579735 15.6640625 6.1328125 C18.69372402 7.35142604 18.69372402 7.35142604 25 8 C25 19.88 25 31.76 25 44 C24.67 44 24.34 44 24 44 C23.93683594 43.23816406 23.87367187 42.47632813 23.80859375 41.69140625 C22.94953172 34.44815694 21.34812921 30.20429937 16.36328125 24.83984375 C15.91339844 24.23269531 15.46351562 23.62554687 15 23 C15.33 22.01 15.66 21.02 16 20 C16 20.66 16 21.32 16 22 C16.66 22 17.32 22 18 22 C19.5 24.5 19.5 24.5 21 27 C21.66 27 22.32 27 23 27 C22.39816251 24.97954558 21.72693904 22.97888961 21 21 C20.34 20.67 19.68 20.34 19 20 C19 19.34 19 18.68 19 18 C20.65 18 22.3 18 24 18 C24 17.01 24 16.02 24 15 C16.08 15 8.16 15 0 15 C0 10.05 0 5.1 0 0 Z " fill="#700603" transform="translate(41,77)"/>
<path d="M0 0 C10.89 0 21.78 0 33 0 C33 7.59 33 15.18 33 23 C32.67 23 32.34 23 32 23 C31.90203125 22.34773438 31.8040625 21.69546875 31.703125 21.0234375 C30.76154102 15.52004149 29.77877547 11.31860053 26 7 C22.63025406 5.14663973 20.92893511 5 17 5 C16.67 10.61 16.34 16.22 16 22 C19.96 22 23.92 22 28 22 C28 28.93 28 35.86 28 43 C25.91770892 39.87656337 25.76229543 39.46147078 26.0234375 35.98828125 C26.075 35.23095703 26.1265625 34.47363281 26.1796875 33.69335938 C26.24414062 32.90767578 26.30859375 32.12199219 26.375 31.3125 C26.43171875 30.51521484 26.4884375 29.71792969 26.546875 28.89648438 C26.68816028 26.93026419 26.84279906 24.96501176 27 23 C23.04 23 19.08 23 15 23 C15 17.06 15 11.12 15 5 C11.37 5 7.74 5 4 5 C3.67 27.44 3.34 49.88 3 73 C2.67 73 2.34 73 2 73 C1.9845388 71.67242172 1.9845388 71.67242172 1.96876526 70.31802368 C1.87090733 61.98924184 1.76840973 53.66053293 1.66066074 45.33187294 C1.60542678 41.04972559 1.55200602 36.76757142 1.50268555 32.48535156 C1.45504897 28.35506512 1.40270642 24.22486299 1.34705925 20.09467697 C1.32663249 18.51659613 1.30791994 16.93849217 1.29092598 15.36037064 C1.26688903 13.15503811 1.23683366 10.94986549 1.20532227 8.74462891 C1.18977798 7.48776276 1.1742337 6.23089661 1.15821838 4.9359436 C1.19909528 2.06616168 1.19909528 2.06616168 0 0 Z " fill="#C3B4A0" transform="translate(65,48)"/>
<path d="M0 0 C2.79196585 2.79196585 2.25957225 4.51041204 2.2746582 8.42163086 C2.27976913 9.08034683 2.28488007 9.73906281 2.29014587 10.41773987 C2.30407195 12.60019967 2.30308286 14.78234474 2.30078125 16.96484375 C2.30466667 18.4793764 2.30900101 19.99390797 2.31376648 21.50843811 C2.32123525 24.68526743 2.3209328 27.86198564 2.31567383 31.03881836 C2.3098796 35.11236658 2.32680547 39.18546005 2.3500185 43.25893307 C2.36474239 46.38760544 2.36562938 49.51616797 2.36250877 52.64486885 C2.36302271 54.14679426 2.36827404 55.6487257 2.37832069 57.1506176 C2.39064173 59.25037136 2.38392053 61.34923536 2.37231445 63.44897461 C2.37294388 64.64429306 2.3735733 65.83961151 2.3742218 67.07115173 C2 70 2 70 0.47673035 71.90943909 C-0.01059067 72.26932419 -0.49791168 72.62920929 -1 73 C-0.99333817 72.41641724 -0.98667633 71.83283447 -0.97981262 71.23156738 C-0.91319809 65.13164811 -0.86809139 59.03183298 -0.83520508 52.93164062 C-0.82016284 50.65816039 -0.79972397 48.38470896 -0.77368164 46.11132812 C-0.73709779 42.83456289 -0.72022752 39.55818294 -0.70703125 36.28125 C-0.69154739 35.27259888 -0.67606354 34.26394775 -0.66011047 33.22473145 C-0.65866817 27.11168885 -1.33008326 22.5354927 -4 17 C-6.49552137 15.10057876 -6.49552137 15.10057876 -9 14 C-10.60160199 10.79679603 -10.48770192 7.47573478 -10 4 C-7.28975039 -0.16961479 -4.82261165 -0.6290363 0 0 Z " fill="#4E4E52" transform="translate(126,52)"/>
<path d="M0 0 C0.66 0.99 1.32 1.98 2 3 C-3.75 7 -3.75 7 -6 7 C-6.33 7.99 -6.66 8.98 -7 10 C-7.66 10 -8.32 10 -9 10 C-9 10.66 -9 11.32 -9 12 C-10.32 12.33 -11.64 12.66 -13 13 C-13 14.32 -13 15.64 -13 17 C-12.34 17 -11.68 17 -11 17 C-10.94604522 18.62463842 -10.90722805 20.24978541 -10.875 21.875 C-10.85179687 22.77992187 -10.82859375 23.68484375 -10.8046875 24.6171875 C-11 27 -11 27 -13 29 C-13.103125 28.360625 -13.20625 27.72125 -13.3125 27.0625 C-13.6528125 26.0415625 -13.6528125 26.0415625 -14 25 C-14.99 24.67 -15.98 24.34 -17 24 C-19.28020848 18.35948428 -19.21802745 13.01998014 -19 7 C-15.91190305 5.23537317 -14.76687864 5 -11 5 C-11 4.34 -11 3.68 -11 3 C-7.33877035 0.20023615 -4.58187498 -0.61091666 0 0 Z " fill="#AA1813" transform="translate(19,90)"/>
<path d="M0 0 C8 0 8 0 11 2 C13.48657962 5.53356052 13 8.80731582 13 13 C13.99 14.485 13.99 14.485 15 16 C14 17 14 17 10.83984375 17.09765625 C7.2265625 17.06510417 3.61328125 17.03255208 0 17 C0 11.39 0 5.78 0 0 Z " fill="#650504" transform="translate(141,53)"/>
<path d="M0 0 C3.1666715 2.11111433 3.75448424 3.05617438 4.65136719 6.63720703 C5.44678782 12.02801998 5.1990951 17.50290945 5.125 22.9375 C5.11597656 24.19369141 5.10695313 25.44988281 5.09765625 26.74414062 C5.07419249 29.82962522 5.04136201 32.91471205 5 36 C2.52114584 33.52114584 2.27958889 31.68145955 1.375 28.3125 C-0.62300978 21.97530104 -3.59751901 18.72404029 -9 15 C-8.34 14.67 -7.68 14.34 -7 14 C-6.26924352 11.6859378 -5.59861742 9.35171131 -5 7 C-2.03 7.495 -2.03 7.495 1 8 C0.67 5.36 0.34 2.72 0 0 Z " fill="#A91610" transform="translate(121,68)"/>
<path d="M0 0 C0 8.25 0 16.5 0 25 C-11.22 25 -22.44 25 -34 25 C-33.67 24.34 -33.34 23.68 -33 23 C-17.16 23.495 -17.16 23.495 -1 24 C-1.495 15.09 -1.495 15.09 -2 6 C-2.53625 7.546875 -3.0725 9.09375 -3.625 10.6875 C-5.62432305 15.68580761 -7.43910447 18.14944029 -12 21 C-13.32 21 -14.64 21 -16 21 C-16 18.03 -16 15.06 -16 12 C-15.236875 11.79375 -14.47375 11.5875 -13.6875 11.375 C-10.74422775 10.21197198 -10.74422775 10.21197198 -9.625 7.125 C-7.84357821 3.69918887 -4.32442022 0 0 0 Z " fill="#9F1610" transform="translate(158,103)"/>
<path d="M0 0 C0.33 0 0.66 0 1 0 C2.78563978 6.90067964 3.33637647 13.25981272 3.3125 20.375 C3.32861328 21.35855469 3.34472656 22.34210938 3.36132812 23.35546875 C3.36197266 24.29777344 3.36261719 25.24007812 3.36328125 26.2109375 C3.36626221 27.05962402 3.36924316 27.90831055 3.37231445 28.78271484 C2.92488052 31.44736728 2.06296211 32.32331058 0 34 C-0.08886184 30.80097361 0.08941469 28.07322544 1 25 C-0.32 24.67 -1.64 24.34 -3 24 C-3.33 22.68 -3.66 21.36 -4 20 C-1.525 20.99 -1.525 20.99 1 22 C1.33 20.68 1.66 19.36 2 18 C-0.31 17.67 -2.62 17.34 -5 17 C-5 16.34 -5 15.68 -5 15 C-3.02 15 -1.04 15 1 15 C1.33 14.01 1.66 13.02 2 12 C-3.42503081 10.742144 -3.42503081 10.742144 -8.375 12.4375 C-8.91125 12.953125 -9.4475 13.46875 -10 14 C-12 14 -12 14 -13.625 12.8125 C-15.42149467 10.44439338 -15.23521845 8.90102749 -15 6 C-14.01 6.33 -13.02 6.66 -12 7 C-12 6.34 -12 5.68 -12 5 C-7.8794254 3.00214565 -4.54805635 2.82164485 0 3 C0 2.01 0 1.02 0 0 Z " fill="#670604" transform="translate(172,68)"/>
<path d="M0 0 C2.6875 0.375 2.6875 0.375 4.875 2.5 C6.6875 5.375 6.6875 5.375 7.75 8.625 C8.059375 9.5325 8.36875 10.44 8.6875 11.375 C9.6775 11.705 10.6675 12.035 11.6875 12.375 C9.9375 20.125 9.9375 20.125 7.6875 22.375 C6.6975 22.375 5.7075 22.375 4.6875 22.375 C4.6875 18.415 4.6875 14.455 4.6875 10.375 C3.6975 10.375 2.7075 10.375 1.6875 10.375 C1.6875 9.715 1.6875 9.055 1.6875 8.375 C0.3675 8.375 -0.9525 8.375 -2.3125 8.375 C-2.3125 21.245 -2.3125 34.115 -2.3125 47.375 C-2.6425 47.375 -2.9725 47.375 -3.3125 47.375 C-3.33777002 40.84221214 -3.35533292 34.30943679 -3.36743164 27.77661133 C-3.37247317 25.55232268 -3.37930623 23.32803737 -3.38793945 21.10375977 C-3.40001298 17.91421691 -3.40572996 14.72471771 -3.41015625 11.53515625 C-3.41531754 10.53412369 -3.42047882 9.53309113 -3.42579651 8.50172424 C-3.42587204 7.58084518 -3.42594757 6.65996613 -3.42602539 5.71118164 C-3.428246 4.89621719 -3.43046661 4.08125275 -3.43275452 3.24159241 C-3.25233171 0.44106696 -2.77003891 0.4491955 0 0 Z " fill="#9A382E" transform="translate(143.3125,74.625)"/>
<path d="M0 0 C14.85 0 29.7 0 45 0 C45 7.59 45 15.18 45 23 C44.67 23 44.34 23 44 23 C43.89042969 22.33613281 43.78085938 21.67226562 43.66796875 20.98828125 C42.45103356 14.05645126 42.45103356 14.05645126 39 8 C35.55549263 5.70366176 33.06187717 5.45983515 29 5 C29 4.67 29 4.34 29 4 C30.98 3.67 32.96 3.34 35 3 C32.3178719 1.65893595 30.11601968 1.78549581 27.1171875 1.68359375 C25.95058594 1.64169922 24.78398437 1.59980469 23.58203125 1.55664062 C22.35871094 1.51732422 21.13539063 1.47800781 19.875 1.4375 C18.64394531 1.39431641 17.41289062 1.35113281 16.14453125 1.30664062 C13.09647147 1.20031296 10.0483281 1.09828219 7 1 C7 1.66 7 2.32 7 3 C8.65 3 10.3 3 12 3 C12 3.33 12 3.66 12 4 C11.071875 4.28875 10.14375 4.5775 9.1875 4.875 C5.90208333 5.8875 5.90208333 5.8875 3 8 C2.375 6.1875 2.375 6.1875 2 4 C2.66 3.01 3.32 2.02 4 1 C2.68 0.67 1.36 0.34 0 0 Z " fill="#E3C8AE" transform="translate(113,48)"/>
<path d="M0 0 C5.14832776 0.08580546 7.08501168 0.12479378 10.875 3.75 C14.39544811 9.13421476 15.25395582 12.52412652 15 19 C13.62437146 17.71034824 12.29233607 16.37310707 11 15 C11 14.34 11 13.68 11 13 C8.69 12.67 6.38 12.34 4 12 C4 12.66 4 13.32 4 14 C2.68 14 1.36 14 0 14 C-0.19393875 11.85473901 -0.37998676 9.70876323 -0.5625 7.5625 C-0.71912109 5.77005859 -0.71912109 5.77005859 -0.87890625 3.94140625 C-0.91886719 2.97074219 -0.95882812 2.00007813 -1 1 C-0.67 0.67 -0.34 0.34 0 0 Z " fill="#9F150F" transform="translate(82,52)"/>
<path d="M0 0 C0.99 0 1.98 0 3 0 C8.03197232 7.14269896 8.03197232 7.14269896 7.95703125 11.49609375 C7.13747653 15.24879168 6.15029336 17.77455996 4 21 C1.875 21.6875 1.875 21.6875 0 22 C0.33 23.32 0.66 24.64 1 26 C-0.32 26 -1.64 26 -3 26 C-3.33 24.02 -3.66 22.04 -4 20 C-4.66 20 -5.32 20 -6 20 C-5.67 20.99 -5.34 21.98 -5 23 C-5.66 23.33 -6.32 23.66 -7 24 C-7 21.36 -7 18.72 -7 16 C-5.35 16.33 -3.7 16.66 -2 17 C0.25998595 13.40537669 0.20868087 10.43404325 0.125 6.25 C0.10695312 5.07953125 0.08890625 3.9090625 0.0703125 2.703125 C0.04710937 1.81109375 0.02390625 0.9190625 0 0 Z " fill="#690603" transform="translate(165,96)"/>
<path d="M0 0 C0.99 0.66 1.98 1.32 3 2 C2.67 3.32 2.34 4.64 2 6 C-0.97 5.505 -0.97 5.505 -4 5 C-4 5.66 -4 6.32 -4 7 C-1.69 7.33 0.62 7.66 3 8 C2.67 9.65 2.34 11.3 2 13 C0.68 12.34 -0.64 11.68 -2 11 C-1.67 11.99 -1.34 12.98 -1 14 C0.32 14 1.64 14 3 14 C2.85851011 15.6045556 2.71164314 17.20863767 2.5625 18.8125 C2.48128906 19.70582031 2.40007812 20.59914063 2.31640625 21.51953125 C2 24 2 24 1 27 C-1.09145467 23.99921721 -1.98254136 22.1955368 -2.3125 18.5 C-3.22202256 13.86970334 -5.42257192 12.90666032 -9 10 C-9.875 6.6875 -9.875 6.6875 -10 4 C-6.62990144 0.91876703 -4.64569173 -0.73353027 0 0 Z " fill="#A01613" transform="translate(171,78)"/>
<path d="M0 0 C2.9686484 0.09895495 3.98692577 0.9873103 6.125 3.0625 C9.18321842 7.85370886 10 12.35942038 10 18 C9.01 18 8.02 18 7 18 C6.01 16.02 5.02 14.04 4 12 C3.67 12.99 3.34 13.98 3 15 C2.01 15 1.02 15 0 15 C-0.33 15.99 -0.66 16.98 -1 18 C-2.98119355 16.01880645 -2.18500411 12.26554936 -2.1875 9.5625 C-2.19974609 8.86833984 -2.21199219 8.17417969 -2.22460938 7.45898438 C-2.22989842 5.63779099 -2.12169207 3.8171308 -2 2 C-1.34 1.34 -0.68 0.68 0 0 Z " fill="#B81C16" transform="translate(82,74)"/>
<path d="M0 0 C2.97 0.495 2.97 0.495 6 1 C6 1.66 6 2.32 6 3 C5.01 3.495 5.01 3.495 4 4 C4.48484276 8.64586892 4.48484276 8.64586892 6 13 C6.0396713 14.66619446 6.04384447 16.33391013 6 18 C6.99 18.33 7.98 18.66 9 19 C9.33 18.34 9.66 17.68 10 17 C10.66 17 11.32 17 12 17 C12.66 18.32 13.32 19.64 14 21 C13.34 21.33 12.68 21.66 12 22 C12 22.99 12 23.98 12 25 C12.66 25.33 13.32 25.66 14 26 C14 26.99 14 27.98 14 29 C12.02 28.34 10.04 27.68 8 27 C7.9175 26.21625 7.835 25.4325 7.75 24.625 C7.27540932 21.89126491 7.27540932 21.89126491 5.125 20.75 C3.42273121 20.14919925 1.71254562 19.57084854 0 19 C0 20.98 0 22.96 0 25 C-0.33 25 -0.66 25 -1 25 C-1.33 22.36 -1.66 19.72 -2 17 C-0.35 16.34 1.3 15.68 3 15 C2.67 13.35 2.34 11.7 2 10 C-0.51083114 11.25541557 -0.87125446 12.50063488 -2 15 C-3.33332095 12.3333581 -2.67102033 10.83319697 -2 8 C-1.01 8 -0.02 8 1 8 C0.67 6.68 0.34 5.36 0 4 C0.66 4 1.32 4 2 4 C1.34 2.68 0.68 1.36 0 0 Z " fill="#A01713" transform="translate(111,91)"/>
<path d="M0 0 C0.33 0 0.66 0 1 0 C1 4.95 1 9.9 1 15 C2.32 14.67 3.64 14.34 5 14 C6.58898289 13.9849233 8.17920851 14.02956972 9.765625 14.12109375 C10.65507813 14.16943359 11.54453125 14.21777344 12.4609375 14.26757812 C13.38132812 14.32365234 14.30171875 14.37972656 15.25 14.4375 C16.18585937 14.48970703 17.12171875 14.54191406 18.0859375 14.59570312 C20.39098887 14.72506825 22.69557289 14.86002034 25 15 C25 15.99 25 16.98 25 18 C24.030625 17.979375 23.06125 17.95875 22.0625 17.9375 C19.12534105 17.64381501 19.12534105 17.64381501 18 19 C16.44013888 19.09987811 14.87554847 19.12967279 13.3125 19.125 C12.46300781 19.12757812 11.61351562 19.13015625 10.73828125 19.1328125 C8 19 8 19 2 18 C1.67 27.24 1.34 36.48 1 46 C0.67 46 0.34 46 0 46 C0 30.82 0 15.64 0 0 Z " fill="#A32F27" transform="translate(40,77)"/>
<path d="M0 0 C1.75 0.125 1.75 0.125 4 1 C7.6229136 5.46469347 8.48811327 8.44537388 8.390625 14.1484375 C8.38496521 14.80582916 8.37930542 15.46322083 8.37347412 16.14053345 C8.35126275 18.21946191 8.3011042 20.29660163 8.25 22.375 C8.22991489 23.79294368 8.21166765 25.21091465 8.1953125 26.62890625 C8.15145067 30.08650877 8.08253437 33.54307951 8 37 C7.67 37 7.34 37 7 37 C6.97494385 36.42032471 6.9498877 35.84064941 6.92407227 35.2434082 C6.80753766 32.59957893 6.68507318 29.95605591 6.5625 27.3125 C6.52318359 26.40048828 6.48386719 25.48847656 6.44335938 24.54882812 C6.40146484 23.66259766 6.35957031 22.77636719 6.31640625 21.86328125 C6.27974854 21.05157471 6.24309082 20.23986816 6.20532227 19.40356445 C5.98962569 16.87855515 5.54100548 14.47399303 5 12 C4.34 12 3.68 12 3 12 C3 11.01 3 10.02 3 9 C-2.59282842 10.36410449 -5.91193811 13.15383526 -10 17 C-10.66 16.67 -11.32 16.34 -12 16 C-11.01 15.67 -10.02 15.34 -9 15 C-9 14.34 -9 13.68 -9 13 C-7.57421875 11.5625 -7.57421875 11.5625 -5.6875 10 C-5.07261719 9.484375 -4.45773438 8.96875 -3.82421875 8.4375 C-2.27332703 7.21538404 -0.64292171 6.09528114 1 5 C-0.18424326 3.58422523 -0.18424326 3.58422523 -3.5625 3.9375 C-5.2640625 3.9684375 -5.2640625 3.9684375 -7 4 C-7 3.34 -7 2.68 -7 2 C-4.69 2 -2.38 2 0 2 C0 1.34 0 0.68 0 0 Z " fill="#7B0804" transform="translate(19,87)"/>
<path d="M0 0 C4.455 0.99 4.455 0.99 9 2 C9 2.66 9 3.32 9 4 C9.66 3.67 10.32 3.34 11 3 C11 3.99 11 4.98 11 6 C11.66 6 12.32 6 13 6 C13.391875 7.0725 13.78375 8.145 14.1875 9.25 C15.72383468 12.89140865 17.69882269 14.76947479 21 17 C17.81390075 16.64598897 16.20933322 16.16972964 13.6875 14.125 C12 12 12 12 12 9 C11.34 9 10.68 9 10 9 C9.67 10.98 9.34 12.96 9 15 C7.125 15.625 7.125 15.625 5 16 C4.34 15.34 3.68 14.68 3 14 C3.0647685 11.99217664 3.12960292 9.98435528 3.1953125 7.9765625 C3.15432263 5.72748462 3.15432263 5.72748462 1 3.5 C0.34 3.005 -0.32 2.51 -1 2 C-0.67 1.34 -0.34 0.68 0 0 Z " fill="#770904" transform="translate(43,96)"/>
<path d="M0 0 C0.33 0 0.66 0 1 0 C1 5.28 1 10.56 1 16 C5.62 15.67 10.24 15.34 15 15 C14.34 14.01 13.68 13.02 13 12 C12.875 8.5 12.875 8.5 13 5 C13 4.01 13 3.02 13 2 C15.56984833 5.85477249 16.85814266 9.52040582 18 14 C22.62 14 27.24 14 32 14 C32 14.99 32 15.98 32 17 C31.09507812 17.19916016 31.09507812 17.19916016 30.171875 17.40234375 C28.97304687 17.66724609 28.97304687 17.66724609 27.75 17.9375 C26.96109375 18.11152344 26.1721875 18.28554687 25.359375 18.46484375 C23.85551578 18.80595089 22.35786835 19.17673348 20.87109375 19.5859375 C18.32999145 20.14826912 16.4736925 19.7354221 14 19 C13.67 18.34 13.34 17.68 13 17 C8.71 17 4.42 17 0 17 C0 11.39 0 5.78 0 0 Z " fill="#A5362E" transform="translate(140,54)"/>
<path d="M0 0 C1.73630227 1.46317607 3.46285896 2.93522616 5.17578125 4.42578125 C6.56935383 5.62837172 7.9965377 6.79211971 9.4375 7.9375 C11.74440794 10.98261848 11.40469822 13.29026635 11 17 C10.34 17.99 9.68 18.98 9 20 C9 19.34 9 18.68 9 18 C8.34 18 7.68 18 7 18 C6.67 18.66 6.34 19.32 6 20 C5.67 17.69 5.34 15.38 5 13 C3.02 12.34 1.04 11.68 -1 11 C-1.07442057 7.13013042 -1.04702186 3.7264085 0 0 Z " fill="#AE1712" transform="translate(154,89)"/>
<path d="M0 0 C1.44207941 2.88415883 1.09394887 5.41721528 1.0625 8.625 C1.05347656 9.81351563 1.04445313 11.00203125 1.03515625 12.2265625 C1.02355469 13.14179687 1.01195313 14.05703125 1 15 C-3.75 14.125 -3.75 14.125 -6 13 C-6 12.34 -6 11.68 -6 11 C-6.99 11 -7.98 11 -9 11 C-9.48461538 4.7 -9.48461538 4.7 -7.3125 1.5625 C-4.61589191 -0.25953249 -3.18873549 -0.35430394 0 0 Z " fill="#9C130F" transform="translate(125,52)"/>
<path d="M0 0 C1.32 0 2.64 0 4 0 C3.125 7.75 3.125 7.75 2 10 C1.9283265 12.55157655 1.90691558 15.07472971 1.9375 17.625 C1.94201172 18.33140625 1.94652344 19.0378125 1.95117188 19.765625 C1.96296125 21.51045275 1.98089676 23.255237 2 25 C2.61875 24.34 3.2375 23.68 3.875 23 C6 21 6 21 8 21 C8.75 23.6875 8.75 23.6875 9 27 C7.3125 29.875 7.3125 29.875 5 32 C3.68 32 2.36 32 1 32 C1 34.64 1 37.28 1 40 C0.67 40 0.34 40 0 40 C0 26.8 0 13.6 0 0 Z " fill="#8E0606" transform="translate(141,83)"/>
<path d="M0 0 C0.66 0.33 1.32 0.66 2 1 C1.21625 1.5775 0.4325 2.155 -0.375 2.75 C-3.06479539 4.73682561 -3.06479539 4.73682561 -4 7.1875 C-4.33 7.785625 -4.66 8.38375 -5 9 C-7.625 9.75 -7.625 9.75 -10 10 C-10.66 11.98 -11.32 13.96 -12 16 C-15.96 16.33 -19.92 16.66 -24 17 C-20.21916399 11.93664511 -16.27561145 8.90917623 -10.875 5.6875 C-10.15957031 5.24599609 -9.44414063 4.80449219 -8.70703125 4.34960938 C-5.79569837 2.57288006 -3.25122281 1.08374094 0 0 Z " fill="#720F0C" transform="translate(51,7)"/>
<path d="M0 0 C2.29633824 3.44450737 2.54016485 5.93812283 3 10 C-1.62 10 -6.24 10 -11 10 C-11 7.03 -11 4.06 -11 1 C-7.37 1.33 -3.74 1.66 0 2 C0 1.34 0 0.68 0 0 Z " fill="#640605" transform="translate(169,58)"/>
<path d="M0 0 C0.33 0 0.66 0 1 0 C1 3.63 1 7.26 1 11 C2.32 11 3.64 11 5 11 C5 10.34 5 9.68 5 9 C8.25 9.0625 8.25 9.0625 12 10 C13.8544092 12.2231534 14.78559244 14.32830337 16 17 C15.01 17 14.02 17 13 17 C13 23.27 13 29.54 13 36 C12.67 36 12.34 36 12 36 C12 29.07 12 22.14 12 15 C8.04 15 4.08 15 0 15 C0 10.05 0 5.1 0 0 Z " fill="#A30D0A" transform="translate(81,55)"/>
<path d="M0 0 C1.74965358 -0.05429959 3.49979787 -0.09292823 5.25 -0.125 C6.22453125 -0.14820313 7.1990625 -0.17140625 8.203125 -0.1953125 C11.04838868 0.0033791 12.53606971 0.66491883 15 2 C16.33783393 1.68521554 17.67203709 1.35412344 19 1 C19.66 1.66 20.32 2.32 21 3 C14.01424576 5.28953836 7.35012956 7.42351925 0 8 C0 5.36 0 2.72 0 0 Z " fill="#72100C" transform="translate(96,168)"/>
<path d="M0 0 C0.33 1.98 0.66 3.96 1 6 C-7.37405513 4.87158122 -15.06484215 2.89830234 -23 0 C-19.5761413 -0.9411906 -16.55657007 -1.07731674 -13 -1 C-3.58823529 -1 -3.58823529 -1 0 0 Z " fill="#71100C" transform="translate(76,170)"/>
<path d="M0 0 C7.2100639 0.24440895 7.2100639 0.24440895 10.875 3.75 C14.39544811 9.13421476 15.25395582 12.52412652 15 19 C12.07164182 16.55970152 11.0492902 15.17559632 10 11.4375 C9.29714843 8.02604808 9.29714843 8.02604808 7.25 6.1875 C4.57726145 4.77688799 1.89467099 3.8552437 -1 3 C-0.67 2.01 -0.34 1.02 0 0 Z " fill="#662D2C" transform="translate(82,52)"/>
<path d="M0 0 C0 8.25 0 16.5 0 25 C-11.22 25 -22.44 25 -34 25 C-33.67 24.34 -33.34 23.68 -33 23 C-17.16 23.495 -17.16 23.495 -1 24 C-1.495 15.09 -1.495 15.09 -2 6 C-2.61875 7.629375 -3.2375 9.25875 -3.875 10.9375 C-5.75 15.875 -5.75 15.875 -8 17 C-7.731875 16.21625 -7.46375 15.4325 -7.1875 14.625 C-6.51257703 12.56470882 -5.85806295 10.49676863 -5.26953125 8.41015625 C-4.88861328 7.06244141 -4.88861328 7.06244141 -4.5 5.6875 C-4.2628125 4.82511719 -4.025625 3.96273437 -3.78125 3.07421875 C-2.97882682 0.94378521 -2.45001815 0 0 0 Z " fill="#957C71" transform="translate(158,103)"/>
<path d="M0 0 C0.33 0 0.66 0 1 0 C1 1.65 1 3.3 1 5 C3.64 4.67 6.28 4.34 9 4 C10.76462683 7.08809695 11 8.23312136 11 12 C9.35425434 12.02688151 7.70838587 12.04634123 6.0625 12.0625 C5.14597656 12.07410156 4.22945312 12.08570313 3.28515625 12.09765625 C1 12 1 12 0 11 C-0.07226502 9.14712498 -0.0838122 7.29166122 -0.0625 5.4375 C-0.05347656 4.42558594 -0.04445312 3.41367187 -0.03515625 2.37109375 C-0.02355469 1.58863281 -0.01195312 0.80617187 0 0 Z " fill="#941712" transform="translate(158,48)"/>
<path d="M0 0 C0.33 0.99 0.66 1.98 1 3 C1.66 2.67 2.32 2.34 3 2 C2.505 1.01 2.505 1.01 2 0 C3.32 0 4.64 0 6 0 C6.495 2.97 6.495 2.97 7 6 C6.34 6 5.68 6 5 6 C5.495 9.465 5.495 9.465 6 13 C4 12 4 12 1 5 C-9.56 4.67 -20.12 4.34 -31 4 C-31 3.67 -31 3.34 -31 3 C-27.29215008 2.80199058 -23.58371765 2.61846755 -19.875 2.4375 C-18.82828125 2.38142578 -17.7815625 2.32535156 -16.703125 2.26757812 C-11.65148993 2.02778532 -6.96874491 1.83948 -2 3 C-2 2.34 -2 1.68 -2 1 C-1.34 0.67 -0.68 0.34 0 0 Z " fill="#910A08" transform="translate(50,42)"/>
<path d="M0 0 C0 1.98 0 3.96 0 6 C-2.97 5.505 -2.97 5.505 -6 5 C-6.103125 5.763125 -6.20625 6.52625 -6.3125 7.3125 C-7.05039701 10.19700648 -7.53243984 11.35495989 -10 13 C-12.1875 12.6875 -12.1875 12.6875 -14 12 C-12.68 11.34 -11.36 10.68 -10 10 C-10 7.69 -10 5.38 -10 3 C-10.99 2.67 -11.98 2.34 -13 2 C-13 1.67 -13 1.34 -13 1 C-11.39602723 0.83147753 -9.7918131 0.66525114 -8.1875 0.5 C-7.29417969 0.4071875 -6.40085937 0.314375 -5.48046875 0.21875 C-3 0 -3 0 0 0 Z " fill="#A6150F" transform="translate(122,70)"/>
<path d="M0 0 C14.85 0 29.7 0 45 0 C45 0.33 45 0.66 45 1 C32.46 1 19.92 1 7 1 C7 1.66 7 2.32 7 3 C8.65 3 10.3 3 12 3 C12 3.33 12 3.66 12 4 C11.071875 4.28875 10.14375 4.5775 9.1875 4.875 C5.90208333 5.8875 5.90208333 5.8875 3 8 C2.375 6.1875 2.375 6.1875 2 4 C2.66 3.01 3.32 2.02 4 1 C2.68 0.67 1.36 0.34 0 0 Z " fill="#DBBBA2" transform="translate(113,48)"/>
<path d="M0 0 C0.61488281 0.08378906 1.22976562 0.16757813 1.86328125 0.25390625 C3.07564453 0.40666016 3.07564453 0.40666016 4.3125 0.5625 C5.11300781 0.66691406 5.91351563 0.77132812 6.73828125 0.87890625 C9.16817116 1.14755178 9.16817116 1.14755178 12 0 C12.66 0.66 13.32 1.32 14 2 C11.87767021 3.17176518 9.75242209 4.33754785 7.625 5.5 C7.02171875 5.83386719 6.4184375 6.16773438 5.796875 6.51171875 C1.2265625 9 1.2265625 9 -1 9 C-1.125 2.25 -1.125 2.25 0 0 Z " fill="#730F0C" transform="translate(121,160)"/>
<path d="M0 0 C0.99 0.66 1.98 1.32 3 2 C2.67 3.32 2.34 4.64 2 6 C-0.97 5.505 -0.97 5.505 -4 5 C-4 5.99 -4 6.98 -4 8 C-5.32 8 -6.64 8 -8 8 C-8.33 8.66 -8.66 9.32 -9 10 C-9.33 8.02 -9.66 6.04 -10 4 C-6.62990144 0.91876703 -4.64569173 -0.73353027 0 0 Z " fill="#AE1813" transform="translate(171,78)"/>
<path d="M0 0 C2.91902894 0.3127531 3.98679795 0.98718624 6.125 3.0625 C9.18321842 7.85370886 10 12.35942038 10 18 C9.01 18 8.02 18 7 18 C3.42857143 10.71428571 3.42857143 10.71428571 5 6 C4.34 6 3.68 6 3 6 C3 5.34 3 4.68 3 4 C2.01 3.67 1.02 3.34 0 3 C0 2.01 0 1.02 0 0 Z " fill="#7C2620" transform="translate(82,74)"/>
<path d="M0 0 C0 6.6 0 13.2 0 20 C-0.33 20 -0.66 20 -1 20 C-1.19335938 19.24074219 -1.38671875 18.48148438 -1.5859375 17.69921875 C-1.84632813 16.70535156 -2.10671875 15.71148437 -2.375 14.6875 C-2.63023437 13.70136719 -2.88546875 12.71523437 -3.1484375 11.69921875 C-3.91913174 8.8194184 -3.91913174 8.8194184 -6 6 C-6 5.01 -6 4.02 -6 3 C-6.99 2.67 -7.98 2.34 -9 2 C-3 0 -3 0 0 0 Z " fill="#E7D0B1" transform="translate(153,71)"/>
<path d="M0 0 C0.66 1.65 1.32 3.3 2 5 C3.98 4.01 5.96 3.02 8 2 C8.33 2.99 8.66 3.98 9 5 C8.67 5.66 8.34 6.32 8 7 C7.01 7 6.02 7 5 7 C5 7.66 5 8.32 5 9 C0.1725201 7.58707905 -3.7162359 5.57025846 -8 3 C-5.36657694 0.36657694 -3.69534435 0 0 0 Z " fill="#75100D" transform="translate(48,160)"/>
<path d="M0 0 C0.8971875 1.175625 0.8971875 1.175625 1.8125 2.375 C3.91085249 5.14574323 3.91085249 5.14574323 7 7 C7 7.66 7 8.32 7 9 C4.09704195 10.45147903 2.22738221 10.37239025 -1 10 C-3.27751344 8.52631484 -5.02007 6.88564762 -7 5 C-6.34 4.67 -5.68 4.34 -5 4 C-4.34 4.33 -3.68 4.66 -3 5 C-2.67 4.34 -2.34 3.68 -2 3 C-1.34 2.01 -0.68 1.02 0 0 Z " fill="#E2D3B6" transform="translate(114,61)"/>
<path d="M0 0 C0.33 0.99 0.66 1.98 1 3 C1.66 3 2.32 3 3 3 C3.391875 4.0725 3.78375 5.145 4.1875 6.25 C5.72383468 9.89140865 7.69882269 11.76947479 11 14 C7.81390075 13.64598897 6.20933322 13.16972964 3.6875 11.125 C2 9 2 9 2 6 C1.34 6 0.68 6 0 6 C-0.33 7.98 -0.66 9.96 -1 12 C-2.32 12.33 -3.64 12.66 -5 13 C-4.55005243 11.20620902 -4.08975857 9.41501072 -3.625 7.625 C-3.36976562 6.62726563 -3.11453125 5.62953125 -2.8515625 4.6015625 C-2 2 -2 2 0 0 Z " fill="#720703" transform="translate(53,99)"/>
<path d="M0 0 C0.99 0 1.98 0 3 0 C3.25 6.625 3.25 6.625 1 10 C-1.125 10.6875 -1.125 10.6875 -3 11 C-2.67 12.32 -2.34 13.64 -2 15 C-3.32 15 -4.64 15 -6 15 C-6.33 13.68 -6.66 12.36 -7 11 C-6.01 10.67 -5.02 10.34 -4 10 C-2.86454438 7.70465742 -2.86454438 7.70465742 -2 5 C-1.33333333 3.33333333 -0.66666667 1.66666667 0 0 Z " fill="#730907" transform="translate(168,107)"/>
<path d="M0 0 C1.32 0 2.64 0 4 0 C4.66666667 1.33333333 5.33333333 2.66666667 6 4 C6.66 4 7.32 4 8 4 C8 3.01 8 2.02 8 1 C10.8125 0.3125 10.8125 0.3125 14 0 C15.875 1.3125 15.875 1.3125 17 3 C17 3.66 17 4.32 17 5 C11.39 5 5.78 5 0 5 C0 3.35 0 1.7 0 0 Z " fill="#93150F" transform="translate(64,41)"/>
<path d="M0 0 C4.3890815 0.51035831 7.33708062 1.52214277 11 4 C10.67 3.01 10.34 2.02 10 1 C10.99 1 11.98 1 13 1 C13.33 3.64 13.66 6.28 14 9 C13.01 9.33 12.02 9.66 11 10 C8.80859375 8.671875 8.80859375 8.671875 6.4375 6.75 C5.65246094 6.12609375 4.86742187 5.5021875 4.05859375 4.859375 C2 3 2 3 0 0 Z " fill="#6E100E" transform="translate(27,152)"/>
<path d="M0 0 C3.33723446 5.0058517 4.23504274 8.89180277 4.4609375 14.81640625 C4 17 4 17 0 21 C0 14.07 0 7.14 0 0 Z " fill="#680403" transform="translate(41,104)"/>
<path d="M0 0 C4.875 2.625 4.875 2.625 6 6 C6.04254356 7.99954746 6.04080783 10.00041636 6 12 C6 13.32 6 14.64 6 16 C5.34 16 4.68 16 4 16 C-0.59225513 5.62642369 -0.59225513 5.62642369 0 0 Z " fill="#A3110E" transform="translate(41,98)"/>
<path d="M0 0 C2 2 2 2 3 4.0625 C3.84589942 6.16865601 3.84589942 6.16865601 6 7 C4.25 14.75 4.25 14.75 2 17 C1.01 17 0.02 17 -1 17 C-1.09777277 12.20913447 -0.72798043 7.73187281 0 3 C0 2.01 0 1.02 0 0 Z " fill="#6F2222" transform="translate(149,80)"/>
<path d="M0 0 C0.75 2.6875 0.75 2.6875 1 6 C-0.75 8.875 -0.75 8.875 -3 11 C-3.99 11 -4.98 11 -6 11 C-6.48951049 4.63636364 -6.48951049 4.63636364 -4.125 1.5625 C-2 0 -2 0 0 0 Z " fill="#770906" transform="translate(149,104)"/>
<path d="M0 0 C0.33 0 0.66 0 1 0 C1.02578125 0.66386719 1.0515625 1.32773437 1.078125 2.01171875 C1.4345756 7.56100642 1.83610767 10.96228622 6 15 C6.66 15.66 7.32 16.32 8 17 C0.375 16.125 0.375 16.125 -3 15 C-3 14.34 -3 13.68 -3 13 C-2.34 13 -1.68 13 -1 13 C-1.01160156 12.22914062 -1.02320312 11.45828125 -1.03515625 10.6640625 C-1.04417969 9.66117188 -1.05320312 8.65828125 -1.0625 7.625 C-1.07410156 6.62726562 -1.08570312 5.62953125 -1.09765625 4.6015625 C-1 2 -1 2 0 0 Z " fill="#683737" transform="translate(105,54)"/>
<path d="M0 0 C1.32 0 2.64 0 4 0 C4 4.95 4 9.9 4 15 C-2 6 -2 6 -2 2 C-1.34 2 -0.68 2 0 2 C0 1.34 0 0.68 0 0 Z " fill="#DFD4B6" transform="translate(88,71)"/>
<path d="M0 0 C0.99 0.99 1.98 1.98 3 3 C-4.76965554 10.96607941 -4.76965554 10.96607941 -8 13 C-8.66 13 -9.32 13 -10 13 C-9.125 8.25 -9.125 8.25 -8 6 C-6.5459375 5.566875 -6.5459375 5.566875 -5.0625 5.125 C-1.89943043 4.3110709 -1.89943043 4.3110709 -0.625 1.875 C-0.41875 1.25625 -0.2125 0.6375 0 0 Z " fill="#75100C" transform="translate(146,147)"/>
<path d="M0 0 C1.32685496 3.98056488 0.30132545 5.62294134 -1.1875 9.5 C-1.61417969 10.6446875 -2.04085937 11.789375 -2.48046875 12.96875 C-4.01561315 16.03114602 -5.02315193 17.37249857 -8 19 C-10.25 18.6875 -10.25 18.6875 -12 18 C-11.34 17.34 -10.68 16.68 -10 16 C-8.68 16 -7.36 16 -6 16 C-6.33 15.01 -6.66 14.02 -7 13 C-6.67 12.01 -6.34 11.02 -6 10 C-5.01 10 -4.02 10 -3 10 C-2.91773332 6.95613276 -3.02391783 4.92824652 -4 2 C-2.68 1.34 -1.36 0.68 0 0 Z " fill="#93110E" transform="translate(154,105)"/>
<path d="M0 0 C3.36165806 1.41043479 5.09505232 3.01526034 7.25 5.9375 C8.03117187 6.97197266 8.03117187 6.97197266 8.828125 8.02734375 C10 10 10 10 10 13 C6.74275395 12.43840585 4.96209599 11.70956113 3 9 C2.3125 5.8125 2.3125 5.8125 2 3 C1.34 3 0.68 3 0 3 C0 2.01 0 1.02 0 0 Z " fill="#A11611" transform="translate(54,99)"/>
<path d="M0 0 C2.22189824 2.22189824 2.92598892 4.08482708 4 7 C1.36 7.33 -1.28 7.66 -4 8 C-4 6.35 -4 4.7 -4 3 C-7.63 3 -11.26 3 -15 3 C-15 2.67 -15 2.34 -15 2 C-10.05 2 -5.1 2 0 2 C0 1.34 0 0.68 0 0 Z " fill="#5C0403" transform="translate(163,45)"/>
<path d="M0 0 C-0.33 0.99 -0.66 1.98 -1 3 C-3.64 3 -6.28 3 -9 3 C-9.33 3.66 -9.66 4.32 -10 5 C-11.175625 4.979375 -12.35125 4.95875 -13.5625 4.9375 C-17.47413467 4.93052739 -21.14497944 5.35749657 -25 6 C-20.92788786 3.28525857 -16.68306239 2.3043196 -12 1 C-11.24332031 0.77828125 -10.48664063 0.5565625 -9.70703125 0.328125 C-6.05071877 -0.68713625 -3.6166251 -1.11525884 0 0 Z " fill="#6A100C" transform="translate(78,1)"/>
<path d="M0 0 C0.33 0 0.66 0 1 0 C1.4726477 8.19256018 1.4726477 8.19256018 -0.5 11.5625 C-0.995 12.036875 -1.49 12.51125 -2 13 C-3.65 12.67 -5.3 12.34 -7 12 C-7.33 8.7 -7.66 5.4 -8 2 C-7.34 2 -6.68 2 -6 2 C-5.67 3.65 -5.34 5.3 -5 7 C-3.68 6.67 -2.36 6.34 -1 6 C-0.67 4.02 -0.34 2.04 0 0 Z " fill="#A1110E" transform="translate(165,100)"/>
<path d="M0 0 C2.31 1.65 4.62 3.3 7 5 C6.67 6.32 6.34 7.64 6 9 C4.02 9.33 2.04 9.66 0 10 C0 6.7 0 3.4 0 0 Z " fill="#750B08" transform="translate(80,91)"/>
<path d="M0 0 C1.2065625 0.0309375 1.2065625 0.0309375 2.4375 0.0625 C2.7675 1.3825 3.0975 2.7025 3.4375 4.0625 C2.2928125 4.2790625 2.2928125 4.2790625 1.125 4.5 C-1.64422908 5.0257594 -1.64422908 5.0257594 -4.5625 6.0625 C-4.5625 7.0525 -4.5625 8.0425 -4.5625 9.0625 C-6.2125 8.7325 -7.8625 8.4025 -9.5625 8.0625 C-8.58383662 6.91623678 -7.60455413 5.77050212 -6.625 4.625 C-6.07972656 3.98691406 -5.53445312 3.34882812 -4.97265625 2.69140625 C-2.69968929 0.06584608 -2.69968929 0.06584608 0 0 Z " fill="#AB1611" transform="translate(19.5625,95.9375)"/>
<path d="M0 0 C0.99 0 1.98 0 3 0 C3.50559908 1.43554025 4.0042749 2.8735202 4.5 4.3125 C4.7784375 5.11300781 5.056875 5.91351563 5.34375 6.73828125 C6 9 6 9 6 12 C3.0625 10.4375 3.0625 10.4375 0 8 C-0.9375 4.3125 -0.9375 4.3125 -1 1 C-0.67 0.67 -0.34 0.34 0 0 Z " fill="#9B1412" transform="translate(115,94)"/>
<path d="M0 0 C0.33 0.66 0.66 1.32 1 2 C1.99 1.67 2.98 1.34 4 1 C5.39439664 0.93334624 6.79169875 0.91461801 8.1875 0.9375 C10.0746875 0.9684375 10.0746875 0.9684375 12 1 C12 2.98 12 4.96 12 7 C11.67 5.68 11.34 4.36 11 3 C10.37351562 3.15597656 9.74703125 3.31195313 9.1015625 3.47265625 C8.28429688 3.66730469 7.46703125 3.86195312 6.625 4.0625 C5.40683594 4.35833984 5.40683594 4.35833984 4.1640625 4.66015625 C2 5 2 5 0 4 C0 4.66 0 5.32 0 6 C-1.32 5.67 -2.64 5.34 -4 5 C-3.67 4.34 -3.34 3.68 -3 3 C-2.34 3.33 -1.68 3.66 -1 4 C-0.67 2.68 -0.34 1.36 0 0 Z " fill="#801815" transform="translate(15,50)"/>
<path d="M0 0 C4.8274799 1.41292095 8.7162359 3.42974154 13 6 C8.48066858 7.33906116 4.51933142 7.33906116 0 6 C0 4.02 0 2.04 0 0 Z " fill="#6F0F0D" transform="translate(120,7)"/>
<path d="M0 0 C0.33 1.32 0.66 2.64 1 4 C-3.8351138 5.6117046 -9.19651495 5.60116168 -14 4 C-13.67 3.01 -13.34 2.02 -13 1 C-12.01 1.33 -11.02 1.66 -10 2 C-7.46923187 1.68739841 -7.46923187 1.68739841 -4.8125 1.0625 C-3.91144531 0.86785156 -3.01039062 0.67320313 -2.08203125 0.47265625 C-1.39496094 0.31667969 -0.70789063 0.16070312 0 0 Z " fill="#911510" transform="translate(127,43)"/>
<path d="M0 0 C6.27 0 12.54 0 19 0 C15.52990269 2.31339821 13.61483064 2.40483708 9.5 2.6875 C8.3553125 2.77386719 7.210625 2.86023438 6.03125 2.94921875 C3 3 3 3 0 2 C0 1.34 0 0.68 0 0 Z " fill="#780907" transform="translate(64,128)"/>
<path d="M0 0 C0.66 0 1.32 0 2 0 C2.33 1.65 2.66 3.3 3 5 C3.66 5 4.32 5 5 5 C5 5.99 5 6.98 5 8 C0.545 8.495 0.545 8.495 -4 9 C-3.34 8.67 -2.68 8.34 -2 8 C-1.31527335 6.11235097 -1.31527335 6.11235097 -0.875 3.9375 C-0.70742188 3.20402344 -0.53984375 2.47054687 -0.3671875 1.71484375 C-0.24601562 1.14894531 -0.12484375 0.58304687 0 0 Z " fill="#A01612" transform="translate(53,105)"/>
<path d="M0 0 C3 3 3 3 3.07421875 5.91796875 C2.94660156 6.99691406 2.81898438 8.07585937 2.6875 9.1875 C2.56761719 10.27417969 2.44773438 11.36085938 2.32421875 12.48046875 C2.21722656 13.31191406 2.11023438 14.14335938 2 15 C2.99 15.33 3.98 15.66 5 16 C3.68 16 2.36 16 1 16 C0.67 13.36 0.34 10.72 0 8 C-0.33 8.66 -0.66 9.32 -1 10 C-1.66 9.67 -2.32 9.34 -3 9 C-2.01 6.03 -1.02 3.06 0 0 Z " fill="#A0140F" transform="translate(146,82)"/>
<path d="M0 0 C0.66 0.33 1.32 0.66 2 1 C1.67 1.99 1.34 2.98 1 4 C1.99 4.66 2.98 5.32 4 6 C2.54462432 6.83848804 1.08559627 7.67063934 -0.375 8.5 C-1.18710938 8.9640625 -1.99921875 9.428125 -2.8359375 9.90625 C-5 11 -5 11 -7 11 C-7 10.01 -7 9.02 -7 8 C-5.02 7.67 -3.04 7.34 -1 7 C-1.7763932 3.9254644 -1.7763932 3.9254644 -4 2 C-2.125 0.9375 -2.125 0.9375 0 0 Z " fill="#91110F" transform="translate(148,56)"/>
<path d="M0 0 C1.65 0.33 3.3 0.66 5 1 C5 3 5 5 5 7 C3.02 7.33 1.04 7.66 -1 8 C-0.67 5.36 -0.34 2.72 0 0 Z " fill="#6D0604" transform="translate(142,56)"/>
<path d="M0 0 C0.33 0.66 0.66 1.32 1 2 C4.02934491 2.65772428 4.02934491 2.65772428 7 3 C7.33 4.98 7.66 6.96 8 9 C8.66 9 9.32 9 10 9 C10 10.65 10 12.3 10 14 C9.5875 13.443125 9.175 12.88625 8.75 12.3125 C8.1725 11.549375 7.595 10.78625 7 10 C6.360625 9.13375 5.72125 8.2675 5.0625 7.375 C3.09354987 5.10772409 1.75520264 4.08240104 -1 3 C-0.67 2.01 -0.34 1.02 0 0 Z " fill="#D3CDB5" transform="translate(87,49)"/>
<path d="M0 0 C0.66 0.33 1.32 0.66 2 1 C0.9015258 2.46262592 -0.2040036 3.91995503 -1.3125 5.375 C-1.92738281 6.18710938 -2.54226562 6.99921875 -3.17578125 7.8359375 C-5 10 -5 10 -8 12 C-8 11.34 -8 10.68 -8 10 C-8.66 9.67 -9.32 9.34 -10 9 C-9.01 8.67 -8.02 8.34 -7 8 C-5.79117904 5.99983534 -5.79117904 5.99983534 -5 4 C-4.01 4 -3.02 4 -2 4 C-2 3.34 -2 2.68 -2 2 C-1.34 2 -0.68 2 0 2 C0 1.34 0 0.68 0 0 Z " fill="#79100D" transform="translate(158,136)"/>
<path d="M0 0 C1.875 0.25 1.875 0.25 4 1 C5.72101535 3.58152302 6 4.84918025 6 8 C1.125 7.125 1.125 7.125 0 6 C-0.04080783 4.00041636 -0.04254356 1.99954746 0 0 Z " fill="#740705" transform="translate(111,110)"/>
<path d="M0 0 C0.99 0.33 1.98 0.66 3 1 C2.34 1 1.68 1 1 1 C1.185625 1.78375 1.37125 2.5675 1.5625 3.375 C2.12543691 8.03933441 1.59607604 12.35977729 1 17 C0.34 16.67 -0.32 16.34 -1 16 C-1.02685095 13.52076199 -1.04676547 11.0418116 -1.0625 8.5625 C-1.07506836 7.50192383 -1.07506836 7.50192383 -1.08789062 6.41992188 C-1.09653588 4.61306441 -1.05220011 2.80612397 -1 1 C-0.67 0.67 -0.34 0.34 0 0 Z " fill="#AB241D" transform="translate(81,75)"/>
<path d="M0 0 C7.50769231 -0.36923077 7.50769231 -0.36923077 10 1.5 C10.495 2.2425 10.495 2.2425 11 3 C4.375 4.125 4.375 4.125 1 3 C0.67 3.99 0.34 4.98 0 6 C0 4.02 0 2.04 0 0 Z " fill="#4C0E0F" transform="translate(141,53)"/>
<path d="M0 0 C0 0.99 0 1.98 0 3 C-1.98 3.66 -3.96 4.32 -6 5 C-6.33 7.31 -6.66 9.62 -7 12 C-7.33 12 -7.66 12 -8 12 C-8 8.37 -8 4.74 -8 1 C-4 0 -4 0 0 0 Z " fill="#A41710" transform="translate(88,100)"/>
<path d="M0 0 C2.93752254 0.30388164 3.84080893 0.80669656 5.75 3.125 C7.2577334 6.59278683 7.22019353 9.25670998 7 13 C4.56009196 10.825892 3.42419208 9.02166354 2.375 5.9375 C1.66022446 3.87387384 0.97757872 1.95515745 0 0 Z " fill="#A21510" transform="translate(20,88)"/>
<path d="M0 0 C2.625 -0.1875 2.625 -0.1875 5 0 C6.44207941 2.88415883 6.09394887 5.41721528 6.0625 8.625 C6.05347656 9.81351563 6.04445313 11.00203125 6.03515625 12.2265625 C6.02355469 13.14179687 6.01195313 14.05703125 6 15 C5.67 15 5.34 15 5 15 C5 11.37 5 7.74 5 4 C2.69 3.67 0.38 3.34 -2 3 C-1.34 2.01 -0.68 1.02 0 0 Z " fill="#800E07" transform="translate(120,52)"/>
<path d="M0 0 C1.32 0.66 2.64 1.32 4 2 C4 3.65 4 5.3 4 7 C2.68 7 1.36 7 0 7 C-1 6 -1 6 -1.125 3.5 C-1 1 -1 1 0 0 Z " fill="#780906" transform="translate(117,103)"/>
<path d="M0 0 C1.46573934 0.90477737 2.92235756 1.82434141 4.375 2.75 C5.18710938 3.26046875 5.99921875 3.7709375 6.8359375 4.296875 C9.08555679 6.0673335 9.95906848 7.36907419 11 10 C5.25 8.375 5.25 8.375 3 5 C2.01 5.495 2.01 5.495 1 6 C0.67 4.02 0.34 2.04 0 0 Z " fill="#6A0F0C" transform="translate(137,16)"/>
<path d="M0 0 C3 0 3 0 4.67578125 1.11328125 C6.58229458 3.82964095 6.29320087 5.9107729 6.1875 9.1875 C6.14689453 10.81751953 6.14689453 10.81751953 6.10546875 12.48046875 C6.07066406 13.31191406 6.03585938 14.14335938 6 15 C5.67 15 5.34 15 5 15 C4.80664062 14.25234375 4.61328125 13.5046875 4.4140625 12.734375 C4.15367187 11.74953125 3.89328125 10.7646875 3.625 9.75 C3.36976563 8.77546875 3.11453125 7.8009375 2.8515625 6.796875 C2.10401491 4.34162697 1.22876183 2.24382595 0 0 Z " fill="#D4C2A8" transform="translate(147,76)"/>
<path d="M0 0 C4.55384615 -0.36923077 4.55384615 -0.36923077 6.8125 1.5 C7.204375 1.995 7.59625 2.49 8 3 C7.67 3.66 7.34 4.32 7 5 C6.34 4.67 5.68 4.34 5 4 C2.39068734 4.89363605 2.39068734 4.89363605 0 6 C0 4.02 0 2.04 0 0 Z " fill="#511616" transform="translate(141,75)"/>
<path d="M0 0 C3.68285005 2.45523336 3.94619813 3.7847925 5 8 C5.125 11.375 5.125 11.375 5 14 C3 12.4375 3 12.4375 1 10 C0.8125 6.4375 0.8125 6.4375 1 3 C0.67 2.01 0.34 1.02 0 0 Z " fill="#373D43" transform="translate(152,56)"/>
<path d="M0 0 C1.32 0.33 2.64 0.66 4 1 C4 5 4 5 3 8 C2.01 7.67 1.02 7.34 0 7 C0 4.69 0 2.38 0 0 Z " fill="#7D0805" transform="translate(108,91)"/>
<path d="M0 0 C0.66 0 1.32 0 2 0 C2.33 2.64 2.66 5.28 3 8 C1.02 8 -0.96 8 -3 8 C-2.01 5.36 -1.02 2.72 0 0 Z " fill="#91130E" transform="translate(62,48)"/>
<path d="M0 0 C4.95 0 9.9 0 15 0 C15.66 1.98 16.32 3.96 17 6 C14.5 4.625 14.5 4.625 12 3 C12 2.34 12 1.68 12 1 C8.04 1 4.08 1 0 1 C0 0.67 0 0.34 0 0 Z " fill="#EAC7AA" transform="translate(37,47)"/>
<path d="M0 0 C0.66 0.33 1.32 0.66 2 1 C2.625 3.5625 2.625 3.5625 3 6 C2.01 6.66 1.02 7.32 0 8 C-0.66 7.34 -1.32 6.68 -2 6 C-1.44444444 1.44444444 -1.44444444 1.44444444 0 0 Z " fill="#740705" transform="translate(112,100)"/>
<path d="M0 0 C1.98 0.66 3.96 1.32 6 2 C5.67 3.98 5.34 5.96 5 8 C4.34 8 3.68 8 3 8 C2.01 5.36 1.02 2.72 0 0 Z " fill="#711210" transform="translate(119,120)"/>
<path d="M0 0 C0.99 0.495 0.99 0.495 2 1 C3.26761762 5.29581527 4 8.50944298 4 13 C3.01 13 2.02 13 1 13 C1.020625 11.783125 1.04125 10.56625 1.0625 9.3125 C1.06824116 6.08022678 0.78766315 3.15065259 0 0 Z " fill="#5B494B" transform="translate(88,79)"/>
<path d="M0 0 C0 1.65 0 3.3 0 5 C-1.32 4.67 -2.64 4.34 -4 4 C-4 3.34 -4 2.68 -4 2 C-6.31 2 -8.62 2 -11 2 C-11 1.67 -11 1.34 -11 1 C-3.375 0 -3.375 0 0 0 Z " fill="#720504" transform="translate(122,70)"/>
<path d="M0 0 C0.99 0 1.98 0 3 0 C3.33 2.64 3.66 5.28 4 8 C3.01 7.67 2.02 7.34 1 7 C1 6.34 1 5.68 1 5 C0.01 5 -0.98 5 -2 5 C-1.67 4.01 -1.34 3.02 -1 2 C-0.34 2.33 0.32 2.66 1 3 C0.67 2.01 0.34 1.02 0 0 Z " fill="#790F08" transform="translate(37,153)"/>
<path d="M0 0 C1.485 0.99 1.485 0.99 3 2 C3.1875 4.625 3.1875 4.625 3 7 C1.68 7 0.36 7 -1 7 C-1.04254356 5.00045254 -1.04080783 2.99958364 -1 1 C-0.67 0.67 -0.34 0.34 0 0 Z " fill="#7B0804" transform="translate(104,89)"/>
<path d="M0 0 C2.475 0.495 2.475 0.495 5 1 C4.01 1.495 4.01 1.495 3 2 C3.33 4.31 3.66 6.62 4 9 C1.18167487 7.59083743 0.97406539 5.92219617 0 3 C0 2.01 0 1.02 0 0 Z " fill="#9A1611" transform="translate(52,46)"/>
<path d="M0 0 C0.66 0.33 1.32 0.66 2 1 C1.67 1.66 1.34 2.32 1 3 C1.66 3.33 2.32 3.66 3 4 C2.01 5.485 2.01 5.485 1 7 C-0.32 6.34 -1.64 5.68 -3 5 C-2.01 3.35 -1.02 1.7 0 0 Z " fill="#9A1914" transform="translate(44,121)"/>
<path d="M0 0 C0.66 0 1.32 0 2 0 C3.06775224 1.96466413 4.06553465 3.96855359 5 6 C4.67 6.66 4.34 7.32 4 8 C2.35 6.35 0.7 4.7 -1 3 C-0.67 2.01 -0.34 1.02 0 0 Z " fill="#A01612" transform="translate(60,98)"/>
<path d="M0 0 C0.99 0 1.98 0 3 0 C3.33 1.98 3.66 3.96 4 6 C3.01 6.33 2.02 6.66 1 7 C0.67 4.69 0.34 2.38 0 0 Z " fill="#750703" transform="translate(114,95)"/>
<path d="M0 0 C5.28 0 10.56 0 16 0 C16 0.33 16 0.66 16 1 C14.73542969 1.05607422 14.73542969 1.05607422 13.4453125 1.11328125 C11.80175781 1.21189453 11.80175781 1.21189453 10.125 1.3125 C9.03445312 1.37050781 7.94390625 1.42851563 6.8203125 1.48828125 C5.42425781 1.74158203 5.42425781 1.74158203 4 2 C3.01 3.485 3.01 3.485 2 5 C1.34 3.35 0.68 1.7 0 0 Z " fill="#DBC6AE" transform="translate(65,48)"/>
<path d="M0 0 C0.66 0.33 1.32 0.66 2 1 C2 2.98 2 4.96 2 7 C1.01 7.495 1.01 7.495 0 8 C0 7.34 0 6.68 0 6 C-0.99 6 -1.98 6 -3 6 C-3.33 5.01 -3.66 4.02 -4 3 C-3.01 2.67 -2.02 2.34 -1 2 C-0.67 1.34 -0.34 0.68 0 0 Z " fill="#86221D" transform="translate(16,42)"/>
<path d="M0 0 C0.66 0 1.32 0 2 0 C1.6875 2.375 1.6875 2.375 1 5 C-2 7 -2 7 -4.1875 6.625 C-4.785625 6.41875 -5.38375 6.2125 -6 6 C-5.34 5.34 -4.68 4.68 -4 4 C-2.68 4 -1.36 4 0 4 C-0.33 3.01 -0.66 2.02 -1 1 C-0.67 0.67 -0.34 0.34 0 0 Z " fill="#7F1818" transform="translate(148,117)"/>
<path d="M0 0 C0.99 0 1.98 0 3 0 C3.33 0.99 3.66 1.98 4 3 C4.66 3.33 5.32 3.66 6 4 C6 4.99 6 5.98 6 7 C4.68 6.67 3.36 6.34 2 6 C2 5.01 2 4.02 2 3 C1.34 3 0.68 3 0 3 C0 2.01 0 1.02 0 0 Z " fill="#971310" transform="translate(119,113)"/>
<path d="M0 0 C-0.33 1.32 -0.66 2.64 -1 4 C-2.98 4 -4.96 4 -7 4 C-7.33 3.01 -7.66 2.02 -8 1 C-2.25 -1.125 -2.25 -1.125 0 0 Z " fill="#7B0A07" transform="translate(61,95)"/>
<path d="M0 0 C1.25 2.5625 1.25 2.5625 2 5 C1.319375 4.525625 0.63875 4.05125 -0.0625 3.5625 C-3.41841956 1.7774364 -6.24161481 1.36846914 -10 1 C-10 0.67 -10 0.34 -10 0 C-2.90322581 -1.4516129 -2.90322581 -1.4516129 0 0 Z " fill="#C8BDA8" transform="translate(152,52)"/>
<path d="M0 0 C-0.99 0 -1.98 0 -3 0 C-3.33 1.65 -3.66 3.3 -4 5 C-5.32 5.33 -6.64 5.66 -8 6 C-7.39816251 3.97954558 -6.72693904 1.97888961 -6 0 C-3.50907189 -1.24546405 -2.58919267 -0.7767578 0 0 Z " fill="#94100D" transform="translate(110,49)"/>
<path d="M0 0 C3 2 3 2 5 5 C3.35 5.33 1.7 5.66 0 6 C-0.38218767 4.34385343 -0.71395102 2.67542976 -1 1 C-0.67 0.67 -0.34 0.34 0 0 Z " fill="#9A1812" transform="translate(81,119)"/>
<path d="M0 0 C1.875 0.3125 1.875 0.3125 4 1 C4.66 1.99 5.32 2.98 6 4 C3.66666667 4 1.33333333 4 -1 4 C-0.67 2.68 -0.34 1.36 0 0 Z " fill="#8A0C0A" transform="translate(168,86)"/>
<path d="M0 0 C2.4375 0.375 2.4375 0.375 5 1 C5.33 1.66 5.66 2.32 6 3 C5.401875 3.144375 4.80375 3.28875 4.1875 3.4375 C2.43849596 3.8872439 0.71322977 4.42892341 -1 5 C-0.67 3.35 -0.34 1.7 0 0 Z " fill="#7F0E0A" transform="translate(154,72)"/>
<path d="M0 0 C0.99 0.33 1.98 0.66 3 1 C2.34 3.31 1.68 5.62 1 8 C-0.32 6.35 -1.64 4.7 -3 3 C-2.01 2.67 -1.02 2.34 0 2 C0 1.34 0 0.68 0 0 Z " fill="#D2CBB5" transform="translate(88,71)"/>
<path d="M0 0 C1.7074998 1.28062485 3.37373596 2.61767557 5 4 C5 4.66 5 5.32 5 6 C2.29120665 7.35439668 -0.00933268 7.06501451 -3 7 C-1.68 6.34 -0.36 5.68 1 5 C0.67 3.35 0.34 1.7 0 0 Z " fill="#CDAA93" transform="translate(116,64)"/>
<path d="M0 0 C0.94875 0.04125 1.8975 0.0825 2.875 0.125 C2.875 0.785 2.875 1.445 2.875 2.125 C3.865 2.455 4.855 2.785 5.875 3.125 C3.24249612 4.44125194 2.07320944 3.87313658 -0.75 3.1875 C-1.97589844 2.89552734 -1.97589844 2.89552734 -3.2265625 2.59765625 C-4.16628906 2.36369141 -4.16628906 2.36369141 -5.125 2.125 C-3.125 0.125 -3.125 0.125 0 0 Z " fill="#D5CFB5" transform="translate(46.125,47.875)"/>
<path d="M0 0 C4.29 0.66 8.58 1.32 13 2 C13 2.33 13 2.66 13 3 C8.38 3 3.76 3 -1 3 C-0.67 2.01 -0.34 1.02 0 0 Z " fill="#65100E" transform="translate(99,1)"/>
<path d="M0 0 C0.99 0.33 1.98 0.66 3 1 C3 1.66 3 2.32 3 3 C3.66 3 4.32 3 5 3 C5 4.65 5 6.3 5 8 C4.67 7.01 4.34 6.02 4 5 C1.98491642 4.26676204 1.98491642 4.26676204 0 4 C0 2.68 0 1.36 0 0 Z " fill="#AA1912" transform="translate(82,77)"/>
<path d="M0 0 C2 3 2 3 2 6 C2.66 6.33 3.32 6.66 4 7 C3.34 7 2.68 7 2 7 C1.67 7.66 1.34 8.32 1 9 C0.34 8.34 -0.32 7.68 -1 7 C-0.625 3.375 -0.625 3.375 0 0 Z " fill="#931612" transform="translate(3,58)"/>
<path d="M0 0 C0.66 0 1.32 0 2 0 C3.4783226 2.95664519 3.06032783 5.74229737 3 9 C2.34 8.67 1.68 8.34 1 8 C0.40644386 5.35139573 0.25790731 2.70802678 0 0 Z " fill="#600401" transform="translate(63,96)"/>
<path d="M0 0 C0.93423645 3.01031744 1.04449911 3.86650268 0 7 C-2.0625 7.6875 -2.0625 7.6875 -4 8 C-2.87548273 5.0280615 -1.77706209 2.66559313 0 0 Z " fill="#851413" transform="translate(14,38)"/>
<path d="M0 0 C2.0625 0.4375 2.0625 0.4375 4 1 C4.33 2.32 4.66 3.64 5 5 C3.35 5 1.7 5 0 5 C0.66 4.34 1.32 3.68 2 3 C1.01 2.34 0.02 1.68 -1 1 C-0.67 0.67 -0.34 0.34 0 0 Z " fill="#740F07" transform="translate(104,3)"/>
<path d="M0 0 C1.0326802 2.78823655 1.04509293 3.8677274 0.0625 6.75 C-0.288125 7.4925 -0.63875 8.235 -1 9 C-1.33 9 -1.66 9 -2 9 C-2.125 5.625 -2.125 5.625 -2 2 C-1.34 1.34 -0.68 0.68 0 0 Z " fill="#9C1410" transform="translate(50,101)"/>
<path d="M0 0 C1.24546405 2.49092811 0.7767578 3.41080733 0 6 C-1.32 5.67 -2.64 5.34 -4 5 C-4 4.34 -4 3.68 -4 3 C-3.34 3 -2.68 3 -2 3 C-2 2.34 -2 1.68 -2 1 C-1.34 0.67 -0.68 0.34 0 0 Z " fill="#A81914" transform="translate(46,102)"/>
<path d="M0 0 C4.455 0.99 4.455 0.99 9 2 C6 4 6 4 3.9375 3.8125 C2 3 2 3 0 0 Z " fill="#9B1113" transform="translate(43,96)"/>
<path d="M0 0 C0.66 0 1.32 0 2 0 C2 1.98 2 3.96 2 6 C1.01 6.33 0.02 6.66 -1 7 C-0.67 4.69 -0.34 2.38 0 0 Z " fill="#E6D6B6" transform="translate(155,51)"/>
</svg>
