<?xml version="1.0" encoding="UTF-8"?>
<svg version="1.1" xmlns="http://www.w3.org/2000/svg" width="300" height="300">
<path d="M0 0 C1.04909546 0.06779663 1.04909546 0.06779663 2.11938477 0.13696289 C7.66806981 0.56594868 13.1708953 1.34289596 18.25 3.75 C18.745 4.74 18.745 4.74 19.25 5.75 C20.24 6.245 20.24 6.245 21.25 6.75 C21.25 7.08 21.25 7.41 21.25 7.75 C22.405 7.894375 23.56 8.03875 24.75 8.1875 C25.48605469 8.28160156 26.22210938 8.37570313 26.98046875 8.47265625 C29.00438445 8.71998502 31.03332048 8.92540857 33.0625 9.125 C38.25902995 9.75771123 43.23724573 11.28487513 48.25 12.75 C48.25 13.41 48.25 14.07 48.25 14.75 C48.81847656 14.83636719 49.38695312 14.92273438 49.97265625 15.01171875 C55.68350215 16.05092109 60.0547529 17.62667142 64.25 21.75 C65.5625 24.0625 65.5625 24.0625 66.25 26.75 C66.52263672 27.78640625 66.52263672 27.78640625 66.80078125 28.84375 C67.30867973 30.80624207 67.78197716 32.77761803 68.25 34.75 C69.03375 34.79125 69.8175 34.8325 70.625 34.875 C75.75607644 36.11353569 79.96079013 38.70474177 84.25 41.75 C84.58 42.41 84.91 43.07 85.25 43.75 C86.03375 44.018125 86.8175 44.28625 87.625 44.5625 C90.25 45.75 90.25 45.75 91.5859375 48.00390625 C93.51869557 51.19341076 95.77946581 53.32924873 98.5 55.875 C105.83767794 62.96480805 112.49319089 71.33327071 113.5625 81.8125 C112.96154626 87.46146519 109.54933344 91.23236355 105.25 94.75 C101.4375 95.5625 101.4375 95.5625 98.25 95.75 C98.25 96.41 98.25 97.07 98.25 97.75 C93.7596124 98.82062482 89.34863917 99.79180226 84.75 100.25 C83.595 100.415 82.44 100.58 81.25 100.75 C80.92 101.41 80.59 102.07 80.25 102.75 C74.97 102.75 69.69 102.75 64.25 102.75 C65.24 103.41 66.23 104.07 67.25 104.75 C65.6103125 104.9665625 65.6103125 104.9665625 63.9375 105.1875 C60.31877013 105.63288104 60.31877013 105.63288104 57.25 106.75 C56.29124954 109.21143484 56.29124954 109.21143484 55.6875 112.125 C54.86654227 115.6407399 54.27883846 117.70674231 52.25 120.75 C52.45817408 124.91348161 53.87320166 128.4120709 55.375 132.25 C56.98032586 136.48274768 57.69424778 139.29690269 56.25 143.75 C53.16631563 142.20815781 51.79692601 139.36853027 49.8828125 136.5625 C47.98574395 134.45666314 47.02607587 134.08568672 44.25 133.75 C36.99715154 133.87292963 32.99687505 136.5334231 27.25 140.75 C24.20645858 142.71139336 21.7928234 144.04143532 18.25 144.75 C14.85492375 145.88169208 13.75856732 147.17128546 11.4375 149.8125 C8.98672974 151.98318223 7.45668509 152.39370166 4.25 152.75 C3.92 153.74 3.59 154.73 3.25 155.75 C1.92656292 156.12067935 0.59131677 156.45040324 -0.75 156.75 C-2.90385295 158.63819205 -4.88744497 160.51449621 -6.875 162.5625 C-7.41253906 163.09681641 -7.95007813 163.63113281 -8.50390625 164.18164062 C-11.13802894 166.85189218 -13.35664674 169.19780927 -14.75 172.75 C-12.81087416 171.96232408 -10.87375234 171.1697133 -8.9375 170.375 C-7.85855469 169.93414062 -6.77960938 169.49328125 -5.66796875 169.0390625 C-2.64269888 167.8020881 -2.64269888 167.8020881 0.25 165.75 C2.9375 165.625 2.9375 165.625 5.25 165.75 C5.25 165.09 5.25 164.43 5.25 163.75 C8.63813617 162.06734355 12.03664089 160.40677139 15.4375 158.75 C16.39720703 158.27304688 17.35691406 157.79609375 18.34570312 157.3046875 C19.27705078 156.85351562 20.20839844 156.40234375 21.16796875 155.9375 C22.02156982 155.51855469 22.8751709 155.09960938 23.75463867 154.66796875 C26.42607325 153.68522792 28.42746461 153.57317711 31.25 153.75 C31.25 153.09 31.25 152.43 31.25 151.75 C32.07242188 151.62882813 32.89484375 151.50765625 33.7421875 151.3828125 C39.17186316 150.56773417 44.59847987 149.73636455 50 148.75 C51.19882812 148.5334375 51.19882812 148.5334375 52.421875 148.3125 C53.02515625 148.126875 53.6284375 147.94125 54.25 147.75 C54.58 147.09 54.91 146.43 55.25 145.75 C56.9 145.75 58.55 145.75 60.25 145.75 C61.09584998 147.30575978 61.92618399 148.8699612 62.75 150.4375 C63.2140625 151.30761719 63.678125 152.17773438 64.15625 153.07421875 C65.29818792 155.86788829 65.46504208 157.76629113 65.25 160.75 C63.11608974 160.29273352 61.35639437 159.80870034 59.4375 158.75 C56.8919557 157.58632261 54.78286003 157.34469948 52 157.125 C51.10796875 157.05023438 50.2159375 156.97546875 49.296875 156.8984375 C48.28367188 156.82496094 48.28367188 156.82496094 47.25 156.75 C47.25 157.41 47.25 158.07 47.25 158.75 C44.94 158.75 42.63 158.75 40.25 158.75 C39.92 159.41 39.59 160.07 39.25 160.75 C37.6 160.75 35.95 160.75 34.25 160.75 C34.25 161.41 34.25 162.07 34.25 162.75 C32.6 162.75 30.95 162.75 29.25 162.75 C29.25 163.41 29.25 164.07 29.25 164.75 C25.47930343 166.479465 21.708417 168.20851569 17.9375 169.9375 C16.3587207 170.66163086 16.3587207 170.66163086 14.74804688 171.40039062 C12.62886016 172.37195623 10.50890202 173.34184094 8.38818359 174.31005859 C6.31383164 175.26186564 4.24372509 176.22298599 2.17822266 177.19384766 C1.21835449 177.64163574 0.25848633 178.08942383 -0.73046875 178.55078125 C-1.57891357 178.95079346 -2.4273584 179.35080566 -3.30151367 179.76293945 C-5.78082777 180.76242763 -8.11804395 181.31354498 -10.75 181.75 C-10.75 182.41 -10.75 183.07 -10.75 183.75 C-14.56937441 186.67069808 -17.07569195 186.75 -21.75 186.75 C-22.41 187.74 -23.07 188.73 -23.75 189.75 C-26.375 189.9375 -26.375 189.9375 -28.75 189.75 C-29.08 187.11 -29.41 184.47 -29.75 181.75 C-31.4 181.75 -33.05 181.75 -34.75 181.75 C-35.03169014 174.42605634 -35.03169014 174.42605634 -32.75 170.75 C-32.440625 170.028125 -32.13125 169.30625 -31.8125 168.5625 C-30.75 166.75 -30.75 166.75 -27.75 165.75 C-25.84952749 163.43391034 -25.84952749 163.43391034 -24.0625 160.6875 C-23.43988281 159.76839844 -22.81726563 158.84929687 -22.17578125 157.90234375 C-21.70527344 157.19207031 -21.23476562 156.48179687 -20.75 155.75 C-22.04797872 152.60020799 -22.04797872 152.60020799 -24.8125 150.8125 C-26.75 149.75 -26.75 149.75 -27.5 147.5625 C-27.75 144.75 -27.75 144.75 -27.5 141.1875 C-27.38091934 137.57060589 -27.38091934 137.57060589 -30.25 135.3125 C-31.075 134.796875 -31.9 134.28125 -32.75 133.75 C-32.42 132.1 -32.09 130.45 -31.75 128.75 C-30.43 128.75 -29.11 128.75 -27.75 128.75 C-30.06 128.42 -32.37 128.09 -34.75 127.75 C-35.08 126.76 -35.41 125.77 -35.75 124.75 C-36.41 124.75 -37.07 124.75 -37.75 124.75 C-38.245 120.79 -38.245 120.79 -38.75 116.75 C-40.73 116.75 -42.71 116.75 -44.75 116.75 C-45.245 112.79 -45.245 112.79 -45.75 108.75 C-42.07612505 107.89701624 -38.7052607 107.64210529 -34.9375 107.6875 C-33.47376953 107.70103516 -33.47376953 107.70103516 -31.98046875 107.71484375 C-31.24441406 107.72644531 -30.50835937 107.73804688 -29.75 107.75 C-29.15267181 110.51264289 -28.75 112.91032769 -28.75 115.75 C-25.85620554 114.90591877 -25.85620554 114.90591877 -23.875 113.625 C-21.06523559 112.46803818 -19.72540913 113.10317193 -16.75 113.75 C-13.41509473 113.8473321 -10.08549903 113.80829027 -6.75 113.75 C-6.42 113.09 -6.09 112.43 -5.75 111.75 C-5.0075 111.853125 -4.265 111.95625 -3.5 112.0625 C-0.55624031 112.03259812 -0.55624031 112.03259812 1.3125 109.5 C2.2715625 108.13875 2.2715625 108.13875 3.25 106.75 C5.67517546 104.10435405 6.81239233 102.89586922 10.25 101.75 C10.806875 101.04875 11.36375 100.3475 11.9375 99.625 C14.25 97.75 14.25 97.75 16.25 97.640625 C18.4375 97.875 18.4375 97.875 22.25 98.75 C22.58 99.41 22.91 100.07 23.25 100.75 C25.27463255 101.40213292 25.27463255 101.40213292 27.25 101.75 C27.745 100.265 27.745 100.265 28.25 98.75 C28.58 98.75 28.91 98.75 29.25 98.75 C29.745 104.195 29.745 104.195 30.25 109.75 C30.25 107.8957163 30.23271299 106.04123241 30.1875 104.1875 C30.25 101.75 30.25 101.75 31.25 99.75 C31.91 99.75 32.57 99.75 33.25 99.75 C35.25 102.75 35.25 102.75 36.25 104.75 C38.725 104.255 38.725 104.255 41.25 103.75 C41.58 102.43 41.91 101.11 42.25 99.75 C39.28 98.76 39.28 98.76 36.25 97.75 C36.2809375 96.450625 36.2809375 96.450625 36.3125 95.125 C36.33778275 91.76466956 36.33778275 91.76466956 35.6875 88.5625 C35.25 85.75 35.25 85.75 36.25 82.75 C37.24 82.75 38.23 82.75 39.25 82.75 C38.59 81.76 37.93 80.77 37.25 79.75 C36.90324219 80.56855469 36.55648437 81.38710937 36.19921875 82.23046875 C34.25 84.75 34.25 84.75 30.89453125 85.23828125 C29.62996094 85.18027344 28.36539063 85.12226563 27.0625 85.0625 C25.79019531 85.01738281 24.51789063 84.97226563 23.20703125 84.92578125 C22.23121094 84.86777344 21.25539063 84.80976563 20.25 84.75 C20.25 85.08 20.25 85.41 20.25 85.75 C19.30125 85.70875 18.3525 85.6675 17.375 85.625 C14.14755144 85.40026182 14.14755144 85.40026182 12.25 87.75 C10.20519026 88.43064996 8.13861732 89.04684075 6.0625 89.625 C2.23443783 90.74817868 -1.19533217 91.78407872 -4.5625 93.9375 C-8.30957296 96.06818855 -11.55056146 96.3532391 -15.75 96.75 C-16.68497314 96.8420874 -17.61994629 96.9341748 -18.58325195 97.02905273 C-21.72087315 97.32795732 -24.85987245 97.60377244 -28 97.875 C-29.61261719 98.02388672 -29.61261719 98.02388672 -31.2578125 98.17578125 C-32.29164062 98.26472656 -33.32546875 98.35367188 -34.390625 98.4453125 C-35.32422852 98.52797363 -36.25783203 98.61063477 -37.21972656 98.69580078 C-39.62758603 98.74737786 -41.46306288 98.46290738 -43.75 97.75 C-43.29177532 94.28058454 -42.85868317 91.07604951 -41.75 87.75 C-41.68334624 86.35560336 -41.66461801 84.95830125 -41.6875 83.5625 C-41.708125 82.304375 -41.72875 81.04625 -41.75 79.75 C-42.74 79.42 -43.73 79.09 -44.75 78.75 C-45.08 77.76 -45.41 76.77 -45.75 75.75 C-56.8146701 74.54777028 -67.67509674 73.47753968 -78.81640625 73.875 C-81.741272 73.7503719 -83.29665638 73.28558916 -85.75 71.75 C-85.75 70.76 -85.75 69.77 -85.75 68.75 C-80.305 68.255 -80.305 68.255 -74.75 67.75 C-75.08 67.75 -75.41 67.75 -75.75 67.75 C-79.08333333 67.75 -82.41666667 67.75 -85.75 67.75 C-85.75 67.42 -85.75 67.09 -85.75 66.75 C-89.38 66.75 -93.01 66.75 -96.75 66.75 C-96.97283503 61.95904681 -96.68224324 58.20428791 -93.63671875 54.3359375 C-90.84811939 51.99189746 -87.65653988 50.57973707 -84.375 49.0625 C-83.715 48.74216797 -83.055 48.42183594 -82.375 48.09179688 C-78.64076462 46.34741799 -75.85276312 45.48917142 -71.75 45.75 C-70.81027344 45.51458496 -70.81027344 45.51458496 -69.8515625 45.27441406 C-65.73540185 44.24728661 -61.35672409 44.38303011 -57.125 44.23242188 C-52.65730076 44.02324514 -48.96611347 43.38545405 -44.75 41.75 C-41.75 40.75 -41.75 40.75 -38.75 41.75 C-38.42 42.74 -38.09 43.73 -37.75 44.75 C-35.76508358 44.48323796 -35.76508358 44.48323796 -33.75 43.75 C-33.42 42.76 -33.09 41.77 -32.75 40.75 C-31.96625 40.95625 -31.1825 41.1625 -30.375 41.375 C-29.50875 41.49875 -28.6425 41.6225 -27.75 41.75 C-26.76 40.76 -26.76 40.76 -25.75 39.75 C-19.711582 35.724388 -13.81321896 34.29590216 -6.62890625 34.1328125 C-5.88470932 34.10774628 -5.14051239 34.08268005 -4.37376404 34.05685425 C-2.81179345 34.00824191 -1.24959196 33.9665857 0.31274414 33.93164062 C2.67916378 33.87519883 5.04290406 33.78667282 7.40820312 33.6953125 C15.22321612 33.45131534 21.96696582 33.52238669 29.25 36.75 C29.25 37.41 29.25 38.07 29.25 38.75 C30.78836708 39.40365399 32.33088766 40.04753603 33.875 40.6875 C35.16277344 41.22697266 35.16277344 41.22697266 36.4765625 41.77734375 C39.21301114 42.84077554 39.21301114 42.84077554 42.07421875 43.13671875 C46.26579119 43.9461614 49.66172248 45.68317156 53.4375 47.625 C54.14841797 47.97691406 54.85933594 48.32882813 55.59179688 48.69140625 C59.0247884 50.42889396 61.53337804 52.01045699 64.25 54.75 C64.84554687 54.88792969 65.44109375 55.02585938 66.0546875 55.16796875 C69.37601761 56.04853492 71.64276601 58.01164623 74.375 60.0625 C75.42945313 60.84238281 76.48390625 61.62226562 77.5703125 62.42578125 C80.03849018 64.56654761 80.99438672 65.83985463 82.25 68.75 C83.57796291 69.10412344 84.91216607 69.43521554 86.25 69.75 C90.03548896 72.88654799 90.03548896 72.88654799 90.71484375 75.62109375 C91.32955962 78.06649631 92.31217164 79.85173542 93.625 82 C94.04523438 82.70640625 94.46546875 83.4128125 94.8984375 84.140625 C95.34445313 84.67171875 95.79046875 85.2028125 96.25 85.75 C97.24 85.75 98.23 85.75 99.25 85.75 C99.25 86.41 99.25 87.07 99.25 87.75 C102.80780196 87.14009109 105.9328589 86.1716319 109.25 84.75 C110.07965742 77.11715178 106.98652294 71.40268926 102.46484375 65.3671875 C99.01289059 61.14652457 99.01289059 61.14652457 94.25 58.75 C93.8478125 57.88375 93.8478125 57.88375 93.4375 57 C91.39602263 53.13193762 88.01206816 50.44342035 83.95703125 48.84765625 C80.63779722 47.50176193 77.78308174 45.71526273 74.75 43.8125 C73.6465625 43.12285156 72.543125 42.43320313 71.40625 41.72265625 C70.3646875 41.07167969 69.323125 40.42070313 68.25 39.75 C67.3115625 39.21246094 66.373125 38.67492187 65.40625 38.12109375 C63.25 36.75 63.25 36.75 62.25 34.75 C57.31010245 32.96322854 52.61707519 32.41413937 47.38671875 32.09375 C45.25 31.75 45.25 31.75 43.25 29.75 C41.9346659 29.04848848 40.59882408 28.38474075 39.25 27.75 C38.63125 27.41226563 38.0125 27.07453125 37.375 26.7265625 C31.05654232 23.82285952 23.05118261 24.6222116 16.25 24.75 C16.25 24.42 16.25 24.09 16.25 23.75 C13.28 23.75 10.31 23.75 7.25 23.75 C7.25 24.08 7.25 24.41 7.25 24.75 C6.20199219 24.71519531 5.15398437 24.68039063 4.07421875 24.64453125 C2.69532853 24.61639063 1.31642098 24.58909076 -0.0625 24.5625 C-1.09793945 24.52479492 -1.09793945 24.52479492 -2.15429688 24.48632812 C-6.07152378 24.33927502 -6.07152378 24.33927502 -9.41796875 26.09765625 C-9.85753906 26.64292969 -10.29710937 27.18820313 -10.75 27.75 C-12.386028 28.68102909 -14.0563763 29.55339088 -15.75 30.375 C-16.61625 30.80039063 -17.4825 31.22578125 -18.375 31.6640625 C-20.75 32.75 -20.75 32.75 -23.75 33.75 C-24.3275 34.41 -24.905 35.07 -25.5 35.75 C-28.465282 38.38580622 -30.86820531 38.45140041 -34.75 38.75 C-34.4284 35.74840005 -34.09309589 32.7491978 -33.75 29.75 C-33.60433594 28.45835938 -33.45867187 27.16671875 -33.30859375 25.8359375 C-33.14373992 24.43223159 -32.97837243 23.02858591 -32.8125 21.625 C-32.73789551 20.95662109 -32.66329102 20.28824219 -32.58642578 19.59960938 C-32.04589688 15.11178255 -31.28532629 10.99093625 -29.75 6.75 C-26.8125 5.5 -26.8125 5.5 -23.75 4.75 C-23.275625 4.234375 -22.80125 3.71875 -22.3125 3.1875 C-19.81512791 0.88991768 -17.0496234 1.08555492 -13.75 0.75 C-12.84378906 0.57210937 -11.93757813 0.39421875 -11.00390625 0.2109375 C-7.281568 -0.31635651 -3.73409966 -0.24721143 0 0 Z M-16.75 3.75 C-15.265 4.74 -15.265 4.74 -13.75 5.75 C-13.09 5.42 -12.43 5.09 -11.75 4.75 C-13.4 4.42 -15.05 4.09 -16.75 3.75 Z M-19.75 5.75 C-19.75 6.74 -19.75 7.73 -19.75 8.75 C-18.76 8.09 -17.77 7.43 -16.75 6.75 C-17.74 6.42 -18.73 6.09 -19.75 5.75 Z M-23.75 7.75 C-24.74 8.41 -25.73 9.07 -26.75 9.75 C-24.77 9.42 -22.79 9.09 -20.75 8.75 C-21.74 8.42 -22.73 8.09 -23.75 7.75 Z M37.25 11.75 C41.25 12.75 41.25 12.75 41.25 12.75 Z M-51.75 54.75 C-51.75 55.74 -51.75 56.73 -51.75 57.75 C-51.09 57.09 -50.43 56.43 -49.75 55.75 C-50.41 55.42 -51.07 55.09 -51.75 54.75 Z M-53.75 56.75 C-52.75 58.75 -52.75 58.75 -52.75 58.75 Z M-75.75 63.75 C-75.75 64.08 -75.75 64.41 -75.75 64.75 C-73.44 64.75 -71.13 64.75 -68.75 64.75 C-68.75 64.42 -68.75 64.09 -68.75 63.75 C-71.06 63.75 -73.37 63.75 -75.75 63.75 Z M-81.75 64.75 C-81.75 65.08 -81.75 65.41 -81.75 65.75 C-80.1 65.75 -78.45 65.75 -76.75 65.75 C-76.75 65.42 -76.75 65.09 -76.75 64.75 C-78.4 64.75 -80.05 64.75 -81.75 64.75 Z M-40.75 66.75 C-39.75 68.75 -39.75 68.75 -39.75 68.75 Z M-41.75 68.75 C-40.75 71.75 -40.75 71.75 -40.75 71.75 Z M-80.75 71.75 C-80.75 72.08 -80.75 72.41 -80.75 72.75 C-79.1 72.75 -77.45 72.75 -75.75 72.75 C-75.75 72.42 -75.75 72.09 -75.75 71.75 C-77.4 71.75 -79.05 71.75 -80.75 71.75 Z M-42.75 73.75 C-41.75 75.75 -41.75 75.75 -41.75 75.75 Z M40.25 77.75 C40.25 79.73 40.25 81.71 40.25 83.75 C40.58 83.75 40.91 83.75 41.25 83.75 C41.25 81.77 41.25 79.79 41.25 77.75 C40.92 77.75 40.59 77.75 40.25 77.75 Z M46.25 80.75 C47.25 82.75 47.25 82.75 47.25 82.75 Z M44.25 81.75 C45.25 84.75 45.25 84.75 45.25 84.75 Z M50.25 81.75 C50.25 83.73 50.25 85.71 50.25 87.75 C50.58 87.75 50.91 87.75 51.25 87.75 C51.25 85.77 51.25 83.79 51.25 81.75 C50.92 81.75 50.59 81.75 50.25 81.75 Z M47.25 84.75 C48.25 88.75 48.25 88.75 48.25 88.75 Z M43.25 85.75 C44.25 87.75 44.25 87.75 44.25 87.75 Z M45.25 85.75 C46.25 87.75 46.25 87.75 46.25 87.75 Z M97.25 86.75 C98.25 88.75 98.25 88.75 98.25 88.75 Z M44.25 87.75 C44.04375 89.02875 43.8375 90.3075 43.625 91.625 C43.50898438 92.34429687 43.39296875 93.06359375 43.2734375 93.8046875 C43.26570312 94.44664062 43.25796875 95.08859375 43.25 95.75 C43.91 96.41 44.57 97.07 45.25 97.75 C46.4880014 94.17355152 45.99926071 91.41305234 45.25 87.75 C44.92 87.75 44.59 87.75 44.25 87.75 Z M46.25 88.75 C46.25 90.4 46.25 92.05 46.25 93.75 C46.58 93.75 46.91 93.75 47.25 93.75 C47.25 92.1 47.25 90.45 47.25 88.75 C46.92 88.75 46.59 88.75 46.25 88.75 Z M-36.75 95.75 C-36.75 96.08 -36.75 96.41 -36.75 96.75 C-33.12 96.75 -29.49 96.75 -25.75 96.75 C-25.75 96.42 -25.75 96.09 -25.75 95.75 C-29.38 95.75 -33.01 95.75 -36.75 95.75 Z M43.25 97.75 C44.25 99.75 44.25 99.75 44.25 99.75 Z M20.25 99.75 C21.25 103.75 21.25 103.75 21.25 103.75 Z M59.25 101.75 C60.25 104.75 60.25 104.75 60.25 104.75 Z M33.25 112.75 C33.25 114.4 33.25 116.05 33.25 117.75 C33.58 117.75 33.91 117.75 34.25 117.75 C34.25 116.1 34.25 114.45 34.25 112.75 C33.92 112.75 33.59 112.75 33.25 112.75 Z M35.25 113.75 C35.58 117.38 35.91 121.01 36.25 124.75 C37.57 124.09 38.89 123.43 40.25 122.75 C41.24 122.75 42.23 122.75 43.25 122.75 C44.30236973 119.40155086 44.45005388 118.15920111 42.875 114.9375 C42.33875 114.215625 41.8025 113.49375 41.25 112.75 C39.22241249 112.75 37.23821313 113.35235737 35.25 113.75 Z M34.25 117.75 C34.25 121.05 34.25 124.35 34.25 127.75 C34.58 127.75 34.91 127.75 35.25 127.75 C35.25 124.45 35.25 121.15 35.25 117.75 C34.92 117.75 34.59 117.75 34.25 117.75 Z M-20.75 119.75 C-21.08 120.41 -21.41 121.07 -21.75 121.75 C-21.09 121.75 -20.43 121.75 -19.75 121.75 C-20.08 121.09 -20.41 120.43 -20.75 119.75 Z M-16.75 119.75 C-16.42 120.74 -16.09 121.73 -15.75 122.75 C-15.75 121.76 -15.75 120.77 -15.75 119.75 C-16.08 119.75 -16.41 119.75 -16.75 119.75 Z M-12.75 120.75 C-11.75 122.75 -11.75 122.75 -11.75 122.75 Z M-14.75 122.75 C-15.08 123.74 -15.41 124.73 -15.75 125.75 C-16.8225 125.894375 -17.895 126.03875 -19 126.1875 C-21.67599819 126.58889973 -24.14881191 127.06517393 -26.75 127.75 C-26.12351562 127.90855469 -25.49703125 128.06710938 -24.8515625 128.23046875 C-18.09305317 130.15994854 -18.09305317 130.15994854 -16.1875 133.4375 C-16.043125 134.200625 -15.89875 134.96375 -15.75 135.75 C-14.1 135.09 -12.45 134.43 -10.75 133.75 C-10.440625 131.8628125 -10.440625 131.8628125 -10.125 129.9375 C-10.00898438 129.22980469 -9.89296875 128.52210938 -9.7734375 127.79296875 C-9.55422152 125.43244176 -9.55422152 125.43244176 -11.75 122.75 C-12.08 123.41 -12.41 124.07 -12.75 124.75 C-13.41 124.09 -14.07 123.43 -14.75 122.75 Z M41.25 122.75 C42.25 124.75 42.25 124.75 42.25 124.75 Z M39.25 130.75 C43.25 131.75 43.25 131.75 43.25 131.75 Z M35.25 131.75 C36.25 133.75 36.25 133.75 36.25 133.75 Z M50.25 154.75 C50.25 155.08 50.25 155.41 50.25 155.75 C52.56 155.75 54.87 155.75 57.25 155.75 C57.25 155.42 57.25 155.09 57.25 154.75 C54.94 154.75 52.63 154.75 50.25 154.75 Z M-27.75 176.75 C-26.75 178.75 -26.75 178.75 -26.75 178.75 Z M-28.75 178.75 C-27.75 181.75 -27.75 181.75 -27.75 181.75 Z " fill="#E9E3C9" transform="translate(141.75,55.25)"/>
<path d="M0 0 C2.1875 0.234375 2.1875 0.234375 6 1.109375 C6.495 2.099375 6.495 2.099375 7 3.109375 C9.02463255 3.76150792 9.02463255 3.76150792 11 4.109375 C11.33 3.119375 11.66 2.129375 12 1.109375 C12.33 1.109375 12.66 1.109375 13 1.109375 C13.04898438 1.89183594 13.09796875 2.67429688 13.1484375 3.48046875 C13.26058594 4.99833984 13.26058594 4.99833984 13.375 6.546875 C13.47941406 8.06087891 13.47941406 8.06087891 13.5859375 9.60546875 C13.72257812 10.43175781 13.85921875 11.25804687 14 12.109375 C14.99 12.604375 14.99 12.604375 16 13.109375 C16.73075648 15.4234372 17.40138258 17.75766369 18 20.109375 C18.66 20.109375 19.32 20.109375 20 20.109375 C20 22.419375 20 24.729375 20 27.109375 C23.04134491 25.44013429 23.04134491 25.44013429 24 23.109375 C24.99 22.779375 25.98 22.449375 27 22.109375 C27 21.119375 27 20.129375 27 19.109375 C27.66 19.109375 28.32 19.109375 29 19.109375 C29.495 20.594375 29.495 20.594375 30 22.109375 C31.94074861 21.83319967 31.94074861 21.83319967 34 21.109375 C34.99 19.624375 34.99 19.624375 36 18.109375 C37 21.109375 37 21.109375 36.40625 23.890625 C35.90055307 27.89730071 36.86218855 29.95043454 38.5 33.609375 C40.61328616 38.3305462 41.28080731 41.0471366 40 46.109375 C36.91631563 44.56753281 35.54692601 41.72790527 33.6328125 38.921875 C31.73574395 36.81603814 30.77607587 36.44506172 28 36.109375 C20.74715154 36.23230463 16.74687505 38.8927981 11 43.109375 C7.95645858 45.07076836 5.5428234 46.40081032 2 47.109375 C-1.39507625 48.24106708 -2.49143268 49.53066046 -4.8125 52.171875 C-7.26327026 54.34255723 -8.79331491 54.75307666 -12 55.109375 C-12.33 56.099375 -12.66 57.089375 -13 58.109375 C-14.32343708 58.48005435 -15.65868323 58.80977824 -17 59.109375 C-19.15385295 60.99756705 -21.13744497 62.87387121 -23.125 64.921875 C-23.66253906 65.45619141 -24.20007813 65.99050781 -24.75390625 66.54101562 C-27.38802894 69.21126718 -29.60664674 71.55718427 -31 75.109375 C-29.06087416 74.32169908 -27.12375234 73.5290883 -25.1875 72.734375 C-24.10855469 72.29351562 -23.02960938 71.85265625 -21.91796875 71.3984375 C-18.89269888 70.1614631 -18.89269888 70.1614631 -16 68.109375 C-13.3125 67.984375 -13.3125 67.984375 -11 68.109375 C-11 67.449375 -11 66.789375 -11 66.109375 C-7.61186383 64.42671855 -4.21335911 62.76614639 -0.8125 61.109375 C0.14720703 60.63242188 1.10691406 60.15546875 2.09570312 59.6640625 C3.02705078 59.21289062 3.95839844 58.76171875 4.91796875 58.296875 C5.77156982 57.87792969 6.6251709 57.45898438 7.50463867 57.02734375 C10.17607325 56.04460292 12.17746461 55.93255211 15 56.109375 C15 55.449375 15 54.789375 15 54.109375 C15.82242188 53.98820312 16.64484375 53.86703125 17.4921875 53.7421875 C22.92186316 52.92710917 28.34847987 52.09573955 33.75 51.109375 C34.54921875 50.965 35.3484375 50.820625 36.171875 50.671875 C36.77515625 50.48625 37.3784375 50.300625 38 50.109375 C38.495 49.119375 38.495 49.119375 39 48.109375 C40.65 48.109375 42.3 48.109375 44 48.109375 C44.84584998 49.66513478 45.67618399 51.2293362 46.5 52.796875 C47.19609375 54.10205078 47.19609375 54.10205078 47.90625 55.43359375 C49.04818792 58.22726329 49.21504208 60.12566613 49 63.109375 C46.86608974 62.65210852 45.10639437 62.16807534 43.1875 61.109375 C40.6419557 59.94569761 38.53286003 59.70407448 35.75 59.484375 C34.85796875 59.40960938 33.9659375 59.33484375 33.046875 59.2578125 C32.37140625 59.20882812 31.6959375 59.15984375 31 59.109375 C31 59.769375 31 60.429375 31 61.109375 C28.69 61.109375 26.38 61.109375 24 61.109375 C23.505 62.099375 23.505 62.099375 23 63.109375 C21.35 63.109375 19.7 63.109375 18 63.109375 C18 63.769375 18 64.429375 18 65.109375 C16.35 65.109375 14.7 65.109375 13 65.109375 C13 65.769375 13 66.429375 13 67.109375 C9.22930343 68.83884 5.458417 70.56789069 1.6875 72.296875 C0.1087207 73.02100586 0.1087207 73.02100586 -1.50195312 73.75976562 C-3.62113984 74.73133123 -5.74109798 75.70121594 -7.86181641 76.66943359 C-9.93616836 77.62124064 -12.00627491 78.58236099 -14.07177734 79.55322266 C-15.03164551 80.00101074 -15.99151367 80.44879883 -16.98046875 80.91015625 C-18.25313599 81.51017456 -18.25313599 81.51017456 -19.55151367 82.12231445 C-22.03082777 83.12180263 -24.36804395 83.67291998 -27 84.109375 C-27 84.769375 -27 85.429375 -27 86.109375 C-30.81937441 89.03007308 -33.32569195 89.109375 -38 89.109375 C-38.66 90.099375 -39.32 91.089375 -40 92.109375 C-42.625 92.296875 -42.625 92.296875 -45 92.109375 C-45.33 89.469375 -45.66 86.829375 -46 84.109375 C-47.65 84.109375 -49.3 84.109375 -51 84.109375 C-51.28169014 76.78543134 -51.28169014 76.78543134 -49 73.109375 C-48.5359375 72.0265625 -48.5359375 72.0265625 -48.0625 70.921875 C-47 69.109375 -47 69.109375 -44 68.109375 C-42.09952749 65.79328534 -42.09952749 65.79328534 -40.3125 63.046875 C-39.68988281 62.12777344 -39.06726563 61.20867187 -38.42578125 60.26171875 C-37.95527344 59.55144531 -37.48476562 58.84117187 -37 58.109375 C-38.29797872 54.95958299 -38.29797872 54.95958299 -41.0625 53.171875 C-43 52.109375 -43 52.109375 -43.75 49.921875 C-44 47.109375 -44 47.109375 -43.75 43.546875 C-43.63091934 39.92998089 -43.63091934 39.92998089 -46.5 37.671875 C-47.325 37.15625 -48.15 36.640625 -49 36.109375 C-48.67 34.459375 -48.34 32.809375 -48 31.109375 C-46.68 31.109375 -45.36 31.109375 -44 31.109375 C-46.31 30.779375 -48.62 30.449375 -51 30.109375 C-51.33 29.119375 -51.66 28.129375 -52 27.109375 C-52.66 27.109375 -53.32 27.109375 -54 27.109375 C-54.33 24.469375 -54.66 21.829375 -55 19.109375 C-56.98 19.109375 -58.96 19.109375 -61 19.109375 C-61.33 16.469375 -61.66 13.829375 -62 11.109375 C-58.32612505 10.25639124 -54.9552607 10.00148029 -51.1875 10.046875 C-50.21167969 10.05589844 -49.23585938 10.06492188 -48.23046875 10.07421875 C-47.49441406 10.08582031 -46.75835937 10.09742188 -46 10.109375 C-45.40267181 12.87201789 -45 15.26970269 -45 18.109375 C-42.10620554 17.26529377 -42.10620554 17.26529377 -40.125 15.984375 C-37.31523559 14.82741318 -35.97540913 15.46254693 -33 16.109375 C-29.66509473 16.2067071 -26.33549903 16.16766527 -23 16.109375 C-22.67 15.449375 -22.34 14.789375 -22 14.109375 C-20.88625 14.2640625 -20.88625 14.2640625 -19.75 14.421875 C-16.80624031 14.39197312 -16.80624031 14.39197312 -14.9375 11.859375 C-14.298125 10.951875 -13.65875 10.044375 -13 9.109375 C-10.57482454 6.46372905 -9.43760767 5.25524422 -6 4.109375 C-5.443125 3.408125 -4.88625 2.706875 -4.3125 1.984375 C-2 0.109375 -2 0.109375 0 0 Z M4 2.109375 C5 6.109375 5 6.109375 5 6.109375 Z M-37 22.109375 C-37.33 22.769375 -37.66 23.429375 -38 24.109375 C-37.34 24.109375 -36.68 24.109375 -36 24.109375 C-36.33 23.449375 -36.66 22.789375 -37 22.109375 Z M-33 22.109375 C-32.67 23.099375 -32.34 24.089375 -32 25.109375 C-32 24.119375 -32 23.129375 -32 22.109375 C-32.33 22.109375 -32.66 22.109375 -33 22.109375 Z M-29 23.109375 C-28 25.109375 -28 25.109375 -28 25.109375 Z M-31 25.109375 C-31.33 26.099375 -31.66 27.089375 -32 28.109375 C-33.0725 28.25375 -34.145 28.398125 -35.25 28.546875 C-37.92599819 28.94827473 -40.39881191 29.42454893 -43 30.109375 C-42.37351562 30.26792969 -41.74703125 30.42648438 -41.1015625 30.58984375 C-34.34305317 32.51932354 -34.34305317 32.51932354 -32.4375 35.796875 C-32.293125 36.56 -32.14875 37.323125 -32 38.109375 C-30.35 37.449375 -28.7 36.789375 -27 36.109375 C-26.690625 34.2221875 -26.690625 34.2221875 -26.375 32.296875 C-26.25898438 31.58917969 -26.14296875 30.88148438 -26.0234375 30.15234375 C-25.80422152 27.79181676 -25.80422152 27.79181676 -28 25.109375 C-28.33 25.769375 -28.66 26.429375 -29 27.109375 C-29.66 26.449375 -30.32 25.789375 -31 25.109375 Z M25 25.109375 C26 27.109375 26 27.109375 26 27.109375 Z M23 33.109375 C27 34.109375 27 34.109375 27 34.109375 Z M19 34.109375 C20 36.109375 20 36.109375 20 36.109375 Z M34 57.109375 C34 57.439375 34 57.769375 34 58.109375 C36.31 58.109375 38.62 58.109375 41 58.109375 C41 57.779375 41 57.449375 41 57.109375 C38.69 57.109375 36.38 57.109375 34 57.109375 Z M-44 79.109375 C-43 81.109375 -43 81.109375 -43 81.109375 Z M-45 81.109375 C-44 84.109375 -44 84.109375 -44 84.109375 Z " fill="#DBD6BD" transform="translate(158,152.890625)"/>
<path d="M0 0 C1.04909546 0.06779663 1.04909546 0.06779663 2.11938477 0.13696289 C7.66806981 0.56594868 13.1708953 1.34289596 18.25 3.75 C18.745 4.74 18.745 4.74 19.25 5.75 C19.91 6.08 20.57 6.41 21.25 6.75 C21.25 7.08 21.25 7.41 21.25 7.75 C22.405 7.894375 23.56 8.03875 24.75 8.1875 C25.48605469 8.28160156 26.22210938 8.37570313 26.98046875 8.47265625 C29.00438445 8.71998502 31.03332048 8.92540857 33.0625 9.125 C38.25902995 9.75771123 43.23724573 11.28487513 48.25 12.75 C48.25 13.41 48.25 14.07 48.25 14.75 C48.81847656 14.83636719 49.38695312 14.92273438 49.97265625 15.01171875 C55.68350215 16.05092109 60.0547529 17.62667142 64.25 21.75 C65.5625 24.0625 65.5625 24.0625 66.25 26.75 C66.43175781 27.4409375 66.61351562 28.131875 66.80078125 28.84375 C67.30867973 30.80624207 67.78197716 32.77761803 68.25 34.75 C69.03375 34.79125 69.8175 34.8325 70.625 34.875 C75.75607644 36.11353569 79.96079013 38.70474177 84.25 41.75 C84.58 42.41 84.91 43.07 85.25 43.75 C86.03375 44.018125 86.8175 44.28625 87.625 44.5625 C90.25 45.75 90.25 45.75 91.5859375 48.00390625 C93.51869557 51.19341076 95.77946581 53.32924873 98.5 55.875 C105.83767794 62.96480805 112.49319089 71.33327071 113.5625 81.8125 C112.95595677 87.51400633 109.49443617 91.11191185 105.25 94.75 C102.4375 95.5625 102.4375 95.5625 100.25 95.75 C99.92 95.09 99.59 94.43 99.25 93.75 C99.91 93.75 100.57 93.75 101.25 93.75 C101.25 92.76 101.25 91.77 101.25 90.75 C100.59 90.75 99.93 90.75 99.25 90.75 C98.59 89.1 97.93 87.45 97.25 85.75 C97.91 85.75 98.57 85.75 99.25 85.75 C99.25 86.41 99.25 87.07 99.25 87.75 C102.80780196 87.14009109 105.9328589 86.1716319 109.25 84.75 C110.07965742 77.11715178 106.98652294 71.40268926 102.46484375 65.3671875 C99.01289059 61.14652457 99.01289059 61.14652457 94.25 58.75 C93.8478125 57.88375 93.8478125 57.88375 93.4375 57 C91.39602263 53.13193762 88.01206816 50.44342035 83.95703125 48.84765625 C80.63779722 47.50176193 77.78308174 45.71526273 74.75 43.8125 C73.6465625 43.12285156 72.543125 42.43320313 71.40625 41.72265625 C70.3646875 41.07167969 69.323125 40.42070313 68.25 39.75 C67.3115625 39.21246094 66.373125 38.67492187 65.40625 38.12109375 C63.25 36.75 63.25 36.75 62.25 34.75 C57.31010245 32.96322854 52.61707519 32.41413937 47.38671875 32.09375 C45.25 31.75 45.25 31.75 43.25 29.75 C41.9346659 29.04848848 40.59882408 28.38474075 39.25 27.75 C38.63125 27.41226563 38.0125 27.07453125 37.375 26.7265625 C31.05654232 23.82285952 23.05118261 24.6222116 16.25 24.75 C16.25 24.42 16.25 24.09 16.25 23.75 C13.28 23.75 10.31 23.75 7.25 23.75 C7.25 24.08 7.25 24.41 7.25 24.75 C6.20199219 24.71519531 5.15398437 24.68039063 4.07421875 24.64453125 C2.69532853 24.61639063 1.31642098 24.58909076 -0.0625 24.5625 C-1.09793945 24.52479492 -1.09793945 24.52479492 -2.15429688 24.48632812 C-6.07152378 24.33927502 -6.07152378 24.33927502 -9.41796875 26.09765625 C-9.85753906 26.64292969 -10.29710937 27.18820313 -10.75 27.75 C-12.386028 28.68102909 -14.0563763 29.55339088 -15.75 30.375 C-16.61625 30.80039063 -17.4825 31.22578125 -18.375 31.6640625 C-20.75 32.75 -20.75 32.75 -23.75 33.75 C-24.3275 34.41 -24.905 35.07 -25.5 35.75 C-28.465282 38.38580622 -30.86820531 38.45140041 -34.75 38.75 C-34.4284 35.74840005 -34.09309589 32.7491978 -33.75 29.75 C-33.60433594 28.45835938 -33.45867187 27.16671875 -33.30859375 25.8359375 C-33.14373992 24.43223159 -32.97837243 23.02858591 -32.8125 21.625 C-32.73789551 20.95662109 -32.66329102 20.28824219 -32.58642578 19.59960938 C-32.04589688 15.11178255 -31.28532629 10.99093625 -29.75 6.75 C-26.8125 5.5 -26.8125 5.5 -23.75 4.75 C-23.0384375 3.9765625 -23.0384375 3.9765625 -22.3125 3.1875 C-19.81512791 0.88991768 -17.0496234 1.08555492 -13.75 0.75 C-12.84378906 0.57210937 -11.93757813 0.39421875 -11.00390625 0.2109375 C-7.281568 -0.31635651 -3.73409966 -0.24721143 0 0 Z M-16.75 3.75 C-15.265 4.74 -15.265 4.74 -13.75 5.75 C-13.09 5.42 -12.43 5.09 -11.75 4.75 C-13.4 4.42 -15.05 4.09 -16.75 3.75 Z M-19.75 5.75 C-19.75 6.74 -19.75 7.73 -19.75 8.75 C-18.76 8.09 -17.77 7.43 -16.75 6.75 C-17.74 6.42 -18.73 6.09 -19.75 5.75 Z M-23.75 7.75 C-24.74 8.41 -25.73 9.07 -26.75 9.75 C-24.77 9.42 -22.79 9.09 -20.75 8.75 C-21.74 8.42 -22.73 8.09 -23.75 7.75 Z M37.25 11.75 C41.25 12.75 41.25 12.75 41.25 12.75 Z " fill="#DFDAC1" transform="translate(141.75,55.25)"/>
<path d="M0 0 C0.77013428 -0.00261841 1.54026855 -0.00523682 2.33374023 -0.00793457 C14.61483557 -0.01239671 26.15085517 0.84806739 38 4.3125 C39.18980469 4.63605469 40.37960938 4.95960937 41.60546875 5.29296875 C47.03662545 6.9794496 47.03662545 6.9794496 49 8.3125 C49.76953125 10.94140625 49.76953125 10.94140625 50 13.3125 C49.113125 12.631875 48.22625 11.95125 47.3125 11.25 C44.28293919 9.08688561 44.28293919 9.08688561 41.5234375 9.37890625 C38.15604853 10.62473591 37.26168148 12.33587578 35.3125 15.3125 C31.77312592 20.06324685 31.77312592 20.06324685 28.26171875 21.1953125 C25.79801049 21.41136612 23.46548772 21.48427578 21 21.3125 C21 21.6425 21 21.9725 21 22.3125 C20.05125 22.27125 19.1025 22.23 18.125 22.1875 C14.89755144 21.96276182 14.89755144 21.96276182 13 24.3125 C10.95519026 24.99314996 8.88861732 25.60934075 6.8125 26.1875 C2.98443783 27.31067868 -0.44533217 28.34657872 -3.8125 30.5 C-7.55957296 32.63068855 -10.80056146 32.9157391 -15 33.3125 C-15.93497314 33.4045874 -16.86994629 33.4966748 -17.83325195 33.59155273 C-20.97087315 33.89045732 -24.10987245 34.16627244 -27.25 34.4375 C-28.86261719 34.58638672 -28.86261719 34.58638672 -30.5078125 34.73828125 C-31.54164062 34.82722656 -32.57546875 34.91617188 -33.640625 35.0078125 C-34.57422852 35.09047363 -35.50783203 35.17313477 -36.46972656 35.25830078 C-38.87758603 35.30987786 -40.71306288 35.02540738 -43 34.3125 C-42.54177532 30.84308454 -42.10868317 27.63854951 -41 24.3125 C-40.74797406 19.21003853 -40.74797406 19.21003853 -41.625 14.25 C-42.33737962 10.56937197 -41.66996529 8.65243059 -40 5.3125 C-28.58627777 -1.56869715 -12.88651854 0.0421399 0 0 Z M-36 32.3125 C-36 32.6425 -36 32.9725 -36 33.3125 C-32.37 33.3125 -28.74 33.3125 -25 33.3125 C-25 32.9825 -25 32.6525 -25 32.3125 C-28.63 32.3125 -32.26 32.3125 -36 32.3125 Z " fill="#F0EACF" transform="translate(141,118.6875)"/>
<path d="M0 0 C1.98 0.33 3.96 0.66 6 1 C6.6875 3.3125 6.6875 3.3125 7 6 C5.15148474 8.62683748 2.81305654 9.59347173 0 11 C-0.495 11.495 -0.99 11.99 -1.5 12.5 C-3.18533173 14.18533173 -4.83768845 15.03068793 -7 16 C-7 16.99 -7 17.98 -7 19 C-8.546875 19.0928125 -8.546875 19.0928125 -10.125 19.1875 C-14.92489447 20.19392948 -16.39195122 21.79284553 -20 25 C-22.25 25.875 -22.25 25.875 -24 26 C-24.66 25.67 -25.32 25.34 -26 25 C-26.33 25.66 -26.66 26.32 -27 27 C-31.66666667 27 -36.33333333 27 -41 27 C-41 26.67 -41 26.34 -41 26 C-44.63 26 -48.26 26 -52 26 C-52.22283503 21.20904681 -51.93224324 17.45428791 -48.88671875 13.5859375 C-46.09811939 11.24189746 -42.90653988 9.82973707 -39.625 8.3125 C-38.965 7.99216797 -38.305 7.67183594 -37.625 7.34179688 C-33.89076462 5.59741799 -31.10276312 4.73917142 -27 5 C-26.37351562 4.84305664 -25.74703125 4.68611328 -25.1015625 4.52441406 C-20.98540185 3.49728661 -16.60672409 3.63303011 -12.375 3.48242188 C-7.91649314 3.27367553 -4.206654 2.64927546 0 1 C0 0.67 0 0.34 0 0 Z M-9 16 C-8 18 -8 18 -8 18 Z M-31 23 C-31 23.33 -31 23.66 -31 24 C-28.69 24 -26.38 24 -24 24 C-24 23.67 -24 23.34 -24 23 C-26.31 23 -28.62 23 -31 23 Z M-37 24 C-37 24.33 -37 24.66 -37 25 C-35.35 25 -33.7 25 -32 25 C-32 24.67 -32 24.34 -32 24 C-33.65 24 -35.3 24 -37 24 Z " fill="#D2CDB6" transform="translate(97,96)"/>
<path d="M0 0 C1.76923828 0.01353516 1.76923828 0.01353516 3.57421875 0.02734375 C4.47785156 0.03894531 5.38148437 0.05054688 6.3125 0.0625 C6.90982819 2.82514289 7.3125 5.22282769 7.3125 8.0625 C10.20629446 7.21841877 10.20629446 7.21841877 12.1875 5.9375 C14.3125 5.0625 14.3125 5.0625 16.51953125 5.50390625 C19.78071112 6.15614222 22.80179945 6.15856768 26.125 6.125 C27.86716797 6.11146484 27.86716797 6.11146484 29.64453125 6.09765625 C30.52496094 6.08605469 31.40539062 6.07445312 32.3125 6.0625 C29.63157309 8.74342691 27.92082637 8.44920257 24.1875 8.6875 C23.09179688 8.76226562 21.99609375 8.83703125 20.8671875 8.9140625 C20.02414063 8.96304688 19.18109375 9.01203125 18.3125 9.0625 C18.8075 9.97 19.3025 10.8775 19.8125 11.8125 C21.3125 15.0625 21.3125 15.0625 21.3125 19.0625 C20.62542969 19.12308594 19.93835938 19.18367188 19.23046875 19.24609375 C17.87888672 19.37177734 17.87888672 19.37177734 16.5 19.5 C15.16001953 19.62181641 15.16001953 19.62181641 13.79296875 19.74609375 C11.18506441 19.99739767 11.18506441 19.99739767 8.3125 21.0625 C5.9718935 20.78480092 3.63625692 20.45710023 1.3125 20.0625 C0.9825 19.0725 0.6525 18.0825 0.3125 17.0625 C-0.3475 17.0625 -1.0075 17.0625 -1.6875 17.0625 C-2.0175 14.4225 -2.3475 11.7825 -2.6875 9.0625 C-4.6675 9.0625 -6.6475 9.0625 -8.6875 9.0625 C-9.0175 6.4225 -9.3475 3.7825 -9.6875 1.0625 C-6.26517028 -0.07827657 -3.60076783 -0.03565117 0 0 Z M15.3125 12.0625 C14.9825 12.7225 14.6525 13.3825 14.3125 14.0625 C14.9725 14.0625 15.6325 14.0625 16.3125 14.0625 C15.9825 13.4025 15.6525 12.7425 15.3125 12.0625 Z " fill="#AAA693" transform="translate(105.6875,162.9375)"/>
<path d="M0 0 C0.2475 0.639375 0.495 1.27875 0.75 1.9375 C1.76510948 4.15307407 1.76510948 4.15307407 3.7265625 4.44921875 C4.47679687 4.63097656 5.22703125 4.81273438 6 5 C7.89945163 5.90890665 9.77355045 6.87192356 11.625 7.875 C12.58664063 8.38804688 13.54828125 8.90109375 14.5390625 9.4296875 C17 11 17 11 19 14 C20.2065625 14.433125 20.2065625 14.433125 21.4375 14.875 C24 16 24 16 25.33203125 18.25 C27.26709713 21.44036623 29.52805604 23.57792953 32.25 26.125 C39.58767794 33.21480805 46.24319089 41.58327071 47.3125 52.0625 C46.70595677 57.76400633 43.24443617 61.36191185 39 65 C36.1875 65.8125 36.1875 65.8125 34 66 C33.67 65.34 33.34 64.68 33 64 C33.66 64 34.32 64 35 64 C35 63.01 35 62.02 35 61 C34.34 61 33.68 61 33 61 C32.34 59.35 31.68 57.7 31 56 C31.66 56 32.32 56 33 56 C33 56.66 33 57.32 33 58 C36.55780196 57.39009109 39.6828589 56.4216319 43 55 C43.82965742 47.36715178 40.73652294 41.65268926 36.21484375 35.6171875 C32.76289059 31.39652457 32.76289059 31.39652457 28 29 C27.731875 28.4225 27.46375 27.845 27.1875 27.25 C25.14602263 23.38193762 21.76206816 20.69342035 17.70703125 19.09765625 C14.38779722 17.75176193 11.53308174 15.96526273 8.5 14.0625 C6.84484375 13.02802734 6.84484375 13.02802734 5.15625 11.97265625 C3.59390625 10.99619141 3.59390625 10.99619141 2 10 C0.33590443 8.99572727 -1.32976963 7.99403636 -3 7 C-2.67 6.34 -2.34 5.68 -2 5 C-1.34 5 -0.68 5 0 5 C0 3.35 0 1.7 0 0 Z " fill="#BBB9A8" transform="translate(208,85)"/>
<path d="M0 0 C2 3 2 3 1.46875 5.78125 C0.88183165 9.81142269 1.84973937 11.81324754 3.5 15.5 C5.61328616 20.2211712 6.28080731 22.9377616 5 28 C1.91631563 26.45815781 0.54692601 23.61853027 -1.3671875 20.8125 C-3.2735729 18.69632099 -4.21064757 18.34209039 -7 18 C-8.41534778 17.93543121 -9.83337689 17.91388961 -11.25 17.9375 C-12.4875 17.958125 -13.725 17.97875 -15 18 C-14 16 -14 16 -13 15 C-14.65 14.67 -16.3 14.34 -18 14 C-17.34 13.67 -16.68 13.34 -16 13 C-16 9.37 -16 5.74 -16 2 C-15.67 2 -15.34 2 -15 2 C-15 4.31 -15 6.62 -15 9 C-11.95865509 7.33075929 -11.95865509 7.33075929 -11 5 C-10.01 4.67 -9.02 4.34 -8 4 C-8 3.01 -8 2.02 -8 1 C-7.34 1 -6.68 1 -6 1 C-5.67 1.99 -5.34 2.98 -5 4 C-3.01508358 3.73323796 -3.01508358 3.73323796 -1 3 C-0.67 2.01 -0.34 1.02 0 0 Z M-10 7 C-9 9 -9 9 -9 9 Z M-12 15 C-8 16 -8 16 -8 16 Z " fill="#D6D2BA" transform="translate(193,171)"/>
<path d="M0 0 C3.76127491 0.10165608 4.98989184 0.99079034 7.8125 3.5625 C8.534375 4.366875 9.25625 5.17125 10 6 C9.68289062 6.70511719 9.36578125 7.41023437 9.0390625 8.13671875 C7.95461714 11.12505879 7.6035641 13.65069658 7.375 16.8125 C7.30023438 17.78832031 7.22546875 18.76414063 7.1484375 19.76953125 C7.09945312 20.50558594 7.05046875 21.24164063 7 22 C6.34 22 5.68 22 5 22 C4.67 23.98 4.34 25.96 4 28 C1.69 27.34 -0.62 26.68 -3 26 C-2.979375 25.13375 -2.95875 24.2675 -2.9375 23.375 C-2.91221725 20.01466956 -2.91221725 20.01466956 -3.5625 16.8125 C-4 14 -4 14 -3 11 C-2.01 11 -1.02 11 0 11 C-0.66 10.01 -1.32 9.02 -2 8 C-3.485 10.475 -3.485 10.475 -5 13 C-6.32 12.67 -7.64 12.34 -9 12 C-8.525625 11.38125 -8.05125 10.7625 -7.5625 10.125 C-5.97582559 8.09294454 -5.97582559 8.09294454 -5 6 C-4.34 6 -3.68 6 -3 6 C-2.814375 5.071875 -2.814375 5.071875 -2.625 4.125 C-2 2 -2 2 0 0 Z M1 6 C1 7.98 1 9.96 1 12 C1.33 12 1.66 12 2 12 C2 10.02 2 8.04 2 6 C1.67 6 1.34 6 1 6 Z M5 10 C6 13 6 13 6 13 Z M4 14 C5 16 5 16 5 16 Z M6 14 C7 16 7 16 7 16 Z " fill="#747165" transform="translate(181,127)"/>
<path d="M0 0 C0.2475 0.639375 0.495 1.27875 0.75 1.9375 C1.76510948 4.15307407 1.76510948 4.15307407 3.7265625 4.44921875 C4.47679687 4.63097656 5.22703125 4.81273438 6 5 C7.89945163 5.90890665 9.77355045 6.87192356 11.625 7.875 C12.58664063 8.38804688 13.54828125 8.90109375 14.5390625 9.4296875 C17 11 17 11 19 14 C21.55183404 15.20450304 21.55183404 15.20450304 24 16 C24 16.99 24 17.98 24 19 C21.10817534 19.92321163 18.9484283 20.39959285 16.08544922 19.19335938 C13.97930854 17.95039111 11.95651032 16.62993982 9.9375 15.25 C8.55084784 14.33844036 7.16413061 13.42697971 5.77734375 12.515625 C4.80643799 11.8649707 4.80643799 11.8649707 3.81591797 11.20117188 C1.58669808 9.72661395 -0.69303367 8.34910312 -3 7 C-2.67 6.34 -2.34 5.68 -2 5 C-1.34 5 -0.68 5 0 5 C0 3.35 0 1.7 0 0 Z " fill="#605E54" transform="translate(208,85)"/>
<path d="M0 0 C1.65 0 3.3 0 5 0 C5.84584998 1.55575978 6.67618399 3.1199612 7.5 4.6875 C7.9640625 5.55761719 8.428125 6.42773438 8.90625 7.32421875 C10.04818792 10.11788829 10.21504208 12.01629113 10 15 C7.88200016 14.54614289 6.10488304 14.05605818 4.1875 13.03125 C1.71341793 11.86489703 -0.56364961 11.36985402 -3.25 10.875 C-4.14203125 10.70742187 -5.0340625 10.53984375 -5.953125 10.3671875 C-6.96632812 10.18542969 -6.96632812 10.18542969 -8 10 C-8 9.34 -8 8.68 -8 8 C-7.01 7.34 -6.02 6.68 -5 6 C-4.67 5.67 -4.34 5.34 -4 5 C-4.66 4.34 -5.32 3.68 -6 3 C-5.195625 2.87625 -4.39125 2.7525 -3.5625 2.625 C-2.716875 2.41875 -1.87125 2.2125 -1 2 C-0.67 1.34 -0.34 0.68 0 0 Z M-5 9 C-5 9.33 -5 9.66 -5 10 C-2.69 10 -0.38 10 2 10 C2 9.67 2 9.34 2 9 C-0.31 9 -2.62 9 -5 9 Z " fill="#A9A593" transform="translate(197,201)"/>
<path d="M0 0 C1.02673828 0.24556641 1.02673828 0.24556641 2.07421875 0.49609375 C5.3743278 1.06447034 8.46554069 1.09630767 11.8125 1.0625 C13.55466797 1.04896484 13.55466797 1.04896484 15.33203125 1.03515625 C16.21246094 1.02355469 17.09289062 1.01195312 18 1 C15.31907309 3.68092691 13.60832637 3.38670257 9.875 3.625 C8.77929688 3.69976562 7.68359375 3.77453125 6.5546875 3.8515625 C5.29011719 3.92503906 5.29011719 3.92503906 4 4 C4.495 4.9075 4.99 5.815 5.5 6.75 C7 10 7 10 7 14 C6.31292969 14.06058594 5.62585938 14.12117187 4.91796875 14.18359375 C4.01691406 14.26738281 3.11585937 14.35117188 2.1875 14.4375 C0.84751953 14.55931641 0.84751953 14.55931641 -0.51953125 14.68359375 C-3.12743559 14.93489767 -3.12743559 14.93489767 -6 16 C-8.1875 15.0625 -8.1875 15.0625 -10 14 C-8.68 14 -7.36 14 -6 14 C-6 13.01 -6 12.02 -6 11 C-6.99 11 -7.98 11 -9 11 C-9 10.34 -9 9.68 -9 9 C-7.88625 9.020625 -6.7725 9.04125 -5.625 9.0625 C-2.16784079 9.26380718 -2.16784079 9.26380718 0 8 C0.66 8.33 1.32 8.66 2 9 C2 7.68 2 6.36 2 5 C1.01 5 0.02 5 -1 5 C-0.67 3.35 -0.34 1.7 0 0 Z " fill="#949281" transform="translate(120,168)"/>
<path d="M0 0 C0.99 0 1.98 0 3 0 C3 0.66 3 1.32 3 2 C3.92232422 1.87431641 3.92232422 1.87431641 4.86328125 1.74609375 C5.67152344 1.64425781 6.47976562 1.54242188 7.3125 1.4375 C8.11300781 1.33308594 8.91351563 1.22867188 9.73828125 1.12109375 C12 1 12 1 15 2 C14 5 14 5 12 6 C9.3276379 6.13415472 6.67749512 6.04318541 4 6 C4 6.66 4 7.32 4 8 C4.99 8 5.98 8 7 8 C7 8.99 7 9.98 7 11 C4.69 11.33 2.38 11.66 0 12 C0 8.04 0 4.08 0 0 Z " fill="#ECE8CE" transform="translate(107,171)"/>
<path d="M0 0 C9.04878118 0.32557649 17.44005755 0.72829123 26 4 C25.34 5.32 24.68 6.64 24 8 C16.47405131 7.39792411 9.05979904 5.68680016 2 3 C1.34 2.01 0.68 1.02 0 0 Z " fill="#7C796C" transform="translate(134,55)"/>
<path d="M0 0 C0.33 0 0.66 0 1 0 C2.42433697 7.87675507 2.42433697 7.87675507 0.9375 11.8125 C-1.47660597 14.53810352 -3.78215806 16.29257366 -7 18 C-9.375 17.75 -9.375 17.75 -11 17 C-10.34 16.67 -9.68 16.34 -9 16 C-9 15.01 -9 14.02 -9 13 C-9.66 13 -10.32 13 -11 13 C-11.66 11.35 -12.32 9.7 -13 8 C-12.34 8 -11.68 8 -11 8 C-11 8.66 -11 9.32 -11 10 C-7.44219804 9.39009109 -4.3171411 8.4216319 -1 7 C-0.67 4.69 -0.34 2.38 0 0 Z " fill="#646258" transform="translate(252,133)"/>
<path d="M0 0 C2.475 0.495 2.475 0.495 5 1 C5.20496094 1.62648437 5.40992188 2.25296875 5.62109375 2.8984375 C5.89050781 3.71570313 6.15992188 4.53296875 6.4375 5.375 C6.83775391 6.59316406 6.83775391 6.59316406 7.24609375 7.8359375 C7.95179729 10.01031799 7.95179729 10.01031799 9 12 C8.34 12.66 7.68 13.32 7 14 C5.02 13.34 3.04 12.68 1 12 C1.020625 11.13375 1.04125 10.2675 1.0625 9.375 C1.00261044 6.14096352 0.60419067 3.17200103 0 0 Z " fill="#737165" transform="translate(177,141)"/>
<path d="M0 0 C0.33 0.66 0.66 1.32 1 2 C2.64363134 2.72159424 4.31050386 3.39351421 6 4 C6 4.99 6 5.98 6 7 C2.87871585 8.01441735 0.83372004 8.40042468 -2.1796875 6.953125 C-4.16907375 5.69294439 -6.1013456 4.39266782 -8 3 C-7.67 2.01 -7.34 1.02 -7 0 C-4.05610218 -1.17755913 -3.10046087 -1.03348696 0 0 Z " fill="#727065" transform="translate(226,97)"/>
<path d="M0 0 C1.02673828 0.24556641 1.02673828 0.24556641 2.07421875 0.49609375 C5.3743278 1.06447034 8.46554069 1.09630767 11.8125 1.0625 C13.55466797 1.04896484 13.55466797 1.04896484 15.33203125 1.03515625 C16.21246094 1.02355469 17.09289062 1.01195312 18 1 C15.31907309 3.68092691 13.60832637 3.38670257 9.875 3.625 C8.77929688 3.69976562 7.68359375 3.77453125 6.5546875 3.8515625 C5.29011719 3.92503906 5.29011719 3.92503906 4 4 C4.7425 5.423125 4.7425 5.423125 5.5 6.875 C7 10 7 10 7 12 C4.03 11.505 4.03 11.505 1 11 C1.33 9.02 1.66 7.04 2 5 C1.01 5 0.02 5 -1 5 C-0.67 3.35 -0.34 1.7 0 0 Z " fill="#CAC7B2" transform="translate(120,168)"/>
<path d="M0 0 C2.375 0.3125 2.375 0.3125 5 1 C5.66 1.99 6.32 2.98 7 4 C6.39248261 5.68912547 5.71608673 7.35396172 5 9 C4.7240522 10.92903132 4.51550097 12.8689032 4.375 14.8125 C4.30023438 15.78832031 4.22546875 16.76414063 4.1484375 17.76953125 C4.09945312 18.50558594 4.05046875 19.24164063 4 20 C3.67 20 3.34 20 3 20 C2.51171875 17.98177083 2.0234375 15.96354167 1.53515625 13.9453125 C1.05153008 11.9414343 1.05153008 11.9414343 0 10 C0.33 9.01 0.66 8.02 1 7 C1.66 7 2.32 7 3 7 C2.505 6.5875 2.01 6.175 1.5 5.75 C0 4 0 4 0 0 Z M2 8 C3 11 3 11 3 11 Z M3 12 C4 14 4 14 4 14 Z " fill="#716F64" transform="translate(184,129)"/>
<path d="M0 0 C0.33 0.99 0.66 1.98 1 3 C0.38125 2.814375 -0.2375 2.62875 -0.875 2.4375 C-3.04160178 1.76313824 -3.04160178 1.76313824 -5 3 C-5.33 3.66 -5.66 4.32 -6 5 C-6.99 4.67 -7.98 4.34 -9 4 C-9.598125 4.33 -10.19625 4.66 -10.8125 5 C-13.81103588 6.37075926 -15.85293749 5.71524148 -19 5 C-18.443125 4.7525 -17.88625 4.505 -17.3125 4.25 C-14.85813263 3.07255533 -14.85813263 3.07255533 -12.875 0.8125 C-8.58010582 -1.89515068 -4.83974597 -0.86457598 0 0 Z " fill="#67655A" transform="translate(131,58)"/>
<path d="M0 0 C0.33 0 0.66 0 1 0 C1 2.31 1 4.62 1 7 C2.32 7.66 3.64 8.32 5 9 C5 9.66 5 10.32 5 11 C5.99 11.33 6.98 11.66 8 12 C6.68 12 5.36 12 4 12 C4 12.66 4 13.32 4 14 C5.98 13.67 7.96 13.34 10 13 C10.33 13.99 10.66 14.98 11 16 C7.7 16 4.4 16 1 16 C2 14 2 14 3 13 C1.35 12.67 -0.3 12.34 -2 12 C-1.34 11.67 -0.68 11.34 0 11 C0 7.37 0 3.74 0 0 Z " fill="#757367" transform="translate(177,173)"/>
<path d="M0 0 C3.87511727 0.54984772 5.59576506 2.27555331 8.25 5.0625 C8.95640625 5.79597656 9.6628125 6.52945313 10.390625 7.28515625 C10.92171875 7.85105469 11.4528125 8.41695312 12 9 C11.01 10.485 11.01 10.485 10 12 C6.47130219 10.58852088 5.58544049 9.36906104 4 6 C3.29875 5.29875 2.5975 4.5975 1.875 3.875 C1.25625 3.25625 0.6375 2.6375 0 2 C0 1.34 0 0.68 0 0 Z " fill="#B9B6A4" transform="translate(230,104)"/>
<path d="M0 0 C0.33 0 0.66 0 1 0 C1.28875 1.093125 1.5775 2.18625 1.875 3.3125 C2.81893204 7.04013845 2.81893204 7.04013845 5 10 C5.25 13.0625 5.25 13.0625 5 16 C4.34 16.66 3.68 17.32 3 18 C2.81824219 17.37351563 2.63648438 16.74703125 2.44921875 16.1015625 C2.07216797 14.87566406 2.07216797 14.87566406 1.6875 13.625 C1.32205078 12.40683594 1.32205078 12.40683594 0.94921875 11.1640625 C0.08631815 8.66815371 0.08631815 8.66815371 -3 7 C-3 6.34 -3 5.68 -3 5 C-2.01 5 -1.02 5 0 5 C-0.2784375 4.0409375 -0.2784375 4.0409375 -0.5625 3.0625 C-0.706875 2.381875 -0.85125 1.70125 -1 1 C-0.67 0.67 -0.34 0.34 0 0 Z " fill="#636156" transform="translate(181,133)"/>
<path d="M0 0 C-1.19897022 6.71423321 -3.61444119 10.8145594 -8 16 C-8.66 15.34 -9.32 14.68 -10 14 C-9.65066406 13.48050781 -9.30132812 12.96101562 -8.94140625 12.42578125 C-6.43322811 8.58180285 -4.69697357 5.60002557 -4 1 C-2 0 -2 0 0 0 Z " fill="#6C6A5F" transform="translate(193,143)"/>
<path d="M0 0 C0.66 0 1.32 0 2 0 C4 3 4 3 5 5 C5.99 5.33 6.98 5.66 8 6 C7.01 6.33 6.02 6.66 5 7 C3.33289654 8.49985609 3.33289654 8.49985609 2 10 C0.5 8.8125 0.5 8.8125 -1 7 C-1.27570202 4.17405433 -1.27433584 2.54867169 0 0 Z " fill="#918F80" transform="translate(173,155)"/>
<path d="M0 0 C0.33 0 0.66 0 1 0 C2.45295405 8.03501094 2.45295405 8.03501094 0.5625 12.0625 C0.046875 12.701875 -0.46875 13.34125 -1 14 C-2.98 13.34 -4.96 12.68 -7 12 C-6.67 11.01 -6.34 10.02 -6 9 C-3.4375 7.8125 -3.4375 7.8125 -1 7 C-0.67 4.69 -0.34 2.38 0 0 Z " fill="#6E6D62" transform="translate(252,133)"/>
<path d="M0 0 C2.25 0.8125 2.25 0.8125 4 2 C4.33 2.99 4.66 3.98 5 5 C1.29218282 6.23593906 0.47018032 5.56984348 -3 4 C-3.928125 3.62875 -4.85625 3.2575 -5.8125 2.875 C-6.534375 2.58625 -7.25625 2.2975 -8 2 C-4.73036051 -0.17975966 -3.78270322 -0.36904422 0 0 Z " fill="#4C4A42" transform="translate(189,82)"/>
<path d="M0 0 C1.60495567 0.11442461 3.20898119 0.24194694 4.8125 0.375 C5.70582031 0.44460937 6.59914062 0.51421875 7.51953125 0.5859375 C10 1 10 1 13 3 C12.34 3 11.68 3 11 3 C11 3.66 11 4.32 11 5 C9.53890937 4.74445946 8.08111904 4.46999628 6.625 4.1875 C5.81289062 4.03667969 5.00078125 3.88585938 4.1640625 3.73046875 C2 3 2 3 0 0 Z " fill="#848173" transform="translate(134,55)"/>
<path d="M0 0 C-1 3 -1 3 -3 4 C-5.6723621 4.13415472 -8.32250488 4.04318541 -11 4 C-7.39987093 0.15158617 -5.25169925 -1.6298377 0 0 Z " fill="#F7F3D9" transform="translate(122,173)"/>
<path d="M0 0 C1.07310858 3.27185553 0.89263102 5.42947592 0.0625 8.75 C-0.22947266 9.94882813 -0.22947266 9.94882813 -0.52734375 11.171875 C-0.68332031 11.77515625 -0.83929688 12.3784375 -1 13 C-1.33 13 -1.66 13 -2 13 C-2.33 9.04 -2.66 5.08 -3 1 C-2.01 0.67 -1.02 0.34 0 0 Z " fill="#DAD6BF" transform="translate(192,133)"/>
<path d="M0 0 C0.99 0 1.98 0 3 0 C3 1.32 3 2.64 3 4 C3.99 4.33 4.98 4.66 6 5 C5.34 6.65 4.68 8.3 4 10 C3.34 10 2.68 10 2 10 C2 7.69 2 5.38 2 3 C0.68 2.67 -0.64 2.34 -2 2 C-1.34 1.34 -0.68 0.68 0 0 Z " fill="#EAE7D1" transform="translate(181,129)"/>
<path d="M0 0 C0.99 0.66 1.98 1.32 3 2 C-2.14285714 6.42857143 -2.14285714 6.42857143 -6 7 C-6 6.34 -6 5.68 -6 5 C-6.99 4.34 -7.98 3.68 -9 3 C-7.56879256 2.44191911 -6.12969645 1.90403538 -4.6875 1.375 C-3.88699219 1.07335937 -3.08648437 0.77171875 -2.26171875 0.4609375 C-1.51535156 0.30882813 -0.76898438 0.15671875 0 0 Z " fill="#5F5C52" transform="translate(79,115)"/>
<path d="M0 0 C1.02673828 0.24556641 1.02673828 0.24556641 2.07421875 0.49609375 C5.3743278 1.06447034 8.46554069 1.09630767 11.8125 1.0625 C13.55466797 1.04896484 13.55466797 1.04896484 15.33203125 1.03515625 C16.21246094 1.02355469 17.09289062 1.01195312 18 1 C15.27967714 3.72032286 13.41955477 3.46007896 9.625 3.75 C7.91183594 3.89695313 7.91183594 3.89695313 6.1640625 4.046875 C3.06479078 4.00095986 1.57004455 3.64584134 -1 2 C-0.67 1.34 -0.34 0.68 0 0 Z " fill="#777467" transform="translate(120,168)"/>
<path d="M0 0 C2.475 0.495 2.475 0.495 5 1 C5.33 2.65 5.66 4.3 6 6 C4.02 5.34 2.04 4.68 0 4 C0 2.68 0 1.36 0 0 Z " fill="#E2E0CA" transform="translate(177,141)"/>
<path d="M0 0 C0 0.66 0 1.32 0 2 C2.97 2 5.94 2 9 2 C9 2.33 9 2.66 9 3 C8.18015625 2.98839844 7.3603125 2.97679688 6.515625 2.96484375 C5.43796875 2.95582031 4.3603125 2.94679688 3.25 2.9375 C2.18265625 2.92589844 1.1153125 2.91429688 0.015625 2.90234375 C-2.53368501 2.98489913 -4.57933591 3.25382442 -7 4 C-6.67 3.01 -6.34 2.02 -6 1 C-3.90006779 0.25486277 -2.22568901 0 0 0 Z " fill="#1A1916" transform="translate(137,86)"/>
<path d="M0 0 C0.66 0 1.32 0 2 0 C2.33 2.31 2.66 4.62 3 7 C1.68 6.67 0.36 6.34 -1 6 C-0.67 4.02 -0.34 2.04 0 0 Z " fill="#9A9888" transform="translate(204,209)"/>
<path d="M0 0 C1 3.875 1 3.875 1 5 C-0.98 5 -2.96 5 -5 5 C-5.33 4.34 -5.66 3.68 -6 3 C-5.34 3 -4.68 3 -4 3 C-4 2.34 -4 1.68 -4 1 C-2.68 0.67 -1.36 0.34 0 0 Z " fill="#F6F2D7" transform="translate(181,161)"/>
<path d="M0 0 C1.65 0 3.3 0 5 0 C5.66 1.32 6.32 2.64 7 4 C3.7 3.67 0.4 3.34 -3 3 C-2.01 2.67 -1.02 2.34 0 2 C0 1.34 0 0.68 0 0 Z " fill="#D1CEB8" transform="translate(174,77)"/>
<path d="M0 0 C2 3 2 3 1.625 6.1875 C1.41875 7.115625 1.2125 8.04375 1 9 C-1 8 -1 8 -1.75 6.1875 C-2.05694702 3.50171361 -1.38111722 2.2747813 0 0 Z " fill="#989686" transform="translate(197,190)"/>
<path d="M0 0 C-0.66 0.66 -1.32 1.32 -2 2 C-2.69748583 3.31747324 -3.36959957 4.64914193 -4 6 C-5.32 4.68 -6.64 3.36 -8 2 C-4.77208445 -0.1519437 -3.71599191 -0.20086443 0 0 Z " fill="#737063" transform="translate(117,187)"/>
<path d="M0 0 C0.99 0.33 1.98 0.66 3 1 C1.1875 4 1.1875 4 -1 7 C-1.99 7 -2.98 7 -4 7 C-2.68 4.69 -1.36 2.38 0 0 Z " fill="#999787" transform="translate(187,151)"/>
<path d="M0 0 C2.62187494 1.04874998 3.79371361 1.64931313 5.25 4.125 C5.4975 4.74375 5.745 5.3625 6 6 C3 6 3 6 1.3125 4.6875 C0 3 0 3 0 0 Z " fill="#C5C3AF" transform="translate(241,114)"/>
<path d="M0 0 C1.32 0.33 2.64 0.66 4 1 C4 2.32 4 3.64 4 5 C2.68 5 1.36 5 0 5 C0 3.35 0 1.7 0 0 Z " fill="#C1BEAB" transform="translate(178,148)"/>
<path d="M0 0 C1.32 0.66 2.64 1.32 4 2 C-0.455 3.485 -0.455 3.485 -5 5 C-3 2 -3 2 0 0 Z " fill="#141411" transform="translate(142,143)"/>
<path d="M0 0 C1.9375 0.375 1.9375 0.375 4 1 C4.33 1.66 4.66 2.32 5 3 C4.34 3.66 3.68 4.32 3 5 C1.68 4.34 0.36 3.68 -1 3 C-0.67 2.01 -0.34 1.02 0 0 Z " fill="#949282" transform="translate(237,111)"/>
<path d="M0 0 C0.99 0.33 1.98 0.66 3 1 C1.35 2.65 -0.3 4.3 -2 6 C-2.66 5.34 -3.32 4.68 -4 4 C-2.68 2.68 -1.36 1.36 0 0 Z " fill="#141411" transform="translate(50,108)"/>
<path d="M0 0 C1.32 0.66 2.64 1.32 4 2 C2.75 3.5625 2.75 3.5625 1 5 C-1.1875 4.6875 -1.1875 4.6875 -3 4 C-2.01 2.68 -1.02 1.36 0 0 Z " fill="#65645A" transform="translate(229,100)"/>
<path d="M0 0 C2.97 0.495 2.97 0.495 6 1 C5.34 2.32 4.68 3.64 4 5 C3.67 4.34 3.34 3.68 3 3 C0.97536745 2.34786708 0.97536745 2.34786708 -1 2 C-0.67 1.34 -0.34 0.68 0 0 Z " fill="#928F80" transform="translate(97,96)"/>
<path d="M0 0 C0.33 0 0.66 0 1 0 C1.12375 0.969375 1.2475 1.93875 1.375 2.9375 C1.684375 4.4534375 1.684375 4.4534375 2 6 C2.66 6.33 3.32 6.66 4 7 C2.625 8.5 2.625 8.5 1 10 C0.34 10 -0.32 10 -1 10 C-0.67 6.7 -0.34 3.4 0 0 Z " fill="#292823" transform="translate(105,89)"/>
<path d="M0 0 C2.64 0.33 5.28 0.66 8 1 C8 1.66 8 2.32 8 3 C6.35 3 4.7 3 3 3 C3 2.34 3 1.68 3 1 C2.01 0.67 1.02 0.34 0 0 Z " fill="#35342D" transform="translate(134,80)"/>
<path d="M0 0 C2.64 0 5.28 0 8 0 C7.67 1.32 7.34 2.64 7 4 C6.67 3.34 6.34 2.68 6 2 C2.97065509 1.34227572 2.97065509 1.34227572 0 1 C0 0.67 0 0.34 0 0 Z " fill="#191815" transform="translate(47,122)"/>
<path d="M0 0 C3.3 0 6.6 0 10 0 C10 0.33 10 0.66 10 1 C6.7 1 3.4 1 0 1 C0 0.67 0 0.34 0 0 Z " fill="#010101" transform="translate(81,98)"/>
<path d="M0 0 C0.33 0 0.66 0 1 0 C1 3.3 1 6.6 1 10 C0.67 10 0.34 10 0 10 C0 6.7 0 3.4 0 0 Z " fill="#030202" transform="translate(107,74)"/>
<path d="M0 0 C2.97 0 5.94 0 9 0 C9 0.33 9 0.66 9 1 C6.03 1 3.06 1 0 1 C0 0.67 0 0.34 0 0 Z " fill="#020202" transform="translate(125,168)"/>
<path d="M0 0 C2.97 0 5.94 0 9 0 C9 0.33 9 0.66 9 1 C6.03 1 3.06 1 0 1 C0 0.67 0 0.34 0 0 Z " fill="#010101" transform="translate(209,158)"/>
<path d="M0 0 C2.97 0 5.94 0 9 0 C9 0.33 9 0.66 9 1 C6.03 1 3.06 1 0 1 C0 0.67 0 0.34 0 0 Z " fill="#030303" transform="translate(117,153)"/>
<path d="M0 0 C2.97 0 5.94 0 9 0 C9 0.33 9 0.66 9 1 C6.03 1 3.06 1 0 1 C0 0.67 0 0.34 0 0 Z " fill="#010101" transform="translate(85,131)"/>
<path d="M0 0 C0 0.66 0 1.32 0 2 C-1.98 2 -3.96 2 -6 2 C-2.25 0 -2.25 0 0 0 Z " fill="#141311" transform="translate(164,151)"/>
<path d="M0 0 C0.33 0 0.66 0 1 0 C1 2.64 1 5.28 1 8 C0.67 8 0.34 8 0 8 C0 5.36 0 2.72 0 0 Z " fill="#020201" transform="translate(99,135)"/>
<path d="M0 0 C2.64 0 5.28 0 8 0 C8 0.33 8 0.66 8 1 C5.36 1 2.72 1 0 1 C0 0.67 0 0.34 0 0 Z " fill="#030302" transform="translate(67,129)"/>
<path d="M0 0 C2.31 0 4.62 0 7 0 C7 0.33 7 0.66 7 1 C4.69 1 2.38 1 0 1 C0 0.67 0 0.34 0 0 Z " fill="#010101" transform="translate(101,162)"/>
<path d="M0 0 C0.66 0 1.32 0 2 0 C2 0.99 2 1.98 2 3 C1.01 2.67 0.02 2.34 -1 2 C-0.67 1.34 -0.34 0.68 0 0 Z " fill="#141412" transform="translate(166,153)"/>
<path d="M0 0 C0.33 0 0.66 0 1 0 C1 2.31 1 4.62 1 7 C0.67 7 0.34 7 0 7 C0 4.69 0 2.38 0 0 Z " fill="#020202" transform="translate(250,133)"/>
<path d="M0 0 C2.31 0 4.62 0 7 0 C7 0.33 7 0.66 7 1 C4.69 1 2.38 1 0 1 C0 0.67 0 0.34 0 0 Z " fill="#010101" transform="translate(78,130)"/>
<path d="M0 0 C1.98 0.99 1.98 0.99 4 2 C3.67 2.66 3.34 3.32 3 4 C2.01 2.68 1.02 1.36 0 0 Z " fill="#514F46" transform="translate(241,128)"/>
<path d="M0 0 C2.31 0 4.62 0 7 0 C7 0.33 7 0.66 7 1 C4.69 1 2.38 1 0 1 C0 0.67 0 0.34 0 0 Z " fill="#010100" transform="translate(150,88)"/>
<path d="M0 0 C0.33 0 0.66 0 1 0 C1 1.98 1 3.96 1 6 C0.67 6 0.34 6 0 6 C0 4.02 0 2.04 0 0 Z " fill="#020202" transform="translate(112,194)"/>
<path d="M0 0 C0.33 0 0.66 0 1 0 C1 1.98 1 3.96 1 6 C0.67 6 0.34 6 0 6 C0 4.02 0 2.04 0 0 Z " fill="#020201" transform="translate(129,183)"/>
<path d="M0 0 C0.33 0 0.66 0 1 0 C1 1.98 1 3.96 1 6 C0.67 6 0.34 6 0 6 C0 4.02 0 2.04 0 0 Z " fill="#010101" transform="translate(198,165)"/>
<path d="M0 0 C0.99 0 1.98 0 3 0 C3 0.66 3 1.32 3 2 C2.01 2 1.02 2 0 2 C0 1.34 0 0.68 0 0 Z " fill="#3D3B35" transform="translate(241,139)"/>
<path d="M0 0 C0.33 0 0.66 0 1 0 C1 1.98 1 3.96 1 6 C0.67 6 0.34 6 0 6 C0 4.02 0 2.04 0 0 Z " fill="#020202" transform="translate(256,134)"/>
<path d="M0 0 C0 0.66 0 1.32 0 2 C-1.32 1.67 -2.64 1.34 -4 1 C-2 0 -2 0 0 0 Z " fill="#4C4B42" transform="translate(144,85)"/>
<path d="M0 0 C0.33 0 0.66 0 1 0 C1 1.65 1 3.3 1 5 C0.67 5 0.34 5 0 5 C0 3.35 0 1.7 0 0 Z " fill="#000000" transform="translate(105,230)"/>
<path d="M0 0 C1.65 0 3.3 0 5 0 C5 0.33 5 0.66 5 1 C3.35 1 1.7 1 0 1 C0 0.67 0 0.34 0 0 Z " fill="#020202" transform="translate(186,203)"/>
<path d="M0 0 C1.65 0 3.3 0 5 0 C5 0.33 5 0.66 5 1 C3.35 1 1.7 1 0 1 C0 0.67 0 0.34 0 0 Z " fill="#020201" transform="translate(223,156)"/>
<path d="M0 0 C0.33 0 0.66 0 1 0 C1 1.65 1 3.3 1 5 C0.67 5 0.34 5 0 5 C0 3.35 0 1.7 0 0 Z " fill="#030303" transform="translate(176,148)"/>
<path d="M0 0 C1.65 0 3.3 0 5 0 C5 0.33 5 0.66 5 1 C3.35 1 1.7 1 0 1 C0 0.67 0 0.34 0 0 Z " fill="#020201" transform="translate(91,97)"/>
<path d="M0 0 C0.33 0 0.66 0 1 0 C1 1.65 1 3.3 1 5 C0.67 5 0.34 5 0 5 C0 3.35 0 1.7 0 0 Z " fill="#020201" transform="translate(106,84)"/>
<path d="M0 0 C0.33 0 0.66 0 1 0 C1 1.65 1 3.3 1 5 C0.67 5 0.34 5 0 5 C0 3.35 0 1.7 0 0 Z " fill="#020101" transform="translate(108,69)"/>
<path d="M0 0 C1 4 1 4 1 4 Z " fill="#020201" transform="translate(197,184)"/>
<path d="M0 0 C1 4 1 4 1 4 Z " fill="#010101" transform="translate(194,176)"/>
<path d="M0 0 C1 4 1 4 1 4 Z " fill="#000000" transform="translate(114,164)"/>
<path d="M0 0 C4 1 4 1 4 1 Z " fill="#020202" transform="translate(98,154)"/>
<path d="M0 0 C0.66 0 1.32 0 2 0 C2 0.66 2 1.32 2 2 C1.34 2 0.68 2 0 2 C0 1.34 0 0.68 0 0 Z " fill="#2F2D28" transform="translate(167,150)"/>
<path d="M0 0 C1 4 1 4 1 4 Z " fill="#030303" transform="translate(96,149)"/>
<path d="M0 0 C1 4 1 4 1 4 Z " fill="#010101" transform="translate(175,141)"/>
<path d="M0 0 C1 4 1 4 1 4 Z " fill="#030302" transform="translate(43,116)"/>
<path d="M0 0 C0.99 0.33 1.98 0.66 3 1 C2.01 1 1.02 1 0 1 C0 0.67 0 0.34 0 0 Z " fill="#43413A" transform="translate(211,103)"/>
<path d="M0 0 C0.33 0.99 0.66 1.98 1 3 C0.34 2.67 -0.32 2.34 -1 2 C-0.67 1.34 -0.34 0.68 0 0 Z " fill="#030302" transform="translate(211,87)"/>
<path d="M0 0 C4 1 4 1 4 1 Z " fill="#020202" transform="translate(177,82)"/>
<path d="M0 0 C4 1 4 1 4 1 Z " fill="#010101" transform="translate(173,81)"/>
<path d="M0 0 C4 1 4 1 4 1 Z " fill="#010101" transform="translate(163,62)"/>
<path d="M0 0 C4 1 4 1 4 1 Z " fill="#020202" transform="translate(139,54)"/>
<path d="M0 0 C3 1 3 1 3 1 Z " fill="#030302" transform="translate(120,242)"/>
<path d="" fill="#010101" transform="translate(0,0)"/>
<path d="M0 0 C3 1 3 1 3 1 Z " fill="#020201" transform="translate(176,216)"/>
<path d="M0 0 C3 1 3 1 3 1 Z " fill="#020202" transform="translate(182,214)"/>
<path d="" fill="#020202" transform="translate(0,0)"/>
<path d="M0 0 C3 1 3 1 3 1 Z " fill="#030302" transform="translate(189,212)"/>
<path d="" fill="#010101" transform="translate(0,0)"/>
<path d="M0 0 C3 1 3 1 3 1 Z " fill="#030302" transform="translate(179,205)"/>
<path d="M0 0 C3 1 3 1 3 1 Z " fill="#020201" transform="translate(183,204)"/>
<path d="M0 0 C3 1 3 1 3 1 Z " fill="#030302" transform="translate(193,202)"/>
<path d="" fill="#020201" transform="translate(0,0)"/>
<path d="" fill="#020201" transform="translate(0,0)"/>
<path d="" fill="#010101" transform="translate(0,0)"/>
<path d="" fill="#020202" transform="translate(0,0)"/>
<path d="M0 0 C3 1 3 1 3 1 Z " fill="#010101" transform="translate(228,155)"/>
<path d="M0 0 C3 1 3 1 3 1 Z " fill="#030302" transform="translate(179,154)"/>
<path d="M0 0 C3 1 3 1 3 1 Z " fill="#020201" transform="translate(126,152)"/>
<path d="" fill="#020101" transform="translate(0,0)"/>
<path d="" fill="#020201" transform="translate(0,0)"/>
<path d="M0 0 C3 1 3 1 3 1 Z " fill="#010101" transform="translate(169,140)"/>
<path d="" fill="#010101" transform="translate(0,0)"/>
<path d="" fill="#020201" transform="translate(0,0)"/>
<path d="M0 0 C3 1 3 1 3 1 Z " fill="#010101" transform="translate(75,99)"/>
<path d="M0 0 C3 1 3 1 3 1 Z " fill="#020201" transform="translate(174,94)"/>
<path d="M0 0 C3 1 3 1 3 1 Z " fill="#020201" transform="translate(171,93)"/>
<path d="M0 0 C3 1 3 1 3 1 Z " fill="#35342E" transform="translate(201,90)"/>
<path d="" fill="#010101" transform="translate(0,0)"/>
<path d="M0 0 C3 1 3 1 3 1 Z " fill="#020201" transform="translate(190,69)"/>
<path d="" fill="#020201" transform="translate(0,0)"/>
<path d="M0 0 C3 1 3 1 3 1 Z " fill="#030302" transform="translate(144,55)"/>
<path d="M0 0 C3 1 3 1 3 1 Z " fill="#020202" transform="translate(125,55)"/>
<path d="" fill="#010101" transform="translate(0,0)"/>
<path d="M0 0 C2 1 2 1 2 1 Z " fill="#020202" transform="translate(131,237)"/>
<path d="" fill="#010101" transform="translate(0,0)"/>
<path d="M0 0 C2 1 2 1 2 1 Z " fill="#020202" transform="translate(145,220)"/>
<path d="" fill="#010101" transform="translate(0,0)"/>
<path d="M0 0 C2 1 2 1 2 1 Z " fill="#020202" transform="translate(171,218)"/>
<path d="" fill="#010101" transform="translate(0,0)"/>
<path d="" fill="#010101" transform="translate(0,0)"/>
<path d="" fill="#010101" transform="translate(0,0)"/>
<path d="M0 0 C2 1 2 1 2 1 Z " fill="#010101" transform="translate(171,208)"/>
<path d="M0 0 C2 1 2 1 2 1 Z " fill="#020201" transform="translate(155,202)"/>
<path d="" fill="#010101" transform="translate(0,0)"/>
<path d="M0 0 C2 1 2 1 2 1 Z " fill="#070706" transform="translate(199,200)"/>
<path d="M0 0 C2 1 2 1 2 1 Z " fill="#030302" transform="translate(160,199)"/>
<path d="" fill="#010101" transform="translate(0,0)"/>
<path d="" fill="#010101" transform="translate(0,0)"/>
<path d="" fill="#020202" transform="translate(0,0)"/>
<path d="" fill="#010101" transform="translate(0,0)"/>
<path d="" fill="#020202" transform="translate(0,0)"/>
<path d="" fill="#010101" transform="translate(0,0)"/>
<path d="" fill="#030303" transform="translate(0,0)"/>
<path d="" fill="#030303" transform="translate(0,0)"/>
<path d="" fill="#010101" transform="translate(0,0)"/>
<path d="M0 0 C2 1 2 1 2 1 Z " fill="#010101" transform="translate(101,172)"/>
<path d="" fill="#000000" transform="translate(0,0)"/>
<path d="M0 0 C2 1 2 1 2 1 Z " fill="#010101" transform="translate(240,151)"/>
<path d="M0 0 C2 1 2 1 2 1 Z " fill="#010101" transform="translate(129,151)"/>
<path d="" fill="#030303" transform="translate(0,0)"/>
<path d="" fill="#010101" transform="translate(0,0)"/>
<path d="" fill="#010101" transform="translate(0,0)"/>
<path d="" fill="#010101" transform="translate(0,0)"/>
<path d="" fill="#525047" transform="translate(0,0)"/>
<path d="" fill="#020201" transform="translate(0,0)"/>
<path d="" fill="#020202" transform="translate(0,0)"/>
<path d="" fill="#010101" transform="translate(0,0)"/>
<path d="" fill="#010101" transform="translate(0,0)"/>
<path d="" fill="#010101" transform="translate(0,0)"/>
<path d="" fill="#010101" transform="translate(0,0)"/>
<path d="" fill="#010101" transform="translate(0,0)"/>
<path d="" fill="#010101" transform="translate(0,0)"/>
<path d="" fill="#010101" transform="translate(0,0)"/>
<path d="" fill="#010101" transform="translate(0,0)"/>
<path d="" fill="#010101" transform="translate(0,0)"/>
<path d="M0 0 C2 1 2 1 2 1 Z " fill="#020202" transform="translate(206,110)"/>
<path d="M0 0 C2 1 2 1 2 1 Z " fill="#010101" transform="translate(181,97)"/>
<path d="M0 0 C2 1 2 1 2 1 Z " fill="#020202" transform="translate(179,96)"/>
<path d="M0 0 C2 1 2 1 2 1 Z " fill="#020202" transform="translate(112,96)"/>
<path d="M0 0 C2 1 2 1 2 1 Z " fill="#020202" transform="translate(177,95)"/>
<path d="M0 0 C2 1 2 1 2 1 Z " fill="#010101" transform="translate(114,95)"/>
<path d="M0 0 C2 1 2 1 2 1 Z " fill="#010101" transform="translate(101,95)"/>
<path d="M0 0 C2 1 2 1 2 1 Z " fill="#191816" transform="translate(199,89)"/>
<path d="M0 0 C2 1 2 1 2 1 Z " fill="#010101" transform="translate(197,88)"/>
<path d="" fill="#010101" transform="translate(0,0)"/>
<path d="" fill="#010101" transform="translate(0,0)"/>
<path d="M0 0 C2 1 2 1 2 1 Z " fill="#010101" transform="translate(193,70)"/>
<path d="M0 0 C2 1 2 1 2 1 Z " fill="#010101" transform="translate(168,63)"/>
<path d="M0 0 C2 1 2 1 2 1 Z " fill="#030302" transform="translate(121,55)"/>
<path d="" fill="#010101" transform="translate(0,0)"/>
<path d="" fill="#030302" transform="translate(0,0)"/>
<path d="" fill="#030302" transform="translate(0,0)"/>
<path d="" fill="#000000" transform="translate(0,0)"/>
<path d="" fill="#000000" transform="translate(0,0)"/>
<path d="" fill="#050504" transform="translate(0,0)"/>
<path d="" fill="#040404" transform="translate(0,0)"/>
<path d="" fill="#000000" transform="translate(0,0)"/>
<path d="" fill="#010101" transform="translate(0,0)"/>
<path d="" fill="#040404" transform="translate(0,0)"/>
<path d="" fill="#030303" transform="translate(0,0)"/>
<path d="" fill="#040403" transform="translate(0,0)"/>
<path d="" fill="#060605" transform="translate(0,0)"/>
<path d="" fill="#030303" transform="translate(0,0)"/>
<path d="" fill="#030303" transform="translate(0,0)"/>
<path d="" fill="#040403" transform="translate(0,0)"/>
<path d="" fill="#030302" transform="translate(0,0)"/>
<path d="" fill="#050503" transform="translate(0,0)"/>
<path d="" fill="#040403" transform="translate(0,0)"/>
<path d="" fill="#030303" transform="translate(0,0)"/>
<path d="" fill="#040403" transform="translate(0,0)"/>
<path d="" fill="#050504" transform="translate(0,0)"/>
<path d="" fill="#020202" transform="translate(0,0)"/>
<path d="" fill="#020202" transform="translate(0,0)"/>
<path d="" fill="#020201" transform="translate(0,0)"/>
<path d="" fill="#010101" transform="translate(0,0)"/>
<path d="" fill="#040404" transform="translate(0,0)"/>
<path d="" fill="#030302" transform="translate(0,0)"/>
<path d="" fill="#020202" transform="translate(0,0)"/>
<path d="" fill="#040403" transform="translate(0,0)"/>
<path d="" fill="#030302" transform="translate(0,0)"/>
<path d="" fill="#000000" transform="translate(0,0)"/>
<path d="" fill="#030303" transform="translate(0,0)"/>
<path d="" fill="#010101" transform="translate(0,0)"/>
<path d="" fill="#000000" transform="translate(0,0)"/>
<path d="" fill="#000000" transform="translate(0,0)"/>
<path d="" fill="#030303" transform="translate(0,0)"/>
<path d="" fill="#010101" transform="translate(0,0)"/>
<path d="" fill="#030303" transform="translate(0,0)"/>
<path d="" fill="#060605" transform="translate(0,0)"/>
<path d="" fill="#010101" transform="translate(0,0)"/>
<path d="" fill="#000000" transform="translate(0,0)"/>
<path d="" fill="#010101" transform="translate(0,0)"/>
<path d="" fill="#000000" transform="translate(0,0)"/>
<path d="" fill="#020202" transform="translate(0,0)"/>
<path d="" fill="#010101" transform="translate(0,0)"/>
<path d="" fill="#010101" transform="translate(0,0)"/>
<path d="" fill="#000000" transform="translate(0,0)"/>
<path d="" fill="#020201" transform="translate(0,0)"/>
<path d="" fill="#000000" transform="translate(0,0)"/>
<path d="" fill="#030303" transform="translate(0,0)"/>
<path d="" fill="#070706" transform="translate(0,0)"/>
<path d="" fill="#020202" transform="translate(0,0)"/>
<path d="" fill="#030303" transform="translate(0,0)"/>
<path d="" fill="#030302" transform="translate(0,0)"/>
<path d="" fill="#010101" transform="translate(0,0)"/>
<path d="" fill="#010101" transform="translate(0,0)"/>
<path d="" fill="#000000" transform="translate(0,0)"/>
<path d="" fill="#040403" transform="translate(0,0)"/>
<path d="" fill="#010101" transform="translate(0,0)"/>
<path d="" fill="#000000" transform="translate(0,0)"/>
<path d="" fill="#22211E" transform="translate(0,0)"/>
<path d="" fill="#000000" transform="translate(0,0)"/>
<path d="" fill="#020202" transform="translate(0,0)"/>
<path d="" fill="#020202" transform="translate(0,0)"/>
<path d="" fill="#020202" transform="translate(0,0)"/>
<path d="" fill="#020202" transform="translate(0,0)"/>
<path d="" fill="#010101" transform="translate(0,0)"/>
<path d="" fill="#090A08" transform="translate(0,0)"/>
<path d="" fill="#020202" transform="translate(0,0)"/>
<path d="" fill="#080807" transform="translate(0,0)"/>
<path d="" fill="#4A4840" transform="translate(0,0)"/>
<path d="" fill="#535148" transform="translate(0,0)"/>
<path d="" fill="#3B3A33" transform="translate(0,0)"/>
<path d="" fill="#020202" transform="translate(0,0)"/>
<path d="" fill="#010101" transform="translate(0,0)"/>
<path d="" fill="#020202" transform="translate(0,0)"/>
<path d="" fill="#010101" transform="translate(0,0)"/>
<path d="" fill="#000000" transform="translate(0,0)"/>
<path d="" fill="#040403" transform="translate(0,0)"/>
<path d="" fill="#020202" transform="translate(0,0)"/>
<path d="" fill="#040404" transform="translate(0,0)"/>
<path d="" fill="#030303" transform="translate(0,0)"/>
<path d="" fill="#282722" transform="translate(0,0)"/>
<path d="" fill="#010101" transform="translate(0,0)"/>
<path d="" fill="#000000" transform="translate(0,0)"/>
<path d="" fill="#030303" transform="translate(0,0)"/>
<path d="" fill="#040404" transform="translate(0,0)"/>
<path d="" fill="#030303" transform="translate(0,0)"/>
<path d="" fill="#030303" transform="translate(0,0)"/>
<path d="" fill="#030303" transform="translate(0,0)"/>
<path d="" fill="#040403" transform="translate(0,0)"/>
<path d="" fill="#020202" transform="translate(0,0)"/>
<path d="" fill="#010101" transform="translate(0,0)"/>
<path d="" fill="#030302" transform="translate(0,0)"/>
<path d="" fill="#040403" transform="translate(0,0)"/>
<path d="" fill="#030303" transform="translate(0,0)"/>
<path d="" fill="#020201" transform="translate(0,0)"/>
<path d="" fill="#040404" transform="translate(0,0)"/>
<path d="" fill="#000000" transform="translate(0,0)"/>
<path d="" fill="#000000" transform="translate(0,0)"/>
<path d="" fill="#040404" transform="translate(0,0)"/>
<path d="" fill="#000000" transform="translate(0,0)"/>
<path d="" fill="#040303" transform="translate(0,0)"/>
<path d="" fill="#010201" transform="translate(0,0)"/>
<path d="" fill="#040404" transform="translate(0,0)"/>
<path d="" fill="#020201" transform="translate(0,0)"/>
<path d="" fill="#050504" transform="translate(0,0)"/>
<path d="" fill="#000000" transform="translate(0,0)"/>
<path d="" fill="#070706" transform="translate(0,0)"/>
<path d="" fill="#040403" transform="translate(0,0)"/>
<path d="" fill="#010101" transform="translate(0,0)"/>
<path d="" fill="#030303" transform="translate(0,0)"/>
<path d="" fill="#050504" transform="translate(0,0)"/>
<path d="" fill="#403F38" transform="translate(0,0)"/>
<path d="" fill="#000000" transform="translate(0,0)"/>
<path d="" fill="#020202" transform="translate(0,0)"/>
<path d="" fill="#181815" transform="translate(0,0)"/>
<path d="" fill="#030303" transform="translate(0,0)"/>
<path d="" fill="#010101" transform="translate(0,0)"/>
<path d="" fill="#000000" transform="translate(0,0)"/>
<path d="" fill="#030303" transform="translate(0,0)"/>
<path d="" fill="#010101" transform="translate(0,0)"/>
<path d="" fill="#020202" transform="translate(0,0)"/>
<path d="" fill="#010101" transform="translate(0,0)"/>
<path d="" fill="#4F4D44" transform="translate(0,0)"/>
<path d="" fill="#000000" transform="translate(0,0)"/>
<path d="" fill="#010101" transform="translate(0,0)"/>
<path d="" fill="#020202" transform="translate(0,0)"/>
<path d="" fill="#010101" transform="translate(0,0)"/>
<path d="" fill="#040403" transform="translate(0,0)"/>
</svg>
